<?xml version="1.0" standalone="no"?>
<!DOCTYPE svg PUBLIC "-//W3C//DTD SVG 1.1//EN" "http://www.w3.org/Graphics/SVG/1.1/DTD/svg11.dtd" >
<svg xmlns="http://www.w3.org/2000/svg">
<metadata></metadata>
<defs>
<font id="clearface_fsregular" horiz-adv-x="1024" >
<font-face units-per-em="2048" ascent="1636" descent="-412" />
<missing-glyph horiz-adv-x="512" />
<glyph unicode="&#xfb01;" horiz-adv-x="1013" d="M76 0v68l102 14v754h-102v86h102q20 126 43.5 193.5t67.5 127.5q66 91 157.5 141t190.5 50q84 0 136 -35t52 -92q0 -40 -29 -69.5t-67 -29.5q-52 0 -86 60q-31 56 -47 70t-51 14q-60 0 -112 -47.5t-75 -122.5q-15 -54 -19.5 -102t-4.5 -158h252l258 43v-883l96 -14v-68 h-354v68l102 14v639q0 82 -12.5 98.5t-73.5 16.5h-268v-754l102 -14v-68h-360z" />
<glyph unicode="&#xfb02;" horiz-adv-x="1021" d="M76 0v68l102 14v754h-102v86h102q23 131 44 195t61 126q60 95 132 149t138 54q64 0 94 -53l197 75v-1386l102 -14v-68h-360v68l102 14v1098q0 59 -7 81t-30 35q-32 -49 -82 -49q-28 0 -41.5 7t-64.5 49q-13 10 -25 10q-29 0 -53 -39q-29 -51 -38.5 -117t-12.5 -235h198 v-86h-198v-754l102 -14v-68h-360z" />
<glyph unicode="&#xfb03;" horiz-adv-x="1525" d="M76 0v68l102 14v754h-102v86h102q23 131 44 195.5t61 125.5q60 95 132 149t138 54q44 0 76.5 -31t32.5 -74q0 -38 -28 -66t-65 -28q-29 0 -41.5 7t-64.5 49q-13 10 -27 10q-27 0 -51 -39q-29 -51 -38.5 -117t-12.5 -235h354q20 125 44 193.5t67 127.5q68 91 159 141 t191 50q84 0 136 -35t52 -92q0 -40 -29 -69.5t-67 -29.5q-52 0 -86 60q-31 56 -47 70t-51 14q-61 0 -113.5 -47.5t-75.5 -122.5q-15 -54 -19.5 -102t-4.5 -158h254l258 43v-883l96 -14v-68h-354v68l102 14v639q0 82 -12.5 98.5t-73.5 16.5h-270v-754l102 -14v-68h-360v68 l102 14v754h-354v-754l102 -14v-68h-360z" />
<glyph unicode="&#xfb04;" horiz-adv-x="1531" d="M76 0v68l102 14v754h-102v86h102q23 131 44 195.5t61 125.5q60 95 132 149t138 54q44 0 76.5 -31t32.5 -74q0 -38 -28 -66t-65 -28q-29 0 -41.5 7t-64.5 49q-13 10 -27 10q-27 0 -51 -39q-29 -51 -38.5 -117t-12.5 -235h354q23 131 44 195t61 126q60 95 132 149t140 54 q64 0 94 -53l197 75v-1386l102 -14v-68h-360v68l102 14v1098q0 59 -7 81t-30 35q-32 -49 -84 -49q-28 0 -41.5 7t-64.5 49q-13 10 -25 10q-29 0 -53 -39q-29 -51 -38.5 -117t-12.5 -235h198v-86h-198v-754l102 -14v-68h-360v68l102 14v754h-354v-754l102 -14v-68h-360z" />
<glyph horiz-adv-x="2048" />
<glyph horiz-adv-x="2048" />
<glyph unicode="&#xd;" horiz-adv-x="2048" />
<glyph unicode=" "  horiz-adv-x="512" />
<glyph unicode="&#x09;" horiz-adv-x="512" />
<glyph unicode="&#xa0;" horiz-adv-x="512" />
<glyph unicode="!" horiz-adv-x="524" d="M143 90q0 49 34.5 84t82.5 35q50 0 84.5 -34t34.5 -85q0 -46 -36 -81.5t-83 -35.5t-82 35t-35 82zM168 1262q0 57 30.5 94t77.5 37q46 0 75.5 -33.5t29.5 -85.5q0 -32 -16 -146q-45 -309 -55.5 -417t-16.5 -303q0 -41 -2 -72h-60q0 260 -2 299q-4 161 -49 493 q-12 102 -12 134z" />
<glyph unicode="&#x22;" horiz-adv-x="788" d="M190 1366h127l-34 -549h-74zM471 1366h125l-35 -549h-72z" />
<glyph unicode="#" horiz-adv-x="1191" d="M96 502l8 92h281l31 209h-277l11 92h278l68 471h94l-68 -471h223l66 471h94l-65 -471h256l-9 -92h-260l-30 -209h258l-11 -92h-260l-71 -502h-95l70 502h-221l-72 -502h-94l72 502h-277zM481 594h221l31 209h-223z" />
<glyph unicode="$" d="M98 199q0 42 32 73t75 31q45 0 79.5 -33t43.5 -88q9 -57 38 -77.5t109 -26.5v553q-92 45 -134.5 70t-76.5 55q-129 108 -129 256q0 132 91.5 222t248.5 112v172h74v-170q92 -2 148.5 -13.5t101.5 -38.5q80 -49 80 -110q0 -40 -30 -68t-71 -28q-42 0 -78 29.5t-49 74.5 q-19 58 -34 71t-68 13v-467q129 -58 196 -100q86 -53 133.5 -135.5t47.5 -180.5q0 -155 -98.5 -255.5t-278.5 -129.5v-192h-74v192q-174 8 -250 43q-60 26 -93.5 64.5t-33.5 81.5zM274 1073q0 -69 43.5 -119.5t157.5 -113.5v436q-86 -9 -143.5 -67t-57.5 -136zM549 82 q109 17 172 82.5t63 161.5q0 91 -51.5 151t-183.5 121v-516z" />
<glyph unicode="%" horiz-adv-x="1290" d="M61 997q0 158 81.5 271.5t195.5 113.5q112 0 189 -106t77 -260q0 -150 -83.5 -264.5t-192.5 -114.5t-188 105.5t-79 254.5zM190 -35l803 1415h86l-805 -1415h-84zM221 1014q0 -110 6.5 -165.5t26.5 -94.5q10 -23 33.5 -38.5t46.5 -15.5q115 0 115 316q0 161 -26 233 t-85 72q-26 0 -49 -16.5t-35 -44.5q-33 -76 -33 -246zM676 344q0 165 80 276t200 111q115 0 194 -107t79 -264q0 -86 -32 -172t-85 -145q-29 -32 -72.5 -51t-89.5 -19q-117 0 -195.5 106.5t-78.5 264.5zM838 393q0 -175 14 -235q12 -58 40 -89.5t66 -31.5q60 0 87.5 76.5 t27.5 242.5q0 161 -28.5 236.5t-88.5 75.5q-26 0 -51 -17t-37 -43q-17 -38 -23.5 -84t-6.5 -131z" />
<glyph unicode="&#x26;" horiz-adv-x="1490" d="M123 348q0 72 24.5 139.5t70.5 126.5t114 108.5t153 86.5q-43 103 -43 205q0 168 104.5 273.5t270.5 105.5q82 0 152.5 -32.5t112.5 -87.5t42 -118q0 -49 -30 -82t-74 -33q-47 0 -78 36t-31 93q0 13 6.5 44.5t6.5 41.5q0 22 -34.5 39t-78.5 17q-94 0 -154.5 -61 t-60.5 -156q0 -77 33.5 -174t111.5 -244q70 -130 119 -208t129 -183q41 49 72.5 105t49 112t17.5 102t-13.5 71.5t-47 39.5t-98.5 22v72h436v-72l-27 -6q-39 -8 -61.5 -16t-39.5 -23.5t-27 -34t-23 -53.5l-56 -155q-52 -138 -131 -226q53 -59 99 -84.5t98 -25.5 q38 0 65 15.5t62 57.5l14 17l60 -39q-104 -191 -285 -191q-58 0 -102 20t-115 79l-25 20q-92 -65 -173 -93t-175 -28q-193 0 -316.5 105.5t-123.5 271.5zM303 446q0 -101 47 -188t126 -138.5t169 -51.5q64 0 111.5 20t97.5 68q-213 285 -346 581q-113 -65 -159 -130.5 t-46 -160.5z" />
<glyph unicode="'" horiz-adv-x="512" d="M193 1366h126l-34 -549h-74z" />
<glyph unicode="(" horiz-adv-x="583" d="M96 569q0 253 100.5 495.5t274.5 410.5l31 -27q-60 -85 -95 -153t-59 -150q-74 -248 -74 -567q0 -294 53.5 -502.5t174.5 -388.5l-31 -29q-177 173 -276 414.5t-99 496.5z" />
<glyph unicode=")" horiz-adv-x="583" d="M82 -315q109 151 154 303q73 244 73 567q0 293 -53.5 502t-173.5 389l31 29q176 -173 275 -414.5t99 -497.5q0 -254 -99.5 -495t-274.5 -410z" />
<glyph unicode="*" horiz-adv-x="851" d="M76 1169q0 32 22.5 53t59.5 21q34 0 67.5 -19t118.5 -87l35 -23l20 12q-7 26 -10 31q0 1 -29 86q-20 58 -20 94q0 40 25.5 68.5t60.5 28.5q34 0 56 -26.5t22 -66.5q0 -16 -3 -29.5t-7.5 -26.5t-15.5 -46.5t-23 -73.5l-13 -41l21 -16q23 15 59 43l39 31q67 53 119 53 q36 0 62 -23.5t26 -56.5q0 -43 -42.5 -67.5t-115.5 -24.5q-5 0 -39 2t-55 2h-6q-14 0 -39 -2l-8 -21q6 -5 100 -71q92 -63 92 -125q0 -34 -21.5 -58t-53.5 -24q-35 0 -68 33q-20 23 -32 53.5t-38 128.5l-16 41h-23q-2 -6 -5.5 -16t-4.5 -15q-7 -14 -26 -86 q-39 -131 -117 -131q-32 0 -55 21.5t-23 50.5q0 44 29 76t135 102q24 18 33 27q-6 14 -7 22h-36l-99 -2q-73 -1 -112 24.5t-39 73.5z" />
<glyph unicode="+" d="M109 647v98h350v359h102v-359h357v-98h-357v-356h-102v356h-350z" />
<glyph unicode="," horiz-adv-x="438" d="M43 -262q168 165 168 227q0 21 -39 43q-66 37 -66 109q0 46 30.5 77t76.5 31q54 0 88.5 -38t34.5 -97q0 -177 -260 -387z" />
<glyph unicode="-" horiz-adv-x="387" d="M0 397v150h387v-150h-387z" />
<glyph unicode="." horiz-adv-x="438" d="M102 90q0 49 34.5 84t82.5 35q50 0 84.5 -34t34.5 -85q0 -46 -36 -81.5t-83 -35.5t-82 35t-35 82z" />
<glyph unicode="/" horiz-adv-x="1071" d="M-76 -338l1100 1806h88l-1100 -1806h-88z" />
<glyph unicode="0" d="M88 662q0 178 60.5 351.5t160.5 280.5q41 46 99 72.5t116 26.5q60 0 117.5 -27t99.5 -74q91 -105 143 -265.5t52 -342.5q0 -177 -60 -345t-163 -278q-85 -88 -199 -88q-66 0 -135.5 35.5t-114.5 93.5q-83 104 -129.5 252.5t-46.5 307.5zM283 625q0 -301 53 -449 q51 -145 180 -145q65 0 108.5 41.5t69.5 128.5q51 161 51 483q0 215 -16.5 341t-54.5 206q-22 44 -63.5 72t-84.5 28q-46 0 -83.5 -24t-62.5 -62t-43 -96.5t-28.5 -117t-16.5 -134.5t-7.5 -136.5t-1.5 -135.5z" />
<glyph unicode="1" d="M221 1237v63l453 111q-6 -127 -6 -219v-1110l209 -14v-68h-631v68l252 14v1030q0 82 -18 103.5t-85 21.5h-174z" />
<glyph unicode="2" d="M86 0v88q159 256 311 418q177 186 224 246q88 114 88 276q0 125 -72 205t-184 80q-69 0 -127 -36t-58 -77q0 -9 6 -20.5t41 -71.5q17 -27 17 -70q0 -51 -30.5 -84.5t-76.5 -33.5q-51 0 -83.5 40.5t-32.5 102.5q0 136 116 234t277 98q170 0 285.5 -103t115.5 -254 q0 -120 -67 -227t-226 -240q-177 -150 -242.5 -217.5t-142.5 -181.5h344q104 0 160 33q32 17 51 44.5t51 104.5q0 3 13 29l61 -14l-86 -392q-57 15 -86.5 19t-87.5 4h-559z" />
<glyph unicode="3" d="M66 217q0 48 28.5 78.5t73.5 30.5q55 0 91.5 -42t33.5 -106l-2 -49q-2 -8 -2 -23q0 -17 21.5 -31.5t58 -23t77.5 -8.5q84 0 146.5 39.5t95.5 113.5t33 175q0 185 -109 268q-79 61 -174 61q-22 0 -73 -12q-2 -2 -11 -2q-20 0 -34.5 13t-14.5 32q0 17 13 29t30 12 q12 0 49 -8t45 -8q39 0 83 20t79 53q37 37 57.5 92t20.5 119q0 121 -68 196t-178 75q-54 0 -93.5 -17.5t-39.5 -40.5q0 -16 5 -51.5t5 -44.5q0 -43 -32.5 -75.5t-75.5 -32.5q-44 0 -74.5 32.5t-30.5 79.5q0 95 105 164.5t250 69.5q178 0 296.5 -95.5t118.5 -238.5 q0 -127 -90.5 -218.5t-230.5 -107.5q82 -14 151 -51q220 -117 220 -326q0 -169 -131 -277t-336 -108q-166 0 -276.5 70t-110.5 174z" />
<glyph unicode="4" d="M49 322v98q382 495 457 979h229q-69 -170 -232.5 -432.5t-346.5 -517.5l-21 -29h449v491q66 84 151 242q3 10 19 35v-768h196v-98h-196v-240l127 -14v-68h-445v68l148 14v240h-535z" />
<glyph unicode="5" d="M57 203q0 43 31 74.5t74 31.5q59 0 92.5 -48.5t32.5 -131.5q0 -31 6 -39q10 -21 46.5 -34t80.5 -13q133 0 214 103.5t81 273.5q0 158 -74.5 259t-191.5 101q-157 0 -273 -149l-49 35l49 700h461q68 0 91 7t52 36h74l-49 -211h-563l-29 -450q59 69 126 100t159 31 q180 0 294.5 -121t114.5 -309q0 -203 -143 -339.5t-356 -136.5q-144 0 -247.5 68t-103.5 162z" />
<glyph unicode="6" d="M86 623q0 216 71 392.5t195.5 277t276.5 100.5q97 0 166 -50t69 -120q0 -40 -27 -67.5t-65 -27.5q-51 0 -93 46t-42 102q0 15 12 45h-33q-54 0 -112.5 -26.5t-95.5 -67.5q-64 -69 -102 -230t-36 -362q43 112 124.5 172.5t187.5 60.5q149 0 253.5 -124t104.5 -302 q0 -194 -121 -331.5t-291 -137.5q-193 0 -317.5 183t-124.5 467zM287 424q0 -98 28 -185.5t76 -140.5q49 -55 137 -55q106 0 165 95t59 268q0 166 -63 264t-169 98q-98 0 -165.5 -99t-67.5 -245z" />
<glyph unicode="7" d="M100 1026l93 369q52 -19 86.5 -24t121.5 -5h545v-78q-167 -281 -249 -461t-112 -334t-24 -352q1 -57 -1.5 -80.5t-12.5 -46.5q-24 -59 -96 -59q-61 0 -95 41t-34 113q0 117 55 268t180 381q128 235 256 434h-389q-86 0 -122.5 -10.5t-68.5 -44.5q-29 -35 -69 -129z" />
<glyph unicode="8" d="M76 336q0 93 47 173.5t135 139.5q73 48 98 64l-82 55q-66 53 -104.5 130t-38.5 159q0 145 108.5 240.5t272.5 95.5q154 0 261.5 -86t107.5 -209q0 -78 -43.5 -155.5t-114.5 -127.5q-25 -17 -66 -39q111 -66 158 -106q131 -116 131 -295q0 -173 -127.5 -287.5 t-320.5 -114.5q-179 0 -300.5 104.5t-121.5 258.5zM225 346q0 -137 83.5 -220t221.5 -83q120 0 197.5 73t77.5 187q0 129 -107 219q-36 29 -192 111l-68 37l-18 -11q-91 -44 -143 -127.5t-52 -185.5zM268 1114q0 -80 58 -145q41 -42 72 -61t161 -81q3 -2 39 -18l14 10 q60 40 91.5 101t31.5 135q0 117 -67.5 186.5t-182.5 69.5q-96 0 -156.5 -55t-60.5 -142z" />
<glyph unicode="9" d="M86 924q0 195 118 332t285 137q129 0 231.5 -81.5t160 -228.5t57.5 -333q0 -212 -73 -391t-199 -282.5t-275 -103.5q-102 0 -174 50t-72 122q0 39 29 67t70 28q48 0 90.5 -50t38.5 -106l-2 -25q39 -16 63 -16q71 0 140 55.5t100 137.5q74 188 84 495q-90 -235 -307 -235 q-158 0 -261.5 121t-103.5 307zM274 958q0 -164 61.5 -260t164.5 -96q107 0 176 98t69 250q0 167 -71 275t-180 108q-97 0 -158.5 -104.5t-61.5 -270.5z" />
<glyph unicode=":" horiz-adv-x="438" d="M102 90q0 49 34.5 84t82.5 35q50 0 84.5 -34t34.5 -85q0 -46 -36 -81.5t-83 -35.5t-82 35t-35 82zM102 791q0 49 34.5 83.5t82.5 34.5q50 0 84.5 -33.5t34.5 -84.5q0 -46 -36 -81.5t-83 -35.5t-82 35t-35 82z" />
<glyph unicode=";" horiz-adv-x="438" d="M33 -262q168 165 168 227q0 21 -39 43q-66 37 -66 109q0 46 30.5 77t76.5 31q54 0 88.5 -38t34.5 -97q0 -177 -260 -387zM98 793q0 49 33.5 82.5t83.5 33.5q51 0 86 -35.5t35 -87.5q0 -47 -34.5 -80.5t-82.5 -33.5q-49 0 -85 36t-36 85z" />
<glyph unicode="&#x3c;" d="M96 641v18l846 547v-127l-606 -395l604 -397l2 -195z" />
<glyph unicode="=" d="M109 532v97h809v-97h-809zM109 770v96h809v-96h-809z" />
<glyph unicode="&#x3e;" d="M88 92v127l606 397l-604 398l-2 192l846 -547v-18z" />
<glyph unicode="?" horiz-adv-x="770" d="M102 1274q0 54 46 87.5t118 33.5q158 0 274.5 -119.5t116.5 -280.5q0 -117 -62.5 -214.5t-168.5 -147.5q-24 -11 -102 -41v-260h-70v428q137 37 209 116.5t72 194.5q0 141 -111 217q-29 19 -45 19q-11 0 -17.5 -7.5t-27.5 -44.5t-57 -61.5t-72 -24.5q-41 0 -72 32t-31 73 zM168 94q0 49 33.5 83t81.5 34q52 0 87.5 -35t35.5 -86q0 -47 -36 -82t-83 -35q-50 0 -84.5 35t-34.5 86z" />
<glyph unicode="@" horiz-adv-x="1529" d="M29 496q0 181 85 355.5t238 307.5q272 242 609 242q250 0 395 -134t145 -366q0 -157 -70 -296t-196 -234q-63 -47 -131 -75t-121 -28q-51 0 -81 33t-30 90q0 19 9 66q-44 -87 -115.5 -141t-142.5 -54q-85 0 -143 70.5t-58 173.5q0 143 85 284t219.5 229.5t270.5 88.5 q88 0 145.5 -35.5t57.5 -89.5q0 -50 -61 -78l-88 -307q-33 -117 -38 -138.5t-5 -43.5q0 -49 49 -49q36 0 102 34q87 47 172 177q92 145 92 315q0 205 -133 326q-61 57 -139.5 82.5t-187.5 25.5q-172 0 -322 -70.5t-264 -205.5q-95 -110 -149 -251.5t-54 -281.5 q0 -224 130.5 -350.5t359.5 -126.5q208 0 497 125l33 -64q-164 -75 -295 -106t-283 -31q-159 0 -266.5 37t-183.5 119q-137 146 -137 375zM569 520q0 -67 29 -110t74 -43q46 0 97.5 36.5t119.5 120.5l96 334q27 92 27 115q0 29 -21 47t-55 18q-71 0 -149 -60.5t-132 -158.5 q-36 -65 -61 -152t-25 -147z" />
<glyph unicode="A" horiz-adv-x="1208" d="M14 0v68q56 5 86 22t52.5 57t48.5 125l309 983l-57 125h231l420 -1298l104 -14v-68h-436v68l131 14l-112 348h-455l-45 -131q-12 -33 -21.5 -76t-9.5 -61q0 -51 39 -71t113 -23v-68h-398zM358 508h414l-215 647z" />
<glyph unicode="B" horiz-adv-x="1275" d="M92 0v68l123 14v1202l-123 14v68h508q174 0 258 -18.5t160 -73.5q53 -38 84 -100.5t31 -129.5q0 -130 -104.5 -215.5t-264.5 -87.5q126 -24 205 -63q101 -47 158 -134t57 -192q0 -64 -25.5 -125.5t-68.5 -101.5q-83 -73 -179.5 -99t-287.5 -26h-531zM406 68h165 q107 0 171 13t110 44q58 38 91.5 105t33.5 147q0 94 -45 167t-127 111q-59 29 -126.5 40.5t-172.5 11.5h-100v-639zM406 778q86 -6 118 -6q214 0 320 68q39 27 64.5 83.5t25.5 118.5q0 132 -92 194t-287 62q-41 0 -149 -6v-514z" />
<glyph unicode="C" horiz-adv-x="1214" d="M92 657q0 120 28 232.5t79.5 203t120 159t153 106t174.5 37.5q67 0 182 -27q68 -14 97 -14q26 0 45 5t67 27l19 9l100 -428l-70 -21q-104 196 -203.5 281.5t-224.5 85.5q-165 0 -259.5 -150t-94.5 -411q0 -171 41.5 -311.5t118.5 -231.5q45 -55 116.5 -87t147.5 -32 q131 0 223 74t158 235l66 -24q-59 -184 -197.5 -293t-314.5 -109q-164 0 -294.5 87t-204 243.5t-73.5 353.5z" />
<glyph unicode="D" horiz-adv-x="1339" d="M92 0v68l123 14v1202l-123 14v68h455q138 0 214 -15t152 -57q157 -85 245.5 -245.5t88.5 -360.5q0 -218 -105 -396t-274 -249q-68 -29 -121 -36t-196 -7h-459zM406 74q99 -8 157 -8q160 0 238 45q110 60 171.5 212.5t61.5 368.5q0 391 -180 527q-104 79 -295 79 q-39 0 -153 -6v-1218z" />
<glyph unicode="E" horiz-adv-x="1232" d="M92 0v68l123 14v1202l-123 12v70h666q107 0 157.5 5t112.5 22l94 -396l-65 -22l-15 24l-28 58q-45 85 -121 151q-54 45 -118.5 63.5t-166.5 18.5q-92 0 -202 -10v-516h100q73 0 111 16.5t63 57.5q36 66 47 137h66v-508h-66q-19 131 -64 176t-161 45h-96v-608 q105 -6 165 -6q118 0 177 10t110 39q123 72 201 229l37 74l69 -18l-108 -437q-98 20 -131 24.5t-95 4.5h-739z" />
<glyph unicode="F" horiz-adv-x="1132" d="M92 0v68l123 14v1202l-123 14v68h625q112 0 167.5 5.5t129.5 23.5l98 -432l-65 -21q-68 142 -133 214.5t-151 103t-226 30.5q-51 0 -131 -6v-547h75q64 0 94 6t60 23q38 22 57.5 55t34.5 103l6 18h70v-506h-70q-11 74 -22.5 107.5t-36.5 58.5q-33 33 -77.5 46.5 t-121.5 13.5h-69v-580l137 -14v-68h-451z" />
<glyph unicode="G" horiz-adv-x="1253" d="M92 649q0 149 47 292.5t131 250.5q155 201 385 201q73 0 146 -25q67 -22 88 -22q37 0 123 43l80 -424l-60 -15q-28 78 -96 183q-62 94 -127 136t-150 42q-158 0 -256 -157t-98 -411q0 -191 57.5 -352t157 -254.5t217.5 -93.5q49 0 96.5 21.5t67.5 52.5q17 25 17 104v221 l-107 15v67h373v-67l-92 -15v-264q0 -14 0.5 -30t1.5 -26v-11q0 -41 4 -72q-23 4 -45 4q-25 0 -45.5 -4.5t-120.5 -32.5q-109 -33 -223 -33q-163 0 -294 87.5t-204.5 242t-73.5 346.5z" />
<glyph unicode="H" horiz-adv-x="1392" d="M92 0v68l123 14v1202l-123 14v68h436v-68l-122 -14v-514h581v514l-123 14v68h436v-68l-122 -14v-1202l122 -14v-68h-436v68l123 14v602h-581v-602l122 -14v-68h-436z" />
<glyph unicode="I" horiz-adv-x="647" d="M92 0v68l137 14v1202l-137 14v68h465v-68l-137 -14v-1202l137 -14v-68h-465z" />
<glyph unicode="J" horiz-adv-x="708" d="M-14 66q0 44 31.5 77t74.5 33q32 0 65 -19.5t56 -52.5q14 -22 23 -29t22 -7q19 0 39 23.5t27 55.5q14 60 14 220v917l-123 14v68h436v-68l-123 -14v-702q0 -123 -7 -190t-27 -126q-46 -136 -150.5 -227.5t-214.5 -91.5q-61 0 -102 34t-41 85z" />
<glyph unicode="K" horiz-adv-x="1306" d="M92 0v68l123 14v1202l-123 14v68h436v-68l-122 -14v-690l442 567q37 49 37 70q0 50 -135 67v68h471v-68q-102 -17 -150 -42.5t-108 -94.5l-213 -246l434 -833l96 -14v-68h-455v68l138 14l-332 682l-225 -291v-391l122 -14v-68h-436z" />
<glyph unicode="L" horiz-adv-x="1134" d="M92 0v68l123 14v1202l-123 14v68h451v-68l-137 -14v-1208q68 -8 167 -8q178 0 284.5 77t176.5 258l10 23l64 -18l-98 -435q-80 19 -116 23t-124 4h-678z" />
<glyph unicode="M" horiz-adv-x="1533" d="M68 0v68q90 12 124 62.5t37 168.5l29 985l-123 14v68h326l317 -852l330 852h324v-68l-119 -14l24 -1202l123 -14v-68h-434v68l121 14l-21 1104l-374 -932h-58l-360 932l-19 -860l-2 -62q-3 -100 36 -142.5t140 -53.5v-68h-421z" />
<glyph unicode="N" horiz-adv-x="1310" d="M57 0v68q101 15 136.5 59t35.5 156v811q0 84 -8 113.5t-37 52.5q-37 29 -127 38v68h312l659 -1016v729q0 68 -6 97t-25 57q-22 29 -48 42t-87 23v68h383v-68q-82 -25 -108.5 -66.5t-26.5 -144.5v-1087h-82l-717 1108v-825q0 -112 35.5 -155t142.5 -60v-68h-432z" />
<glyph unicode="O" horiz-adv-x="1347" d="M92 676q0 190 81 355.5t217.5 263.5t293.5 98q122 0 233 -64t197 -184q141 -197 141 -463q0 -186 -81.5 -350t-218 -261.5t-291.5 -97.5q-111 0 -216.5 58t-183.5 153.5t-125 225t-47 266.5zM305 662q0 -294 94.5 -456.5t264.5 -162.5q180 0 279 169t99 472 q0 304 -92.5 465.5t-267.5 161.5q-68 0 -129.5 -28t-101.5 -77q-146 -176 -146 -544z" />
<glyph unicode="P" horiz-adv-x="1191" d="M92 0v68l123 14v1202l-123 14v68h453q143 0 211.5 -6.5t138.5 -28.5q114 -35 182 -125t68 -205q0 -178 -136.5 -275t-387.5 -97q-100 0 -215 10v-557l137 -14v-68h-451zM406 717q105 -12 169 -12q200 0 281 94q82 88 82 217q0 137 -86.5 209.5t-249.5 72.5 q-61 0 -196 -12v-569z" />
<glyph unicode="Q" horiz-adv-x="1347" d="M92 678q0 141 48 273t127.5 228.5t188 155t224.5 58.5q154 0 287 -95t211.5 -256.5t78.5 -347.5q0 -139 -48 -275.5t-134 -240.5q-41 -51 -110 -106l84 -119q33 -45 55 -61.5t51 -16.5q30 0 86 23v-66q-72 -78 -172 -78q-160 0 -250 238q-85 -19 -139 -19 q-138 0 -257.5 71.5t-205.5 205.5q-60 92 -92.5 203.5t-32.5 224.5zM305 676q0 -312 91 -473.5t268 -161.5q51 0 131 27q-43 114 -148 151l23 64h10q69 0 128 -37t99 -105q75 107 106 227t31 304q0 313 -92.5 476t-271.5 163q-180 0 -277.5 -165t-97.5 -470z" />
<glyph unicode="R" horiz-adv-x="1271" d="M92 0v68l123 14v1202l-123 14v68h469q190 0 288.5 -26.5t180.5 -100.5q46 -41 72 -101.5t26 -125.5q0 -131 -84.5 -220.5t-226.5 -109.5l313 -600l101 -14v-68h-275l-315 657q-54 -10 -111 -10q-68 0 -124 10v-575l122 -14v-68h-436zM406 731q68 -12 131 -12 q186 0 285.5 73t99.5 209q0 89 -41.5 156.5t-116.5 102.5q-72 34 -205 34q-42 0 -153 -6v-557z" />
<glyph unicode="S" horiz-adv-x="1136" d="M82 414l72 14q94 -196 208.5 -290.5t258.5 -94.5q123 0 202.5 69.5t79.5 176.5q0 85 -55 147q-29 30 -41 41t-57.5 34t-108.5 46.5t-203 73.5q-136 50 -218.5 157.5t-82.5 235.5q0 154 110 262.5t265 108.5q70 0 162 -29q52 -16 74 -16q37 0 141 47l90 -404l-72 -20 q-69 166 -174.5 261t-222.5 95q-98 0 -163.5 -61.5t-65.5 -153.5q0 -94 64.5 -157.5t211.5 -114.5q160 -56 239 -92.5t130 -79.5q137 -116 137 -295q0 -169 -125.5 -285.5t-308.5 -116.5q-53 0 -97.5 8t-146.5 35q-47 13 -70 13q-50 0 -145 -49z" />
<glyph unicode="T" horiz-adv-x="1097" d="M14 967l78 419q90 -20 197 -20h502q133 0 223 20l69 -419l-69 -17q-52 174 -142 257t-227 85v-1210l123 -14v-68h-436v68l123 14v1210q-137 0 -225.5 -76t-151.5 -249h-64z" />
<glyph unicode="U" horiz-adv-x="1292" d="M84 1298v68h436v-68l-123 -14v-846q0 -88 9.5 -141t33.5 -98q34 -64 102 -100t156 -36q93 0 168.5 44.5t106.5 117.5q18 42 23 84t5 150v614q0 128 -32.5 169t-139.5 50v74h398v-68q-91 -23 -117.5 -65t-26.5 -162v-567q0 -151 -6.5 -204.5t-32.5 -109.5 q-47 -106 -150.5 -162.5t-248.5 -56.5q-131 0 -232.5 50t-150.5 139q-35 62 -45 121t-10 211v792z" />
<glyph unicode="V" horiz-adv-x="1187" d="M14 1298v68h424v-68l-127 -14l328 -1077l272 907q15 54 15 70q0 99 -142 114v68h392v-68q-77 -12 -113.5 -51.5t-71.5 -152.5l-311 -994l43 -125h-203l-414 1309z" />
<glyph unicode="W" horiz-adv-x="1728" d="M14 1298v68h412v-68l-115 -14l258 -1038l246 796l-76 275l185 49l311 -1120l233 848q13 47 13 73q0 57 -33 88.5t-102 42.5v68h368v-68q-61 -12 -95 -56t-63 -150l-272 -983l41 -136h-195l-266 957l-252 -803l35 -154h-194l-344 1311z" />
<glyph unicode="X" horiz-adv-x="1150" d="M27 0v68q85 13 130 54t109 157l221 401l-360 608l-100 10v68h442v-68l-117 -14l264 -463l168 314q29 54 29 86q0 59 -121 77v68h406v-68q-75 -4 -132.5 -52t-117.5 -156l-186 -334l393 -674l96 -14v-68h-440v68l118 14l-292 524l-201 -364q-33 -57 -33 -84q0 -72 139 -90 v-68h-415z" />
<glyph unicode="Y" horiz-adv-x="1175" d="M14 1298v68h437v-68l-125 -14l317 -639l229 481q23 47 23 72q0 85 -141 100v68h409v-68q-79 -22 -115.5 -54t-82.5 -126l-285 -567v-469l123 -14v-68h-436v68l122 14v469l-376 733z" />
<glyph unicode="Z" horiz-adv-x="1036" d="M57 0v45l703 1243q-23 2 -49 2q-43 2 -101 2q-154 0 -257.5 -78t-172.5 -245l-63 22l92 398q60 -15 100.5 -19t128.5 -4h541v-59l-698 -1235h55q34 0 77 -2t46 -2q229 0 362 182q40 58 94 168l64 -21l-102 -426q-70 20 -108 24.5t-140 4.5h-572z" />
<glyph unicode="[" horiz-adv-x="585" d="M150 -328v1762h339v-68h-77q-50 0 -64.5 -3t-28.5 -17t-17 -28.5t-3 -66.5v-1396q0 -52 3 -66.5t17 -28.5t28.5 -17t64.5 -3h77v-68h-339z" />
<glyph unicode="\" horiz-adv-x="1071" d="M-41 1468h86l1102 -1806h-90z" />
<glyph unicode="]" horiz-adv-x="585" d="M96 -260h78q50 0 64 3t28 17t17.5 29t3.5 66v1396q0 51 -3.5 66t-17.5 29t-28 17t-64 3h-78v68h340v-1762h-340v68z" />
<glyph unicode="^" d="M51 682l453 752h18l453 -752h-127l-301 512l-301 -512h-195z" />
<glyph unicode="_" d="M0 -147h1024v-117h-1024v117z" />
<glyph unicode="`" d="M244 1333q0 32 25 57t59 25q25 0 46.5 -17t47.5 -57l170 -251l-23 -25l-241 158q-84 54 -84 110z" />
<glyph unicode="a" horiz-adv-x="915" d="M68 209q0 100 69.5 184.5t198.5 143.5q128 59 246 92q0 80 -19 133q-20 53 -76.5 95t-105.5 42q-17 0 -27.5 -11t-56.5 -79q-10 -17 -32.5 -28t-45.5 -11q-41 0 -68.5 26t-27.5 64q0 54 44.5 84.5t121.5 30.5q104 0 202 -34.5t166 -94.5q44 -38 62 -86t18 -131v-393 q0 -58 1.5 -74t9.5 -37q5 -14 15.5 -23.5t22.5 -9.5q27 0 64 43l45 -39q-93 -131 -176 -131q-20 0 -43.5 13.5t-38.5 33.5q-22 30 -30.5 60t-8.5 80q-38 -86 -114.5 -136.5t-170.5 -50.5q-103 0 -174 71.5t-71 172.5zM231 270q0 -75 44.5 -127.5t107.5 -52.5q104 0 199 111 v362q-120 -39 -166 -59.5t-86 -50.5q-99 -80 -99 -183z" />
<glyph unicode="b" horiz-adv-x="1005" d="M61 1298v70l265 96v-649q97 141 252 141q154 0 251 -130.5t97 -336.5q0 -221 -114.5 -372.5t-281.5 -151.5q-170 0 -254 152l-124 -144l-39 21q35 87 46 161.5t11 221.5v729q0 103 -1.5 126t-10.5 40q-16 31 -56 31q-4 0 -18 -2t-23 -3zM326 393q0 -106 3 -145.5 t15 -77.5q17 -54 65 -87.5t111 -33.5q114 0 183 100t69 263q0 177 -77.5 297t-192.5 120q-48 0 -89.5 -23.5t-86.5 -76.5v-336z" />
<glyph unicode="c" horiz-adv-x="851" d="M80 414q0 150 60 274.5t164.5 196t230.5 71.5q107 0 183.5 -48t76.5 -115q0 -44 -30.5 -75.5t-72.5 -31.5q-39 0 -72.5 32.5t-44.5 78.5q-10 48 -18 59q-20 23 -63 23q-109 0 -182.5 -106t-73.5 -263q0 -178 92 -299t227 -121q69 0 119.5 33.5t109.5 116.5l52 -35 q-138 -240 -365 -240q-170 0 -281.5 127.5t-111.5 321.5z" />
<glyph unicode="d" horiz-adv-x="1017" d="M80 432q0 144 54 264.5t148 190t207 69.5q122 0 195 -79v331q0 58 -16 81.5t-54 23.5q-15 0 -45 -6v67l271 86v-1128q0 -133 17 -183.5t61 -50.5q8 0 32 4v-65l-184 -74q-25 32 -45.5 89t-18.5 89q-38 -82 -111 -129t-161 -47q-151 0 -250.5 133t-99.5 334zM238 530 q0 -186 72.5 -302.5t187.5 -116.5q54 0 103 22t83 60v536q-17 75 -70.5 118.5t-128.5 43.5q-110 0 -178.5 -100t-68.5 -261z" />
<glyph unicode="e" horiz-adv-x="903" d="M80 434q0 143 54.5 263t148 189.5t204.5 69.5q138 0 231.5 -102.5t115.5 -275.5l-592 -156q23 -148 107 -240t194 -92q75 0 131 36t114 122l46 -37q-63 -128 -148 -187t-205 -59q-175 0 -288 132.5t-113 336.5zM233 510l279 70q73 19 101 44t28 74q0 85 -45.5 136 t-120.5 51q-108 0 -175 -100.5t-67 -262.5v-12z" />
<glyph unicode="f" horiz-adv-x="565" d="M76 0v68l102 14v754h-102v86h102q23 131 44 195t61 126q60 95 132 149t140 54q44 0 76.5 -31t32.5 -74q0 -38 -28.5 -66t-66.5 -28q-28 0 -41.5 7t-64.5 49q-13 10 -25 10q-29 0 -53 -39q-29 -51 -38.5 -117t-12.5 -235h198v-86h-198v-754l102 -14v-68h-360z" />
<glyph unicode="g" horiz-adv-x="999" d="M76 -172q0 38 30.5 81t81.5 75q48 29 113 49h-55q-69 0 -108.5 22t-39.5 62q0 37 53.5 92.5t149.5 118.5q-103 60 -147.5 126t-44.5 158q0 146 113 242t284 96h33q96 108 166 154.5t139 46.5q43 0 71.5 -27.5t28.5 -68.5t-29.5 -70t-72.5 -29q-49 0 -97 48q-18 18 -26 18 q-37 0 -98 -84q111 -23 184.5 -113t73.5 -202q0 -141 -117.5 -238.5t-286.5 -97.5q-51 0 -98 12l-35 -29q-51 -40 -51 -63q0 -43 160 -43q176 -2 277.5 -17.5t164.5 -52.5q39 -23 62.5 -65.5t23.5 -89.5q0 -267 -580 -267q-225 0 -299 95q-24 27 -24 61zM238 -133 q0 -63 60 -92t189 -29q234 0 306 57q49 43 49 91q0 60 -67.5 85.5t-229.5 28.5q-76 0 -162 4q-78 -34 -111.5 -67.5t-33.5 -77.5zM283 618q0 -117 60 -189.5t157 -72.5q92 0 149.5 71t57.5 185q0 124 -61 199.5t-161 75.5q-93 0 -147.5 -73t-54.5 -196z" />
<glyph unicode="h" horiz-adv-x="1071" d="M76 0v68l102 14v1079q0 85 -12 113.5t-47 28.5q-15 0 -43 -11v72l258 98v-645q54 63 136.5 101t166.5 38q77 0 141.5 -43t98.5 -116q21 -43 25.5 -89t4.5 -214v-412l97 -14v-68h-355v68l103 14v498q0 94 -10 136.5t-40 76.5q-58 67 -137 67q-63 0 -124 -36.5t-107 -102.5 v-639l102 -14v-68h-360z" />
<glyph unicode="i" horiz-adv-x="503" d="M76 0v68l102 14v627q0 75 -10 95.5t-45 20.5q-16 0 -47 -8v64l258 84v-883l96 -14v-68h-354zM143 1278q0 43 33.5 75.5t77.5 32.5t75 -32t31 -78q0 -43 -32.5 -75t-75.5 -32q-44 0 -76.5 32.5t-32.5 76.5z" />
<glyph unicode="j" horiz-adv-x="509" d="M-88 -227q0 37 26.5 64.5t63.5 27.5q26 0 41 -8t72 -50q8 -4 16 -4q31 0 57 70q11 33 14 64t3 118v650q0 73 -13 97.5t-51 24.5q-15 0 -39 -8v68l258 71v-698q0 -146 -19.5 -238.5t-66.5 -168.5q-47 -77 -121.5 -127t-140.5 -50q-40 0 -70 29.5t-30 67.5zM164 1276 q0 46 33 79.5t77 33.5q46 0 78.5 -32.5t32.5 -78.5q0 -44 -34.5 -77.5t-78.5 -33.5t-76 32.5t-32 76.5z" />
<glyph unicode="k" horiz-adv-x="1026" d="M76 0v68l102 14v1106q0 62 -12.5 86t-46.5 24q-8 0 -43 -6v72l258 96v-1034q98 148 211 291q106 134 170.5 186.5t122.5 52.5q40 0 67 -26t27 -64q0 -39 -32.5 -70.5t-72.5 -31.5q-14 0 -52 10t-52 10q-25 0 -57 -29t-91 -108l334 -565l90 -14v-68h-368v68l104 14 l-256 438q-89 -128 -112 -174q-33 -71 -33 -168v-96l102 -14v-68h-360z" />
<glyph unicode="l" horiz-adv-x="509" d="M76 0v68l102 14v1098q0 68 -14 95.5t-49 27.5q-4 0 -39 -7v72l258 100v-1386l102 -14v-68h-360z" />
<glyph unicode="m" horiz-adv-x="1509" d="M76 0v68l102 14v594q0 83 -15.5 116t-53.5 33q-12 0 -33 -6v70l186 82q75 -72 72 -183q37 78 104.5 123t149.5 45q84 0 142 -45t75 -123q34 71 114.5 119.5t163.5 48.5q92 0 163.5 -61.5t86.5 -155.5q15 -82 15 -262v-395l94 -14v-68h-352v68l102 14v522q0 77 -9.5 118.5 t-33.5 68.5q-49 55 -119 55q-106 0 -188 -88v-676l102 -14v-68h-360v68l102 14v565q0 97 -41 141q-49 58 -115 58q-47 0 -87 -23t-109 -90v-651l102 -14v-68h-360z" />
<glyph unicode="n" horiz-adv-x="1060" d="M76 0v68l102 14v580q0 76 -3.5 98.5t-20.5 40.5q-21 24 -48 24q-2 0 -30 -4v70l190 80q29 -31 47.5 -74.5t20.5 -83.5q46 66 121.5 104.5t160.5 38.5q68 0 131 -32t101 -86q51 -76 51 -242v-514l94 -14v-68h-352v68l102 14v510q0 82 -13.5 130.5t-47.5 86.5 q-45 51 -115 51q-69 0 -132 -36t-101 -97v-645l102 -14v-68h-360z" />
<glyph unicode="o" horiz-adv-x="1013" d="M80 455q0 135 58.5 250.5t158 183t215.5 67.5q177 0 298.5 -144t121.5 -353q0 -131 -59 -245t-158.5 -181.5t-212.5 -67.5q-111 0 -209 67t-155.5 180t-57.5 243zM266 463q0 -422 240 -422q46 0 87 18.5t64 49.5q42 56 65 152.5t23 215.5q0 192 -62.5 302t-172.5 110 q-111 0 -177.5 -116t-66.5 -310z" />
<glyph unicode="p" horiz-adv-x="1015" d="M76 -270l102 14v903q0 97 -13 132.5t-50 35.5q-15 0 -39 -8v65l196 93q41 -71 62 -172q46 76 118 119.5t152 43.5q141 0 236.5 -130t95.5 -322q0 -129 -46.5 -251t-123.5 -194q-102 -94 -236 -94q-136 0 -196 78v-299l102 -14v-68h-360v68zM334 168q75 -129 203 -129 q109 0 178 104t69 267q0 173 -74 293t-180 120q-54 0 -106 -30t-90 -84v-541z" />
<glyph unicode="q" horiz-adv-x="1011" d="M80 412q0 147 55.5 272.5t150.5 198.5t206 73q78 0 143 -38t94 -101l129 152l37 -29q-34 -73 -47.5 -142.5t-13.5 -176.5v-881l102 -14v-64h-361v64l103 14v354q-114 -129 -256 -129q-149 0 -245.5 126.5t-96.5 320.5zM240 483q0 -171 73 -282t187 -111q49 0 97 25t81 67 v547q-17 72 -66.5 113t-119.5 41q-112 0 -182 -110.5t-70 -289.5z" />
<glyph unicode="r" horiz-adv-x="737" d="M76 811v70l180 82q42 -80 57.5 -155t16.5 -206q47 170 119.5 262t158.5 92q42 0 72.5 -30t30.5 -72q0 -38 -29.5 -68t-67.5 -30q-28 0 -65 12q-30 10 -45 10q-66 0 -123 -209q-33 -129 -33 -295v-192l109 -14v-68h-367v68l103 14v489q0 127 -22.5 185.5t-72.5 58.5 q-12 0 -22 -4z" />
<glyph unicode="s" horiz-adv-x="784" d="M68 166q0 41 28 71.5t66 30.5q40 0 71 -31t43 -83q16 -76 37 -91q33 -20 84 -20q79 0 133 46t54 114q0 63 -49 111.5t-164 97.5q-140 59 -198 119.5t-58 148.5q0 119 105 197.5t263 78.5q78 0 125 -30.5t47 -81.5q0 -35 -27.5 -61.5t-64.5 -26.5t-66.5 19.5t-43.5 51.5 q-15 38 -23 45t-39 7q-58 0 -99.5 -37t-41.5 -90q0 -60 53 -107q13 -13 115 -58q43 -20 71 -32q112 -49 173 -127t61 -172q0 -127 -100.5 -209t-255.5 -82q-128 0 -213.5 57.5t-85.5 143.5z" />
<glyph unicode="t" horiz-adv-x="618" d="M47 836v86h129v258l156 123v-381h250v-86h-250v-572q0 -92 29.5 -133t95.5 -41q39 0 68 14.5t81 59.5l35 -55q-119 -144 -260 -144q-60 0 -111 35.5t-71 91.5q-17 45 -20 81.5t-3 188.5v474h-129z" />
<glyph unicode="u" horiz-adv-x="1085" d="M68 803v65l262 88q-4 -203 -4 -290v-299q0 -85 1 -103t9 -43q19 -63 63.5 -97t108.5 -34q71 0 127.5 38t122.5 130v430q0 51 -1.5 64.5t-8.5 25.5q-12 27 -58 27q-11 0 -35 -6v69l265 88q-7 -177 -7 -301v-329q0 -121 2.5 -149t12.5 -50q15 -35 43 -35q14 0 45 10v-61 l-189 -66q-66 86 -69 197q-28 -45 -49 -72q-53 -62 -128 -98.5t-151 -36.5q-57 0 -107 24t-81 66q-44 60 -58 122.5t-14 197.5v321q0 70 -4 82q-12 31 -53 31q-11 0 -45 -6z" />
<glyph unicode="v" horiz-adv-x="894" d="M2 831v62l219 61q114 -340 268 -780l168 369q41 90 41 139q0 22 -7 33.5t-52 66.5q-31 40 -31 76q0 40 31 69t74 29q50 0 81 -34t31 -88q0 -46 -23.5 -127t-58.5 -156l-260 -551h-88l-278 752q-19 49 -35 67.5t-41 18.5q-7 0 -39 -7z" />
<glyph unicode="w" horiz-adv-x="1320" d="M2 836v57l219 65l225 -733l222 697h55l235 -711l129 315q48 122 48 150q0 27 -35 65q-38 41 -49 61.5t-11 51.5q0 42 30 72t71 30q47 0 79.5 -35t32.5 -87q0 -86 -51 -216l-244 -618h-86l-204 666l-222 -666h-79l-232 702q-29 90 -47 114t-57 24q-15 0 -29 -4z" />
<glyph unicode="x" horiz-adv-x="909" d="M14 0v68q70 9 106.5 37t92.5 114l152 234l-265 387l-86 14v68h369v-68l-94 -14l190 -277l111 164q26 41 26 72q0 9 -2 15.5t-8.5 11.5t-11 8t-16.5 6t-18.5 4.5t-23.5 5t-24 4.5v68h340v-68q-67 -7 -97 -28t-81 -95l-154 -223l305 -426l70 -14v-68h-360v68l98 14 l-225 311l-109 -164q-47 -68 -47 -104q0 -29 25 -41.5t88 -15.5v-68h-351z" />
<glyph unicode="y" horiz-adv-x="888" d="M2 819v66l234 65l256 -762q77 144 147 303.5t70 192.5q0 23 -39 59q-58 55 -58 109q0 43 31.5 73.5t75.5 30.5q49 0 80.5 -36t31.5 -91q0 -74 -64.5 -233t-229.5 -490q-129 -256 -208.5 -347t-174.5 -91q-51 0 -91 30.5t-40 68.5q0 37 31 64.5t71 27.5q27 0 78 -21 q37 -18 49 -18q34 0 72 47.5t73 132.5l-243 672q-34 94 -56 121.5t-63 27.5q-17 0 -33 -2z" />
<glyph unicode="z" horiz-adv-x="899" d="M61 0v49l576 811l-59 2h-62q-130 0 -218.5 -66t-147.5 -206l-60 16l86 328q52 -12 172 -12h469l21 -62l-580 -794q31 -1 54 -1.5t32 -0.5t14.5 -0.5t8.5 -0.5q145 0 231 58q57 40 97.5 92.5t86.5 146.5l56 -16l-84 -364q-55 15 -77.5 17.5t-98.5 2.5h-517z" />
<glyph unicode="{" horiz-adv-x="692" d="M78 549v67q92 6 130 39.5t38 108.5q0 99 -4 254q0 26 -1 62.5t-1 43.5q0 198 90 267q27 21 67.5 29t116.5 10h25t20.5 0.5t15.5 1t11 0.5h4q21 0 35 2v-68q-100 -2 -150 -32t-72 -103q-3 -11 -5 -19t-3.5 -18t-2 -14.5t-1 -17t-0.5 -16.5v-23v-27v-310 q0 -81 -40.5 -132.5t-112.5 -65.5v-10q100 -15 139 -117q16 -47 16 -160v-201q0 -91 5.5 -149t19.5 -102t41.5 -66t66.5 -32.5t99 -10.5v-68h-29q-3 1 -13 1h-31.5t-41.5 1q-82 1 -126 15.5t-75 48.5q-67 70 -67 246q0 138 6 399q1 88 -37.5 125.5t-132.5 40.5z" />
<glyph unicode="|" d="M426 -342v1708h170v-1708h-170z" />
<glyph unicode="}" horiz-adv-x="692" d="M66 -260q100 2 149.5 31.5t71.5 101.5q3 11 5 19t3.5 18t2 15t1 17.5t0.5 17v23.5v27v307q0 83 40.5 135t113.5 66v8q-103 18 -140 119q-16 47 -16 160v199q0 92 -5.5 150t-19.5 102.5t-41 66.5t-66 32.5t-99 10.5v68l28 -2q37 0 86 -2q83 -2 126.5 -15t74.5 -47 q68 -71 68 -246q0 -93 -7 -401q-1 -87 37.5 -124t132.5 -40v-68q-92 -6 -130 -39t-38 -108q0 -62 5 -254q0 -26 1 -62.5t1 -43.5q0 -198 -91 -267q-52 -41 -184 -41h-76l-34 -2v68z" />
<glyph unicode="~" horiz-adv-x="1366" d="M231 1247q155 230 297 230q61 0 195 -47q105 -37 160 -37q123 0 196 100l54 -39q-56 -99 -135 -163t-146 -64q-31 0 -58 7t-159 50q-112 33 -170 33q-106 0 -180 -107z" />
<glyph unicode="&#xa1;" horiz-adv-x="524" d="M143 -219q0 24 17 145q45 312 55.5 421.5t15.5 299.5l2 72h60q0 -260 2 -299q4 -147 49 -494q12 -102 12 -133q0 -57 -30.5 -94t-77.5 -37q-46 0 -75.5 33.5t-29.5 85.5zM147 948q0 46 36 81.5t83 35.5t82 -35t35 -82q0 -49 -34.5 -84t-82.5 -35q-50 0 -84.5 34t-34.5 85 z" />
<glyph unicode="&#xa2;" d="M199 707q0 161 85.5 286.5t217.5 159.5v233h69v-229q114 -2 185 -39.5t71 -97.5q0 -35 -28 -61.5t-66 -26.5q-42 0 -75 28t-40 70q-8 39 -14.5 50t-23.5 10h-9v-672q12 -2 29 -2q109 0 213 131l33 -49q-25 -72 -101 -123.5t-174 -63.5v-311h-69v311q-140 26 -221.5 132.5 t-81.5 263.5zM342 791q0 -118 41.5 -206.5t118.5 -135.5v632q-160 -78 -160 -290z" />
<glyph unicode="&#xa3;" d="M0 170q0 83 55.5 140t137.5 57q101 0 235 -93q10 56 10 91t-6 63.5t-41 163.5q0 1 -2.5 12t-7.5 30.5t-8 35.5h-199v100h184q-4 78 -4 90q0 151 50.5 280.5t137.5 205t189 75.5q83 0 139 -48t56 -120q0 -54 -29.5 -88.5t-73.5 -34.5q-43 0 -70 31.5t-28 83.5 q-2 54 -10.5 71t-36.5 17q-57 0 -98 -80t-41 -192q0 -54 26 -223q4 -16 10 -68h240v-100h-240v-54q0 -94 -15.5 -173t-57.5 -201q141 -78 237 -78q143 0 158 213h53q-6 -219 -59.5 -317.5t-167.5 -98.5q-69 0 -132 37.5t-142 126.5q-60 -76 -115 -115t-137 -39 q-85 0 -141 57t-56 142zM88 166q0 -48 34 -81.5t83 -33.5q52 0 95.5 30.5t94.5 102.5q-59 53 -101.5 74t-94.5 21q-46 0 -78.5 -33t-32.5 -80z" />
<glyph unicode="&#xa4;" horiz-adv-x="1366" d="M131 1204l64 64l188 -187q75 59 145.5 85t153.5 26t153 -26t144 -85l188 187l64 -64l-187 -186q107 -139 107 -295q0 -153 -109 -291l191 -190l-64 -64l-190 191q-131 -111 -295 -111q-152 0 -297 107l-186 -187l-64 64l187 186q-111 137 -111 297q0 156 106 291z M324 723q0 -149 105 -256t253 -107q149 0 253.5 106t104.5 257t-104 259t-250 108q-152 0 -257 -106.5t-105 -260.5z" />
<glyph unicode="&#xa5;" d="M0 1298v68h410v-68l-125 -14l276 -641l189 481q22 55 22 72q0 86 -143 102v68h409v-68q-80 -21 -119 -55t-77 -125l-117 -272h227v-76h-260l-74 -170h334v-76h-354v-442l123 -14v-68h-410v68l123 14v442h-356v76h334l-78 170h-256v76h221l-201 438z" />
<glyph unicode="&#xa6;" d="M426 313h170v-655h-170v655zM426 655v711h170v-711h-170z" />
<glyph unicode="&#xa7;" d="M86 -27q0 56 28.5 89.5t75.5 33.5t78 -34.5t31 -88.5q0 -36 -23 -92q-8 -19 -8 -35q0 -40 74.5 -77t155.5 -37q132 0 217.5 74t85.5 188q0 72 -24 110.5t-85 61.5q-15 6 -23.5 9t-22.5 8t-22 7t-32 8.5t-41.5 11t-61.5 15.5t-81 21q-152 38 -223.5 110.5t-71.5 186.5 q0 82 36 148t132 161q-88 44 -125 101.5t-37 148.5q0 156 115 258t290 102q100 0 191 -38t145.5 -100.5t54.5 -131.5q0 -50 -31 -83.5t-77 -33.5q-47 0 -80 40.5t-33 98.5q0 22 15 76q6 15 6 27q0 32 -56 57t-129 25q-109 0 -179 -60.5t-70 -152.5q0 -114 106 -164 q10 -5 15.5 -7.5t14.5 -6.5t14 -6t18.5 -7.5t22.5 -8.5t31 -11t39.5 -14.5t53 -19t66.5 -23.5q83 -31 126 -56t72 -61q64 -83 64 -191q0 -66 -23.5 -131.5t-83.5 -161.5q66 -50 93.5 -104t27.5 -137q0 -76 -28.5 -149t-80.5 -130q-110 -125 -325 -125q-173 0 -295.5 88 t-122.5 213zM270 645q0 -110 80 -162q58 -37 244 -84q74 -19 98.5 -27t67.5 -26q22 43 29.5 71t7.5 66q0 137 -92 195q-48 30 -197 82q-13 5 -38.5 14t-32 11t-23 8.5t-21.5 8.5t-17 7.5t-20.5 10t-21.5 11.5q-64 -88 -64 -186z" />
<glyph unicode="&#xa8;" d="M252 1237q0 43 30.5 73.5t71.5 30.5q44 0 74.5 -30t30.5 -74q0 -41 -31 -71.5t-74 -30.5q-42 0 -72 30t-30 72zM567 1237q0 43 30.5 73.5t72.5 30.5q43 0 73.5 -30.5t30.5 -73.5q0 -41 -31.5 -71.5t-72.5 -30.5t-72 30.5t-31 71.5z" />
<glyph unicode="&#xa9;" horiz-adv-x="1583" d="M82 682q0 146 56.5 277.5t152.5 226.5t229 151t281 56q188 0 349.5 -96t256 -260t94.5 -355q0 -143 -56.5 -274.5t-151.5 -226.5t-226 -151.5t-274 -56.5q-192 0 -356 95.5t-259.5 259t-95.5 354.5zM150 682q0 -175 86.5 -323.5t234.5 -235t322 -86.5t321.5 86.5 t233.5 235t86 323.5q0 130 -51 250t-136.5 207t-203 138.5t-244.5 51.5q-134 0 -254 -50.5t-206.5 -137t-137.5 -206.5t-51 -253zM420 659q0 183 105 313t253 130q22 0 87 -11.5t89 -11.5q17 0 70 19q8 4 10 4l10 4l66 -266l-59 -17q-64 116 -125.5 166.5t-137.5 50.5 q-101 0 -158 -85.5t-57 -239.5q0 -175 71 -279t190 -104q78 0 134 45t97 141l57 -20q-40 -117 -128 -182.5t-206 -65.5q-160 0 -264 115.5t-104 293.5z" />
<glyph unicode="&#xaa;" horiz-adv-x="681" d="M68 608v68h573v-68h-573zM98 948q0 82 81 147.5t233 106.5q0 69 -29 103q-14 18 -42 33.5t-46 15.5q-9 0 -14.5 -6.5t-32.5 -47.5q-17 -24 -53 -24q-28 0 -46 16.5t-18 42.5q0 34 29 54t78 20q65 0 126.5 -21t102.5 -57q29 -25 40 -53.5t11 -79.5v-233q0 -80 25 -80 q15 0 37 28l36 -30q-60 -84 -116 -84q-28 0 -50.5 28t-27.5 66q-63 -94 -170 -94q-65 0 -109.5 43t-44.5 106zM209 985q0 -41 25.5 -70.5t62.5 -29.5q57 0 115 61v205q-76 -24 -100.5 -34t-45.5 -27q-57 -42 -57 -105z" />
<glyph unicode="&#xab;" horiz-adv-x="659" d="M61 479l187 322h61l-114 -322l114 -319h-61zM309 479l183 322h65l-111 -322l111 -319h-65z" />
<glyph unicode="&#xac;" d="M82 436v111h860v-547h-184v436h-676z" />
<glyph unicode="&#xad;" horiz-adv-x="387" d="M0 397v150h387v-150h-387z" />
<glyph unicode="&#xae;" horiz-adv-x="1583" d="M82 682q0 146 56.5 277.5t152.5 226.5t229 151t281 56q188 0 349.5 -96t256 -260t94.5 -355q0 -143 -56.5 -274.5t-151.5 -226.5t-226 -151.5t-274 -56.5q-192 0 -356 95.5t-259.5 259t-95.5 354.5zM150 682q0 -175 86.5 -323.5t234.5 -235t322 -86.5t321.5 86.5 t233.5 235t86 323.5q0 130 -51 250t-136.5 207t-203 138.5t-244.5 51.5q-134 0 -254 -50.5t-206.5 -137t-137.5 -206.5t-51 -253zM436 272v54l78 8v696l-78 8v54h307q106 0 165 -11.5t106 -42.5q94 -63 94 -161q0 -76 -53.5 -131.5t-139.5 -69.5l193 -342l66 -8v-54h-189 l-199 387q-23 -4 -63 -4q-50 0 -70 2v-323l78 -8v-54h-295zM653 717q31 -4 72 -4q114 0 173.5 40.5t59.5 118.5q0 164 -221 164q-43 0 -84 -4v-315z" />
<glyph unicode="&#xaf;" d="M238 1133v116h548v-116h-548z" />
<glyph unicode="&#xb0;" horiz-adv-x="710" d="M82 1096q0 113 80.5 191.5t197.5 78.5q109 0 189 -81t80 -191q0 -114 -80 -194.5t-193 -80.5q-114 0 -194 81t-80 196zM168 1094q0 -78 54.5 -133.5t131.5 -55.5q78 0 133.5 55.5t55.5 133.5q0 75 -55 130.5t-130 55.5q-80 0 -135 -54t-55 -132z" />
<glyph unicode="&#xb1;" d="M109 102v99h809v-99h-809zM109 647v98h350v359h102v-359h357v-98h-357v-356h-102v356h-350z" />
<glyph unicode="&#xb2;" horiz-adv-x="659" d="M59 547v63q113 168 193 248q106 106 135 143q53 62 53 156q0 69 -41.5 113.5t-105.5 44.5q-37 0 -70 -18t-33 -40q0 -4 27 -47q12 -18 12 -47q0 -34 -21 -56t-52 -22q-35 0 -58.5 27t-23.5 68q0 83 73.5 142.5t176.5 59.5q107 0 180.5 -63t73.5 -154q0 -73 -42 -137.5 t-141 -144.5q-105 -85 -142 -121t-81 -96h193q66 0 94.5 18.5t54.5 81.5l10 25l56 -13l-58 -248q-40 11 -57 14t-55 3h-351z" />
<glyph unicode="&#xb3;" horiz-adv-x="659" d="M47 684q0 31 21 51.5t53 20.5q35 0 60.5 -28t25.5 -66q0 -8 -2 -22.5t-2 -21.5q0 -10 29.5 -19t64.5 -9q68 0 108.5 50t40.5 134q0 80 -44.5 131t-114.5 51q-14 0 -45 -6q-2 -2 -9 -2q-15 0 -26.5 11t-11.5 26q0 12 10.5 22.5t23.5 10.5q7 0 30.5 -5t29.5 -5q55 0 95 46 t40 111q0 64 -38 107t-95 43q-30 0 -55 -8t-25 -17q0 -8 3 -25.5t3 -25.5q0 -32 -22.5 -55t-53.5 -23t-52 21.5t-21 52.5q0 60 66.5 103.5t158.5 43.5q113 0 188.5 -58t75.5 -146q0 -64 -41 -116t-110 -75q-5 0 -7 -2q99 -37 144 -89t45 -130q0 -103 -82.5 -169.5 t-210.5 -66.5q-107 0 -177.5 44t-70.5 110z" />
<glyph unicode="&#xb4;" d="M432 1090l168 251q29 43 50 59.5t46 16.5q33 0 58.5 -25.5t25.5 -58.5q0 -56 -84 -110l-241 -158z" />
<glyph unicode="&#xb5;" d="M90 -244q0 3 1 24t1 34q12 299 12 811v313h166l-4 -586q0 -81 11 -125t38 -67q53 -47 138 -47q72 0 127 30t114 101l4 694h164l-2 -680q0 -83 16.5 -115t57.5 -32q21 0 70 18v-53l-207 -94q-2 -1 -5.5 -2t-5.5 -2t-4 -1q-28 0 -57 41q-29 50 -29 136q0 10 2 18 q-149 -201 -317 -201q-72 0 -126 40.5t-73 107.5q1 -107 13 -159t59 -161q18 -45 18 -80q0 -43 -25 -69.5t-63 -26.5q-94 0 -94 133z" />
<glyph unicode="&#xb6;" d="M61 1012q0 104 35.5 185.5t98.5 119.5q49 30 111.5 39.5t209.5 9.5h438v-70l-123 -14v-1391l132 -14v-67h-621v67l156 14v760q-29 -4 -62 -4q-177 0 -276 96.5t-99 268.5zM256 924q0 -92 55.5 -148.5t145.5 -52.5l41 2v557q-37 6 -58 6q-91 0 -137.5 -51.5t-46.5 -151.5 v-161zM588 -109q32 -14 76 -14q45 0 79 14v1391q-34 14 -79 14q-44 0 -76 -14v-1391z" />
<glyph unicode="&#xb7;" horiz-adv-x="438" d="M102 485q0 49 34.5 84t82.5 35q50 0 84.5 -34t34.5 -85q0 -46 -36 -81t-83 -35t-82 34.5t-35 81.5z" />
<glyph unicode="&#xb8;" d="M375 -287q0 17 13 30t30 13q20 0 27.5 -7.5t33.5 -57.5q14 -31 56 -31q34 0 58.5 25t24.5 59q0 35 -30.5 58.5t-77.5 23.5q-23 0 -70 -8l68 182h63l-39 -125q103 -3 151 -34.5t48 -96.5q0 -63 -46 -99t-126 -36q-75 0 -129.5 30.5t-54.5 73.5z" />
<glyph unicode="&#xb9;" horiz-adv-x="659" d="M141 1272v53l295 72q-4 -78 -4 -142v-641l129 -8v-59h-405v59l153 8v594q0 44 -8 54t-45 10h-115z" />
<glyph unicode="&#xba;" horiz-adv-x="681" d="M55 608v68h574v-68h-574zM76 1094q0 124 80 213.5t190 89.5t186 -87t76 -214q0 -120 -80.5 -208.5t-187.5 -88.5t-185.5 87.5t-78.5 207.5zM201 1098q0 -244 141 -244q69 0 105 65t36 189q0 111 -36.5 174.5t-102.5 63.5t-104.5 -67t-38.5 -181z" />
<glyph unicode="&#xbb;" horiz-adv-x="659" d="M102 160l111 321l-111 320h66l182 -320l-182 -321h-66zM350 160l113 321l-113 320h60l188 -320l-188 -321h-60z" />
<glyph unicode="&#xbc;" horiz-adv-x="1605" d="M141 1272v53l295 72q-4 -78 -4 -142v-641l129 -8v-59h-405v59l153 8v594q0 44 -8 54t-45 10h-115zM358 -35l801 1415h88l-805 -1415h-84zM983 188v72q233 287 281 580h161q-46 -112 -149 -277t-211 -297h244v283q42 48 92 141l31 51v-475h118v-78h-118v-122l77 -9v-57 h-290v57l90 9v122h-326z" />
<glyph unicode="&#xbd;" horiz-adv-x="1605" d="M141 1272v53l295 72q-4 -78 -4 -142v-641l129 -8v-59h-405v59l153 8v594q0 44 -8 54t-45 10h-115zM358 -35l801 1415h88l-805 -1415h-84zM1006 0v63q102 155 192 248q114 118 135 144q53 62 53 155q0 69 -41.5 113.5t-105.5 44.5q-37 0 -69.5 -18t-32.5 -39q0 -6 26 -47 q13 -20 13 -48q0 -33 -21.5 -55t-52.5 -22q-35 0 -58.5 26.5t-23.5 67.5q0 83 73.5 143t176.5 60q107 0 180.5 -63.5t73.5 -154.5q0 -73 -42 -137.5t-141 -144.5q-105 -85 -142 -121t-81 -96h193q66 0 94.5 18.5t54.5 81.5l10 25l56 -13l-58 -247q-56 16 -112 16h-350z" />
<glyph unicode="&#xbe;" horiz-adv-x="1605" d="M47 684q0 31 21 51.5t53 20.5q35 0 60.5 -28t25.5 -66q0 -8 -2 -22.5t-2 -21.5q0 -10 29.5 -19t64.5 -9q68 0 108.5 50t40.5 134q0 80 -44.5 131t-114.5 51q-14 0 -45 -6q-2 -2 -9 -2q-15 0 -26.5 11t-11.5 26q0 12 10.5 22.5t23.5 10.5q7 0 30.5 -5t29.5 -5q55 0 95 46 t40 111q0 64 -38 107t-95 43q-30 0 -55 -8t-25 -17q0 -8 3 -25.5t3 -25.5q0 -32 -22.5 -55t-53.5 -23t-52 21.5t-21 52.5q0 60 66.5 103.5t158.5 43.5q113 0 188.5 -58t75.5 -146q0 -64 -41 -116t-110 -75q-5 0 -7 -2q99 -37 144 -89t45 -130q0 -103 -82.5 -169.5 t-210.5 -66.5q-107 0 -177.5 44t-70.5 110zM358 -35l803 1415h86l-805 -1415h-84zM983 188v72q233 287 281 580h161q-46 -112 -149 -277t-211 -297h244v283q42 48 92 141l31 51v-475h120v-78h-120v-122l77 -9v-57h-290v57l90 9v122h-326z" />
<glyph unicode="&#xbf;" horiz-adv-x="770" d="M115 59q0 117 63.5 216.5t167.5 146.5q54 24 103 41v260h69v-426q-136 -37 -208 -117t-72 -196q0 -142 110 -215q28 -19 45 -19q12 0 19 7.5t26 41.5q21 37 57 61.5t72 24.5q41 0 72 -30.5t31 -71.5q0 -54 -46 -87.5t-118 -33.5q-158 0 -274.5 118.5t-116.5 278.5z M367 948q0 47 35.5 82t82.5 35q50 0 84.5 -35t34.5 -86q0 -49 -33.5 -83t-81.5 -34q-52 0 -87 35t-35 86z" />
<glyph unicode="&#xc0;" horiz-adv-x="1208" d="M14 0v68q56 5 86 22t52.5 57t48.5 125l309 983l-57 125h231l420 -1298l104 -14v-68h-436v68l131 14l-112 348h-455l-45 -131q-12 -33 -21.5 -76t-9.5 -61q0 -51 39 -71t113 -23v-68h-398zM223 1692q0 35 25.5 61.5t58.5 26.5q45 0 103 -47l245 -199l-18 -33l-291 86 q-66 20 -94.5 45t-28.5 60zM358 508h414l-215 647z" />
<glyph unicode="&#xc1;" horiz-adv-x="1208" d="M14 0v68q56 5 86 22t52.5 57t48.5 125l309 983l-57 125h231l420 -1298l104 -14v-68h-436v68l131 14l-112 348h-455l-45 -131q-12 -33 -21.5 -76t-9.5 -61q0 -51 39 -71t113 -23v-68h-398zM358 508h414l-215 647zM528 1534l246 199q35 29 56.5 39t46.5 10q34 0 59 -26.5 t25 -61.5q0 -37 -28.5 -61t-94.5 -44l-291 -88z" />
<glyph unicode="&#xc2;" horiz-adv-x="1208" d="M14 0v68q56 5 86 22t52.5 57t48.5 125l309 983l-57 125h231l420 -1298l104 -14v-68h-436v68l131 14l-112 348h-455l-45 -131q-12 -33 -21.5 -76t-9.5 -61q0 -51 39 -71t113 -23v-68h-398zM279 1534l307 225l293 -225l-21 -33l-274 92l-285 -92zM358 508h414l-215 647z " />
<glyph unicode="&#xc3;" horiz-adv-x="1208" d="M14 0v68q56 5 86 22t52.5 57t48.5 125l309 983l-57 125h231l420 -1298l104 -14v-68h-436v68l131 14l-112 348h-455l-45 -131q-12 -33 -21.5 -76t-9.5 -61q0 -51 39 -71t113 -23v-68h-398zM274 1556q47 88 84.5 119t94.5 31q60 0 153 -27q111 -30 146 -30q39 0 92 45 l35 -21q-44 -81 -82 -112t-92 -31q-61 0 -191 37q-72 20 -111 20q-42 0 -86 -49zM358 508h414l-215 647z" />
<glyph unicode="&#xc4;" horiz-adv-x="1208" d="M14 0v68q56 5 86 22t52.5 57t48.5 125l309 983l-57 125h231l420 -1298l104 -14v-68h-436v68l131 14l-112 348h-455l-45 -131q-12 -33 -21.5 -76t-9.5 -61q0 -51 39 -71t113 -23v-68h-398zM287 1636q0 44 31 75.5t75 31.5t75.5 -31.5t31.5 -77.5q0 -42 -32 -73t-75 -31 q-44 0 -75 31t-31 75zM358 508h414l-215 647zM657 1636q0 43 31 75t74 32q44 0 76 -32.5t32 -76.5q0 -41 -32.5 -72.5t-75.5 -31.5t-74 31t-31 75z" />
<glyph unicode="&#xc5;" horiz-adv-x="1208" d="M14 0v68q56 5 86 22t52.5 57t48.5 125l309 983l-57 125h231l420 -1298l104 -14v-68h-436v68l131 14l-112 348h-455l-45 -131q-12 -33 -21.5 -76t-9.5 -61q0 -51 39 -71t113 -23v-68h-398zM358 508h414l-215 647zM403 1657q0 72 52.5 123t126.5 51q70 0 121 -51.5 t51 -122.5q0 -72 -51 -124t-123 -52q-74 0 -125.5 51.5t-51.5 124.5zM485 1657q0 -38 26.5 -65t63.5 -27q38 0 65.5 27t27.5 65q0 37 -26.5 63.5t-63.5 26.5q-38 0 -65.5 -26.5t-27.5 -63.5z" />
<glyph unicode="&#xc6;" horiz-adv-x="1847" d="M0 0v68q62 15 107.5 55t91.5 119l602 1050l-45 74h637q98 0 127.5 3t107.5 20q9 0 19 2l92 -398l-70 -20q-48 102 -91.5 162t-96.5 96q-57 38 -126 49.5t-241 11.5h-94v-528h113q97 0 140 43.5t66 165.5h70v-506h-70q-11 80 -21.5 113.5t-33.5 58.5q-26 26 -60.5 36.5 t-97.5 10.5h-106v-610h205q175 0 288.5 82.5t196.5 269.5l68 -22l-109 -437q-100 23 -136 27t-153 4h-673v68l122 14v346h-434l-112 -207q-21 -44 -21 -63q0 -36 31 -57t102 -33v-68h-395zM446 510h383v686z" />
<glyph unicode="&#xc7;" horiz-adv-x="1216" d="M92 651q0 150 44 288t118.5 237.5t177.5 159t215 59.5q59 0 180 -25q57 -14 99 -14q26 0 50 7.5t81 33.5l98 -428l-68 -21q-109 199 -206 282t-222 83q-164 0 -259 -150t-95 -411q0 -169 42 -311.5t118 -233.5q45 -55 116.5 -87t147.5 -32q132 0 221.5 73.5t161.5 239.5 l64 -24q-57 -181 -178.5 -288t-290.5 -126l-23 -88q103 -5 151 -37t48 -96q0 -63 -47 -100t-129 -37q-77 0 -132 31t-55 75q0 19 13.5 32t33.5 13t28 -8t34 -57q17 -31 55 -31q32 0 57 24t25 56q0 35 -30 57.5t-77 22.5q-23 0 -75 -8l65 151q-194 11 -321 121 q-114 97 -175 243.5t-61 323.5z" />
<glyph unicode="&#xc8;" horiz-adv-x="1232" d="M92 0v68l123 14v1202l-123 12v70h666q107 0 157.5 5t112.5 22l94 -396l-65 -22l-15 24l-28 58q-45 85 -121 151q-54 45 -118.5 63.5t-166.5 18.5q-92 0 -202 -10v-516h100q73 0 111 16.5t63 57.5q36 66 47 137h66v-508h-66q-19 131 -64 176t-161 45h-96v-608 q105 -6 165 -6q118 0 177 10t110 39q123 72 201 229l37 74l69 -18l-108 -437q-98 20 -131 24.5t-95 4.5h-739zM262 1692q0 35 25.5 61.5t58.5 26.5q45 0 103 -47l245 -199l-18 -33l-291 86q-66 20 -94.5 45t-28.5 60z" />
<glyph unicode="&#xc9;" horiz-adv-x="1232" d="M92 0v68l123 14v1202l-123 12v70h666q107 0 157.5 5t112.5 22l94 -396l-65 -22l-15 24l-28 58q-45 85 -121 151q-54 45 -118.5 63.5t-166.5 18.5q-92 0 -202 -10v-516h100q73 0 111 16.5t63 57.5q36 66 47 137h66v-508h-66q-19 131 -64 176t-161 45h-96v-608 q105 -6 165 -6q118 0 177 10t110 39q123 72 201 229l37 74l69 -18l-108 -437q-98 20 -131 24.5t-95 4.5h-739zM403 1534l246 199q35 29 56.5 39t46.5 10q34 0 59 -26.5t25 -61.5q0 -37 -28.5 -61t-94.5 -44l-291 -88z" />
<glyph unicode="&#xca;" horiz-adv-x="1232" d="M92 0v68l123 14v1202l-123 12v70h666q107 0 157.5 5t112.5 22l94 -396l-65 -22l-15 24l-28 58q-45 85 -121 151q-54 45 -118.5 63.5t-166.5 18.5q-92 0 -202 -10v-516h100q73 0 111 16.5t63 57.5q36 66 47 137h66v-508h-66q-19 131 -64 176t-161 45h-96v-608 q105 -6 165 -6q118 0 177 10t110 39q123 72 201 229l37 74l69 -18l-108 -437q-98 20 -131 24.5t-95 4.5h-739zM317 1534l308 225l293 -225l-21 -33l-274 92l-285 -92z" />
<glyph unicode="&#xcb;" horiz-adv-x="1232" d="M92 0v68l123 14v1202l-123 12v70h666q107 0 157.5 5t112.5 22l94 -396l-65 -22l-15 24l-28 58q-45 85 -121 151q-54 45 -118.5 63.5t-166.5 18.5q-92 0 -202 -10v-516h100q73 0 111 16.5t63 57.5q36 66 47 137h66v-508h-66q-19 131 -64 176t-161 45h-96v-608 q105 -6 165 -6q118 0 177 10t110 39q123 72 201 229l37 74l69 -18l-108 -437q-98 20 -131 24.5t-95 4.5h-739zM328 1636q0 44 31 75.5t75 31.5t75.5 -31.5t31.5 -77.5q0 -42 -32 -73t-75 -31q-44 0 -75 31t-31 75zM698 1636q0 43 31 75t74 32q44 0 76 -32.5t32 -76.5 q0 -41 -32.5 -72.5t-75.5 -31.5t-74 31t-31 75z" />
<glyph unicode="&#xcc;" horiz-adv-x="647" d="M-4 1692q0 35 25.5 61.5t58.5 26.5q44 0 102 -47l246 -199l-18 -33l-291 86q-66 20 -94.5 45t-28.5 60zM90 0v68l137 14v1202l-137 14v68h465v-68l-137 -14v-1202l137 -14v-68h-465z" />
<glyph unicode="&#xcd;" horiz-adv-x="647" d="M92 0v68l137 14v1202l-137 14v68h465v-68l-137 -14v-1202l137 -14v-68h-465zM221 1534l246 199q35 29 56 39t46 10q34 0 59 -26.5t25 -61.5q0 -37 -28.5 -61t-94.5 -44l-290 -88z" />
<glyph unicode="&#xce;" horiz-adv-x="647" d="M23 1534l307 225l293 -225l-21 -33l-274 92l-285 -92zM90 0v68l137 14v1202l-137 14v68h465v-68l-137 -14v-1202l137 -14v-68h-465z" />
<glyph unicode="&#xcf;" horiz-adv-x="647" d="M88 1636q0 44 31.5 75.5t75.5 31.5t75 -31.5t31 -77.5q0 -43 -31.5 -73.5t-74.5 -30.5q-44 0 -75.5 31t-31.5 75zM90 0v68l137 14v1202l-137 14v68h465v-68l-137 -14v-1202l137 -14v-68h-465zM350 1640q0 43 31 74t74 31t74.5 -31.5t31.5 -75.5q0 -41 -32.5 -72.5 t-73.5 -31.5q-43 0 -74 31t-31 75z" />
<glyph unicode="&#xd0;" horiz-adv-x="1333" d="M78 709v79h135v496l-123 14v68h457q133 0 211 -15.5t155 -56.5q153 -83 241.5 -246t88.5 -362q0 -215 -104 -393t-273 -250q-66 -29 -120.5 -36t-196.5 -7h-459v68l123 14v627h-135zM403 74q114 -6 162 -6q93 0 145.5 9t96.5 34q111 63 172 215t61 368q0 391 -180 527 q-103 77 -301 77q-55 0 -156 -8v-502h283v-79h-283v-635z" />
<glyph unicode="&#xd1;" horiz-adv-x="1310" d="M57 0v68q101 15 136.5 59t35.5 156v811q0 84 -8 113.5t-37 52.5q-37 29 -127 38v68h312l659 -1016v729q0 68 -6 97t-25 57q-22 29 -48 42t-87 23v68h383v-68q-82 -25 -108.5 -66.5t-26.5 -144.5v-1087h-82l-717 1108v-825q0 -112 35.5 -155t142.5 -60v-68h-432zM352 1556 q47 88 84 119t94 31q61 0 154 -27q111 -30 145 -30q40 0 93 45l34 -21q-44 -81 -82 -112t-92 -31q-60 0 -190 37q-72 20 -111 20q-42 0 -86 -49z" />
<glyph unicode="&#xd2;" horiz-adv-x="1347" d="M92 676q0 190 81 355.5t217.5 263.5t293.5 98q122 0 233 -64t197 -184q141 -197 141 -463q0 -186 -81.5 -350t-218 -261.5t-291.5 -97.5q-111 0 -216.5 58t-183.5 153.5t-125 225t-47 266.5zM305 662q0 -294 94.5 -456.5t264.5 -162.5q180 0 279 169t99 472 q0 304 -92.5 465.5t-267.5 161.5q-68 0 -129.5 -28t-101.5 -77q-146 -176 -146 -544zM319 1692q0 35 25.5 61.5t58.5 26.5q45 0 103 -47l246 -199l-19 -33l-291 86q-66 20 -94.5 45t-28.5 60z" />
<glyph unicode="&#xd3;" horiz-adv-x="1347" d="M92 676q0 190 81 355.5t217.5 263.5t293.5 98q122 0 233 -64t197 -184q141 -197 141 -463q0 -186 -81.5 -350t-218 -261.5t-291.5 -97.5q-111 0 -216.5 58t-183.5 153.5t-125 225t-47 266.5zM305 662q0 -294 94.5 -456.5t264.5 -162.5q180 0 279 169t99 472 q0 304 -92.5 465.5t-267.5 161.5q-68 0 -129.5 -28t-101.5 -77q-146 -176 -146 -544zM598 1534l246 199q35 29 56 39t46 10q34 0 59 -26.5t25 -61.5q0 -37 -28.5 -61t-94.5 -44l-291 -88z" />
<glyph unicode="&#xd4;" horiz-adv-x="1347" d="M92 676q0 190 81 355.5t217.5 263.5t293.5 98q122 0 233 -64t197 -184q141 -197 141 -463q0 -186 -81.5 -350t-218 -261.5t-291.5 -97.5q-111 0 -216.5 58t-183.5 153.5t-125 225t-47 266.5zM305 662q0 -294 94.5 -456.5t264.5 -162.5q180 0 279 169t99 472 q0 304 -92.5 465.5t-267.5 161.5q-68 0 -129.5 -28t-101.5 -77q-146 -176 -146 -544zM375 1534l307 225l293 -225l-21 -33l-274 92l-285 -92z" />
<glyph unicode="&#xd5;" horiz-adv-x="1347" d="M92 676q0 190 81 355.5t217.5 263.5t293.5 98q122 0 233 -64t197 -184q141 -197 141 -463q0 -186 -81.5 -350t-218 -261.5t-291.5 -97.5q-111 0 -216.5 58t-183.5 153.5t-125 225t-47 266.5zM305 662q0 -294 94.5 -456.5t264.5 -162.5q180 0 279 169t99 472 q0 304 -92.5 465.5t-267.5 161.5q-68 0 -129.5 -28t-101.5 -77q-146 -176 -146 -544zM403 1556q47 88 84.5 119t94.5 31q60 0 153 -27q111 -30 146 -30q39 0 92 45l35 -21q-44 -81 -82 -112t-92 -31q-61 0 -191 37q-72 20 -111 20q-42 0 -86 -49z" />
<glyph unicode="&#xd6;" horiz-adv-x="1347" d="M92 676q0 190 81 355.5t217.5 263.5t293.5 98q122 0 233 -64t197 -184q141 -197 141 -463q0 -186 -81.5 -350t-218 -261.5t-291.5 -97.5q-111 0 -216.5 58t-183.5 153.5t-125 225t-47 266.5zM305 662q0 -294 94.5 -456.5t264.5 -162.5q180 0 279 169t99 472 q0 304 -92.5 465.5t-267.5 161.5q-68 0 -129.5 -28t-101.5 -77q-146 -176 -146 -544zM399 1636q0 44 31.5 75.5t75.5 31.5t75 -31.5t31 -77.5q0 -43 -31.5 -73.5t-74.5 -30.5q-44 0 -75.5 31t-31.5 75zM770 1636q0 43 31 75t73 32q44 0 76.5 -32.5t32.5 -76.5 q0 -41 -33 -72.5t-76 -31.5t-73.5 31t-30.5 75z" />
<glyph unicode="&#xd7;" d="M158 412l282 280l-278 281l71 74l279 -281l283 281l69 -70l-280 -281l280 -280l-71 -74l-281 281l-283 -281z" />
<glyph unicode="&#xd8;" horiz-adv-x="1347" d="M92 674q0 99 27 201.5t79.5 195t122.5 165t164.5 115t198.5 42.5q151 0 295 -99l98 181h84l-129 -228q223 -235 223 -553q0 -142 -48 -275.5t-127 -231t-187.5 -156t-224.5 -58.5q-153 0 -293 90l-101 -176h-75l123 224q-230 236 -230 563zM305 664q0 -246 80 -437 l539 971q-91 113 -238 113q-180 0 -280.5 -170.5t-100.5 -476.5zM430 160q82 -117 234 -117q181 0 279.5 169.5t98.5 481.5q0 138 -17 235.5t-58 198.5z" />
<glyph unicode="&#xd9;" horiz-adv-x="1292" d="M84 1298v68h436v-68l-123 -14v-846q0 -88 9.5 -141t33.5 -98q34 -64 102 -100t156 -36q93 0 168.5 44.5t106.5 117.5q18 42 23 84t5 150v614q0 128 -32.5 169t-139.5 50v74h398v-68q-91 -23 -117.5 -65t-26.5 -162v-567q0 -151 -6.5 -204.5t-32.5 -109.5 q-47 -106 -150.5 -162.5t-248.5 -56.5q-131 0 -232.5 50t-150.5 139q-35 62 -45 121t-10 211v792zM291 1692q0 35 25.5 61.5t58.5 26.5q44 0 102 -47l246 -199l-18 -33l-291 86q-66 20 -94.5 45t-28.5 60z" />
<glyph unicode="&#xda;" horiz-adv-x="1292" d="M84 1298v68h436v-68l-123 -14v-846q0 -88 9.5 -141t33.5 -98q34 -64 102 -100t156 -36q93 0 168.5 44.5t106.5 117.5q18 42 23 84t5 150v614q0 128 -32.5 169t-139.5 50v74h398v-68q-91 -23 -117.5 -65t-26.5 -162v-567q0 -151 -6.5 -204.5t-32.5 -109.5 q-47 -106 -150.5 -162.5t-248.5 -56.5q-131 0 -232.5 50t-150.5 139q-35 62 -45 121t-10 211v792zM625 1534l245 199q35 29 56.5 39t46.5 10q34 0 59 -26.5t25 -61.5q0 -37 -28.5 -61t-94.5 -44l-291 -88z" />
<glyph unicode="&#xdb;" horiz-adv-x="1292" d="M84 1298v68h436v-68l-123 -14v-846q0 -88 9.5 -141t33.5 -98q34 -64 102 -100t156 -36q93 0 168.5 44.5t106.5 117.5q18 42 23 84t5 150v614q0 128 -32.5 169t-139.5 50v74h398v-68q-91 -23 -117.5 -65t-26.5 -162v-567q0 -151 -6.5 -204.5t-32.5 -109.5 q-47 -106 -150.5 -162.5t-248.5 -56.5q-131 0 -232.5 50t-150.5 139q-35 62 -45 121t-10 211v792zM399 1534l308 225l292 -225l-20 -33l-274 92l-285 -92z" />
<glyph unicode="&#xdc;" horiz-adv-x="1292" d="M84 1298v68h436v-68l-123 -14v-846q0 -88 9.5 -141t33.5 -98q34 -64 102 -100t156 -36q93 0 168.5 44.5t106.5 117.5q18 42 23 84t5 150v614q0 128 -32.5 169t-139.5 50v74h398v-68q-91 -23 -117.5 -65t-26.5 -162v-567q0 -151 -6.5 -204.5t-32.5 -109.5 q-47 -106 -150.5 -162.5t-248.5 -56.5q-131 0 -232.5 50t-150.5 139q-35 62 -45 121t-10 211v792zM410 1636q0 44 31 75.5t75 31.5t75.5 -31.5t31.5 -77.5q0 -42 -32 -73t-75 -31q-44 0 -75 31t-31 75zM780 1636q0 43 31 75t74 32q44 0 76 -32.5t32 -76.5q0 -41 -32.5 -72.5 t-75.5 -31.5t-74 31t-31 75z" />
<glyph unicode="&#xdd;" horiz-adv-x="1175" d="M14 1298v68h437v-68l-125 -14l317 -639l229 481q23 47 23 72q0 85 -141 100v68h409v-68q-79 -22 -115.5 -54t-82.5 -126l-285 -567v-469l123 -14v-68h-436v68l122 14v469l-376 733zM553 1534l246 199q35 29 56 39t46 10q34 0 59 -26.5t25 -61.5q0 -37 -28.5 -61 t-94.5 -44l-291 -88z" />
<glyph unicode="&#xde;" horiz-adv-x="1198" d="M92 0v68l123 14v1202l-123 14v68h451v-68l-137 -14v-192h139q143 0 211.5 -6.5t138.5 -28.5q114 -35 182 -124.5t68 -203.5q0 -178 -136.5 -275.5t-387.5 -97.5q-59 0 -215 9v-283l137 -14v-68h-451zM406 442q87 -10 169 -10q198 0 281 92q82 88 82 217q0 137 -86.5 210 t-249.5 73q-61 0 -196 -12v-570z" />
<glyph unicode="&#xdf;" horiz-adv-x="1138" d="M76 0v72l102 16v752h-102v82h102q0 101 5 154t22 110q35 126 144 206.5t243 80.5q154 0 266.5 -101t112.5 -239q0 -193 -248 -265q-91 -28 -117 -41.5t-26 -33.5q0 -25 31 -45t139 -64q164 -68 238.5 -154.5t74.5 -210.5q0 -154 -110 -254t-277 -100q-114 0 -195.5 58.5 t-81.5 140.5q0 38 26.5 66t63.5 28q41 0 75 -32t44 -83t15.5 -65t17.5 -25q34 -24 76 -24q88 0 149.5 61.5t61.5 149.5q0 80 -55.5 135.5t-204.5 124.5q-121 57 -171.5 108t-50.5 117q0 54 33 92q23 26 48 40t153 71q119 53 119 211q0 112 -63 183t-163 71q-57 0 -107.5 -26 t-78.5 -69q-53 -82 -53 -239v-1059h-258z" />
<glyph unicode="&#xe0;" horiz-adv-x="915" d="M68 209q0 100 69.5 184.5t198.5 143.5q128 59 246 92q0 80 -19 133q-20 53 -76.5 95t-105.5 42q-17 0 -27.5 -11t-56.5 -79q-10 -17 -32.5 -28t-45.5 -11q-41 0 -68.5 26t-27.5 64q0 54 44.5 84.5t121.5 30.5q104 0 202 -34.5t166 -94.5q44 -38 62 -86t18 -131v-393 q0 -58 1.5 -74t9.5 -37q5 -14 15.5 -23.5t22.5 -9.5q27 0 64 43l45 -39q-93 -131 -176 -131q-20 0 -43.5 13.5t-38.5 33.5q-22 30 -30.5 60t-8.5 80q-38 -86 -114.5 -136.5t-170.5 -50.5q-103 0 -174 71.5t-71 172.5zM188 1333q0 32 25 57t59 25q46 0 95 -74l170 -251 l-23 -25l-242 158q-84 54 -84 110zM231 270q0 -75 44.5 -127.5t107.5 -52.5q104 0 199 111v362q-120 -39 -166 -59.5t-86 -50.5q-99 -80 -99 -183z" />
<glyph unicode="&#xe1;" horiz-adv-x="915" d="M68 209q0 100 69.5 184.5t198.5 143.5q128 59 246 92q0 80 -19 133q-20 53 -76.5 95t-105.5 42q-17 0 -27.5 -11t-56.5 -79q-10 -17 -32.5 -28t-45.5 -11q-41 0 -68.5 26t-27.5 64q0 54 44.5 84.5t121.5 30.5q104 0 202 -34.5t166 -94.5q44 -38 62 -86t18 -131v-393 q0 -58 1.5 -74t9.5 -37q5 -14 15.5 -23.5t22.5 -9.5q27 0 64 43l45 -39q-93 -131 -176 -131q-20 0 -43.5 13.5t-38.5 33.5q-22 30 -30.5 60t-8.5 80q-38 -86 -114.5 -136.5t-170.5 -50.5q-103 0 -174 71.5t-71 172.5zM231 270q0 -75 44.5 -127.5t107.5 -52.5q104 0 199 111 v362q-120 -39 -166 -59.5t-86 -50.5q-99 -80 -99 -183zM377 1090l168 251q29 43 50 59.5t46 16.5q33 0 58.5 -25.5t25.5 -58.5q0 -56 -84 -110l-242 -158z" />
<glyph unicode="&#xe2;" horiz-adv-x="915" d="M68 209q0 100 69.5 184.5t198.5 143.5q128 59 246 92q0 80 -19 133q-20 53 -76.5 95t-105.5 42q-17 0 -27.5 -11t-56.5 -79q-10 -17 -32.5 -28t-45.5 -11q-41 0 -68.5 26t-27.5 64q0 54 44.5 84.5t121.5 30.5q104 0 202 -34.5t166 -94.5q44 -38 62 -86t18 -131v-393 q0 -58 1.5 -74t9.5 -37q5 -14 15.5 -23.5t22.5 -9.5q27 0 64 43l45 -39q-93 -131 -176 -131q-20 0 -43.5 13.5t-38.5 33.5q-22 30 -30.5 60t-8.5 80q-38 -86 -114.5 -136.5t-170.5 -50.5q-103 0 -174 71.5t-71 172.5zM174 1135l289 223l274 -223l-16 -29l-258 92l-270 -92z M231 270q0 -75 44.5 -127.5t107.5 -52.5q104 0 199 111v362q-120 -39 -166 -59.5t-86 -50.5q-99 -80 -99 -183z" />
<glyph unicode="&#xe3;" horiz-adv-x="915" d="M68 209q0 100 69.5 184.5t198.5 143.5q128 59 246 92q0 80 -19 133q-20 53 -76.5 95t-105.5 42q-17 0 -27.5 -11t-56.5 -79q-10 -17 -32.5 -28t-45.5 -11q-41 0 -68.5 26t-27.5 64q0 54 44.5 84.5t121.5 30.5q104 0 202 -34.5t166 -94.5q44 -38 62 -86t18 -131v-393 q0 -58 1.5 -74t9.5 -37q5 -14 15.5 -23.5t22.5 -9.5q27 0 64 43l45 -39q-93 -131 -176 -131q-20 0 -43.5 13.5t-38.5 33.5q-22 30 -30.5 60t-8.5 80q-38 -86 -114.5 -136.5t-170.5 -50.5q-103 0 -174 71.5t-71 172.5zM172 1159q43 86 77.5 117t88.5 31q56 0 145 -27 q100 -33 142 -33q38 0 86 45l30 -18q-40 -76 -76.5 -108.5t-82.5 -32.5q-57 0 -185 41q-59 20 -106 20q-39 0 -84 -51zM231 270q0 -75 44.5 -127.5t107.5 -52.5q104 0 199 111v362q-120 -39 -166 -59.5t-86 -50.5q-99 -80 -99 -183z" />
<glyph unicode="&#xe4;" horiz-adv-x="915" d="M68 209q0 100 69.5 184.5t198.5 143.5q128 59 246 92q0 80 -19 133q-20 53 -76.5 95t-105.5 42q-17 0 -27.5 -11t-56.5 -79q-10 -17 -32.5 -28t-45.5 -11q-41 0 -68.5 26t-27.5 64q0 54 44.5 84.5t121.5 30.5q104 0 202 -34.5t166 -94.5q44 -38 62 -86t18 -131v-393 q0 -58 1.5 -74t9.5 -37q5 -14 15.5 -23.5t22.5 -9.5q27 0 64 43l45 -39q-93 -131 -176 -131q-20 0 -43.5 13.5t-38.5 33.5q-22 30 -30.5 60t-8.5 80q-38 -86 -114.5 -136.5t-170.5 -50.5q-103 0 -174 71.5t-71 172.5zM197 1237q0 43 30.5 73.5t71.5 30.5q44 0 74 -30t30 -74 q0 -41 -30.5 -71.5t-73.5 -30.5q-42 0 -72 30t-30 72zM231 270q0 -75 44.5 -127.5t107.5 -52.5q104 0 199 111v362q-120 -39 -166 -59.5t-86 -50.5q-99 -80 -99 -183zM512 1237q0 43 30.5 73.5t71.5 30.5q43 0 74 -30.5t31 -73.5q0 -41 -31.5 -71.5t-73.5 -30.5 q-41 0 -71.5 30.5t-30.5 71.5z" />
<glyph unicode="&#xe5;" horiz-adv-x="915" d="M68 209q0 100 69.5 184.5t198.5 143.5q128 59 246 92q0 80 -19 133q-20 53 -76.5 95t-105.5 42q-17 0 -27.5 -11t-56.5 -79q-10 -17 -32.5 -28t-45.5 -11q-41 0 -68.5 26t-27.5 64q0 54 44.5 84.5t121.5 30.5q104 0 202 -34.5t166 -94.5q44 -38 62 -86t18 -131v-393 q0 -58 1.5 -74t9.5 -37q5 -14 15.5 -23.5t22.5 -9.5q27 0 64 43l45 -39q-93 -131 -176 -131q-20 0 -43.5 13.5t-38.5 33.5q-22 30 -30.5 60t-8.5 80q-38 -86 -114.5 -136.5t-170.5 -50.5q-103 0 -174 71.5t-71 172.5zM231 270q0 -75 44.5 -127.5t107.5 -52.5q104 0 199 111 v362q-120 -39 -166 -59.5t-86 -50.5q-99 -80 -99 -183zM285 1280q0 72 51 122t123 50q69 0 119.5 -51.5t50.5 -120.5q0 -72 -50.5 -123t-121.5 -51t-121.5 51t-50.5 123zM362 1280q0 -40 27.5 -68t65.5 -28t66 28t28 68q0 38 -27.5 66t-64.5 28q-39 0 -67 -27.5t-28 -66.5z " />
<glyph unicode="&#xe6;" horiz-adv-x="1413" d="M68 205q0 138 126 240.5t388 175.5q2 16 2 41q0 92 -60 155q-31 31 -71 50.5t-72 19.5q-17 0 -25 -8t-41 -56q-43 -65 -106 -65q-39 0 -67.5 26t-28.5 62q0 51 46.5 80.5t123.5 29.5q130 0 254.5 -50t150.5 -113q40 75 119 119t174 44q133 0 224.5 -97t119.5 -267 l-588 -160q25 -154 109 -248t198 -94q75 0 127 35t117 129l55 -33q-27 -55 -48.5 -84.5t-55.5 -62.5q-122 -109 -268 -109q-106 0 -190.5 52t-137.5 149q-92 -111 -166.5 -156t-165.5 -45q-101 0 -172 70.5t-71 169.5zM236 264q0 -75 44.5 -124.5t110.5 -49.5q106 0 191 98 v357q-120 -20 -232 -90q-114 -72 -114 -191zM729 512l287 76q72 19 97.5 45.5t25.5 83.5q0 75 -53 127.5t-128 52.5q-100 0 -164.5 -96.5t-64.5 -247.5v-41z" />
<glyph unicode="&#xe7;" horiz-adv-x="854" d="M80 412q0 150 60.5 275t165.5 197t231 72q105 0 182.5 -49t77.5 -116q0 -43 -31 -74t-74 -31q-49 0 -86 47q-16 21 -21.5 36.5t-17.5 70.5q-9 39 -73 39q-109 0 -181.5 -105.5t-72.5 -263.5q0 -177 90.5 -297.5t222.5 -120.5q71 0 126.5 35.5t108.5 114.5l52 -37 q-113 -210 -328 -244l-33 -86q103 -3 151 -34.5t48 -96.5q0 -63 -46 -99t-126 -36q-75 0 -129.5 30.5t-54.5 73.5q0 17 13 30t30 13q20 0 27.5 -7.5t33.5 -57.5q14 -31 55 -31q34 0 59 25t25 59q0 35 -30.5 58.5t-77.5 23.5q-24 0 -68 -8l62 143q-167 13 -269 137.5 t-102 313.5z" />
<glyph unicode="&#xe8;" horiz-adv-x="903" d="M80 434q0 143 54.5 263t148 189.5t204.5 69.5q138 0 231.5 -102.5t115.5 -275.5l-592 -156q23 -148 107 -240t194 -92q75 0 131 36t114 122l46 -37q-63 -128 -148 -187t-205 -59q-175 0 -288 132.5t-113 336.5zM182 1333q0 32 25 57t59 25q25 0 46.5 -17t47.5 -57 l170 -251l-22 -25l-242 158q-84 54 -84 110zM233 510l279 70q73 19 101 44t28 74q0 85 -45.5 136t-120.5 51q-108 0 -175 -100.5t-67 -262.5v-12z" />
<glyph unicode="&#xe9;" horiz-adv-x="903" d="M80 434q0 143 54.5 263t148 189.5t204.5 69.5q138 0 231.5 -102.5t115.5 -275.5l-592 -156q23 -148 107 -240t194 -92q75 0 131 36t114 122l46 -37q-63 -128 -148 -187t-205 -59q-175 0 -288 132.5t-113 336.5zM233 510l279 70q73 19 101 44t28 74q0 85 -45.5 136 t-120.5 51q-108 0 -175 -100.5t-67 -262.5v-12zM371 1090l168 251q29 43 50 59.5t46 16.5q33 0 58.5 -25.5t25.5 -58.5q0 -56 -84 -110l-242 -158z" />
<glyph unicode="&#xea;" horiz-adv-x="903" d="M80 434q0 143 54.5 263t148 189.5t204.5 69.5q138 0 231.5 -102.5t115.5 -275.5l-592 -156q23 -148 107 -240t194 -92q75 0 131 36t114 122l46 -37q-63 -128 -148 -187t-205 -59q-175 0 -288 132.5t-113 336.5zM168 1135l289 223l274 -223l-16 -29l-258 92l-271 -92z M233 510l279 70q73 19 101 44t28 74q0 85 -45.5 136t-120.5 51q-108 0 -175 -100.5t-67 -262.5v-12z" />
<glyph unicode="&#xeb;" horiz-adv-x="903" d="M80 434q0 143 54.5 263t148 189.5t204.5 69.5q138 0 231.5 -102.5t115.5 -275.5l-592 -156q23 -148 107 -240t194 -92q75 0 131 36t114 122l46 -37q-63 -128 -148 -187t-205 -59q-175 0 -288 132.5t-113 336.5zM193 1237q0 43 30.5 73.5t71.5 30.5q44 0 74 -30t30 -74 q0 -41 -30.5 -71.5t-73.5 -30.5q-42 0 -72 30t-30 72zM233 510l279 70q73 19 101 44t28 74q0 85 -45.5 136t-120.5 51q-108 0 -175 -100.5t-67 -262.5v-12zM508 1237q0 43 30.5 73.5t71.5 30.5q43 0 74 -30.5t31 -73.5q0 -41 -31.5 -71.5t-73.5 -30.5q-41 0 -71.5 30.5 t-30.5 71.5z" />
<glyph unicode="&#xec;" horiz-adv-x="503" d="M-2 1333q0 32 25 57t59 25q25 0 46.5 -17t47.5 -57l170 -251l-22 -25l-242 158q-84 54 -84 110zM76 0v68l102 14v627q0 75 -10 95.5t-45 20.5q-16 0 -47 -8v64l258 84v-883l94 -14v-68h-352z" />
<glyph unicode="&#xed;" horiz-adv-x="503" d="M76 0v68l102 14v627q0 75 -10 95.5t-45 20.5q-16 0 -47 -8v64l258 84v-883l96 -14v-68h-354zM145 1090l168 251q29 43 50.5 59.5t46.5 16.5q33 0 58.5 -25.5t25.5 -58.5q0 -56 -84 -110l-242 -158z" />
<glyph unicode="&#xee;" horiz-adv-x="503" d="M4 1135l254 223l242 -223l-21 -29l-221 92l-231 -92zM76 0v68l102 14v627q0 75 -10 95.5t-45 20.5q-16 0 -47 -8v64l258 84v-883l94 -14v-68h-352z" />
<glyph unicode="&#xef;" horiz-adv-x="503" d="M18 1237q0 43 31 73.5t72 30.5q44 0 74 -30t30 -74q0 -41 -30.5 -71.5t-73.5 -30.5t-73 30.5t-30 71.5zM74 0v68l102 14v627q0 75 -10 95.5t-45 20.5q-16 0 -47 -8v64l258 84v-883l96 -14v-68h-354zM276 1241q0 43 31 74t72 31q43 0 73.5 -31t30.5 -74q0 -41 -31.5 -71.5 t-72.5 -30.5t-72 30.5t-31 71.5z" />
<glyph unicode="&#xf0;" horiz-adv-x="1005" d="M76 455q0 134 58.5 249.5t158.5 183.5t217 68q77 0 168 -38q-54 152 -201 284l-233 -123l-37 72l207 104q-74 60 -240 136l23 55q164 -48 317 -139l242 120l35 -69l-201 -101q143 -126 209 -231q133 -209 133 -485q0 -177 -62 -316q-49 -115 -152.5 -187.5t-219.5 -72.5 q-171 0 -296.5 146t-125.5 344zM262 463q0 -422 240 -422q46 0 87 18.5t64 49.5q42 56 65 152.5t23 215.5q0 192 -62.5 302t-172.5 110q-111 0 -177.5 -116t-66.5 -310z" />
<glyph unicode="&#xf1;" horiz-adv-x="1060" d="M76 0v68l102 14v580q0 76 -3.5 98.5t-20.5 40.5q-21 24 -48 24q-2 0 -30 -4v70l190 80q29 -31 47.5 -74.5t20.5 -83.5q46 66 121.5 104.5t160.5 38.5q68 0 131 -32t101 -86q51 -76 51 -242v-514l94 -14v-68h-352v68l102 14v510q0 82 -13.5 130.5t-47.5 86.5 q-45 51 -115 51q-69 0 -132 -36t-101 -97v-645l102 -14v-68h-360zM248 1159q43 86 77.5 117t88.5 31q56 0 145 -27q100 -33 141 -33q38 0 86 45l31 -18q-39 -76 -76.5 -108.5t-83.5 -32.5q-56 0 -184 41q-59 20 -106 20q-39 0 -84 -51z" />
<glyph unicode="&#xf2;" horiz-adv-x="1013" d="M80 455q0 135 58.5 250.5t158 183t215.5 67.5q177 0 298.5 -144t121.5 -353q0 -131 -59 -245t-158.5 -181.5t-212.5 -67.5q-111 0 -209 67t-155.5 180t-57.5 243zM238 1333q0 32 25 57t59 25q25 0 46.5 -17t47.5 -57l170 -251l-23 -25l-241 158q-84 54 -84 110zM266 463 q0 -422 240 -422q46 0 87 18.5t64 49.5q42 56 65 152.5t23 215.5q0 192 -62.5 302t-172.5 110q-111 0 -177.5 -116t-66.5 -310z" />
<glyph unicode="&#xf3;" horiz-adv-x="1013" d="M80 455q0 135 58.5 250.5t158 183t215.5 67.5q177 0 298.5 -144t121.5 -353q0 -131 -59 -245t-158.5 -181.5t-212.5 -67.5q-111 0 -209 67t-155.5 180t-57.5 243zM266 463q0 -422 240 -422q46 0 87 18.5t64 49.5q42 56 65 152.5t23 215.5q0 192 -62.5 302t-172.5 110 q-111 0 -177.5 -116t-66.5 -310zM426 1090l168 251q29 43 50 59.5t46 16.5q33 0 58.5 -25.5t25.5 -58.5q0 -56 -84 -110l-241 -158z" />
<glyph unicode="&#xf4;" horiz-adv-x="1013" d="M80 455q0 135 58.5 250.5t158 183t215.5 67.5q177 0 298.5 -144t121.5 -353q0 -131 -59 -245t-158.5 -181.5t-212.5 -67.5q-111 0 -209 67t-155.5 180t-57.5 243zM223 1135l289 223l274 -223l-16 -29l-258 92l-270 -92zM266 463q0 -422 240 -422q46 0 87 18.5t64 49.5 q42 56 65 152.5t23 215.5q0 192 -62.5 302t-172.5 110q-111 0 -177.5 -116t-66.5 -310z" />
<glyph unicode="&#xf5;" horiz-adv-x="1013" d="M80 455q0 135 58.5 250.5t158 183t215.5 67.5q177 0 298.5 -144t121.5 -353q0 -131 -59 -245t-158.5 -181.5t-212.5 -67.5q-111 0 -209 67t-155.5 180t-57.5 243zM250 1159q43 86 77.5 117t88.5 31q56 0 145 -27q100 -33 141 -33q38 0 86 45l31 -18q-39 -76 -76.5 -108.5 t-83.5 -32.5q-56 0 -184 41q-59 20 -106 20q-39 0 -84 -51zM266 463q0 -422 240 -422q46 0 87 18.5t64 49.5q42 56 65 152.5t23 215.5q0 192 -62.5 302t-172.5 110q-111 0 -177.5 -116t-66.5 -310z" />
<glyph unicode="&#xf6;" horiz-adv-x="1013" d="M80 455q0 135 58.5 250.5t158 183t215.5 67.5q177 0 298.5 -144t121.5 -353q0 -131 -59 -245t-158.5 -181.5t-212.5 -67.5q-111 0 -209 67t-155.5 180t-57.5 243zM260 1237q0 43 30.5 73.5t71.5 30.5q44 0 74.5 -30t30.5 -74q0 -41 -31 -71.5t-74 -30.5q-42 0 -72 30 t-30 72zM266 463q0 -422 240 -422q46 0 87 18.5t64 49.5q42 56 65 152.5t23 215.5q0 192 -62.5 302t-172.5 110q-111 0 -177.5 -116t-66.5 -310zM575 1237q0 43 30.5 73.5t72.5 30.5q43 0 73.5 -30.5t30.5 -73.5q0 -41 -31.5 -71.5t-72.5 -30.5t-72 30.5t-31 71.5z" />
<glyph unicode="&#xf7;" d="M109 649v99h809v-99h-809zM438 430q0 32 23 54t55 22q29 0 51.5 -22.5t22.5 -53.5t-22.5 -53.5t-53.5 -22.5t-53.5 22.5t-22.5 53.5zM438 965q0 32 22.5 53.5t55.5 21.5q30 0 52 -22t22 -53t-22.5 -53.5t-53.5 -22.5t-53.5 22.5t-22.5 53.5z" />
<glyph unicode="&#xf8;" horiz-adv-x="1015" d="M80 457q0 134 59 249t160 182.5t219 67.5q53 0 97 -13t102 -44l82 148h71l-106 -185q77 -65 123.5 -172t46.5 -221q0 -132 -60 -249t-160.5 -186t-213.5 -69q-54 0 -98 15t-101 51l-80 -146h-69l102 183q-174 151 -174 389zM262 481q0 -197 51 -307l357 643 q-62 74 -150 74q-119 0 -188.5 -110.5t-69.5 -299.5zM350 115q72 -72 164 -72q117 0 177.5 111.5t60.5 326.5q0 181 -45 279z" />
<glyph unicode="&#xf9;" horiz-adv-x="1085" d="M68 803v65l262 88q-4 -203 -4 -290v-299q0 -85 1 -103t9 -43q19 -63 63.5 -97t108.5 -34q71 0 127.5 38t122.5 130v430q0 51 -1.5 64.5t-8.5 25.5q-12 27 -58 27q-11 0 -35 -6v69l265 88q-7 -177 -7 -301v-329q0 -121 2.5 -149t12.5 -50q15 -35 43 -35q14 0 45 10v-61 l-189 -66q-66 86 -69 197q-28 -45 -49 -72q-53 -62 -128 -98.5t-151 -36.5q-57 0 -107 24t-81 66q-44 60 -58 122.5t-14 197.5v321q0 70 -4 82q-12 31 -53 31q-11 0 -45 -6zM272 1333q0 32 25 57t59 25q46 0 95 -74l170 -251l-23 -25l-242 158q-84 54 -84 110z" />
<glyph unicode="&#xfa;" horiz-adv-x="1085" d="M68 803v65l262 88q-4 -203 -4 -290v-299q0 -85 1 -103t9 -43q19 -63 63.5 -97t108.5 -34q71 0 127.5 38t122.5 130v430q0 51 -1.5 64.5t-8.5 25.5q-12 27 -58 27q-11 0 -35 -6v69l265 88q-7 -177 -7 -301v-329q0 -121 2.5 -149t12.5 -50q15 -35 43 -35q14 0 45 10v-61 l-189 -66q-66 86 -69 197q-28 -45 -49 -72q-53 -62 -128 -98.5t-151 -36.5q-57 0 -107 24t-81 66q-44 60 -58 122.5t-14 197.5v321q0 70 -4 82q-12 31 -53 31q-11 0 -45 -6zM461 1090l168 251q29 43 50 59.5t46 16.5q33 0 58.5 -25.5t25.5 -58.5q0 -56 -84 -110l-242 -158z " />
<glyph unicode="&#xfb;" horiz-adv-x="1085" d="M68 803v65l262 88q-4 -203 -4 -290v-299q0 -85 1 -103t9 -43q19 -63 63.5 -97t108.5 -34q71 0 127.5 38t122.5 130v430q0 51 -1.5 64.5t-8.5 25.5q-12 27 -58 27q-11 0 -35 -6v69l265 88q-7 -177 -7 -301v-329q0 -121 2.5 -149t12.5 -50q15 -35 43 -35q14 0 45 10v-61 l-189 -66q-66 86 -69 197q-28 -45 -49 -72q-53 -62 -128 -98.5t-151 -36.5q-57 0 -107 24t-81 66q-44 60 -58 122.5t-14 197.5v321q0 70 -4 82q-12 31 -53 31q-11 0 -45 -6zM260 1135l289 223l274 -223l-16 -29l-258 92l-270 -92z" />
<glyph unicode="&#xfc;" horiz-adv-x="1085" d="M68 803v65l262 88q-4 -203 -4 -290v-299q0 -85 1 -103t9 -43q19 -63 63.5 -97t108.5 -34q71 0 127.5 38t122.5 130v430q0 51 -1.5 64.5t-8.5 25.5q-12 27 -58 27q-11 0 -35 -6v69l265 88q-7 -177 -7 -301v-329q0 -121 2.5 -149t12.5 -50q15 -35 43 -35q14 0 45 10v-61 l-189 -66q-66 86 -69 197q-28 -45 -49 -72q-53 -62 -128 -98.5t-151 -36.5q-57 0 -107 24t-81 66q-44 60 -58 122.5t-14 197.5v321q0 70 -4 82q-12 31 -53 31q-11 0 -45 -6zM283 1237q0 43 30.5 73.5t71.5 30.5q44 0 74 -30t30 -74q0 -41 -30.5 -71.5t-73.5 -30.5 q-42 0 -72 30t-30 72zM598 1237q0 43 30.5 73.5t71.5 30.5q43 0 74 -30.5t31 -73.5q0 -41 -31.5 -71.5t-73.5 -30.5q-41 0 -71.5 30.5t-30.5 71.5z" />
<glyph unicode="&#xfd;" horiz-adv-x="888" d="M2 819v66l234 65l256 -762q77 144 147 303.5t70 192.5q0 23 -39 59q-58 55 -58 109q0 43 31.5 73.5t75.5 30.5q49 0 80.5 -36t31.5 -91q0 -74 -64.5 -233t-229.5 -490q-129 -256 -208.5 -347t-174.5 -91q-51 0 -91 30.5t-40 68.5q0 37 31 64.5t71 27.5q27 0 78 -21 q37 -18 49 -18q34 0 72 47.5t73 132.5l-243 672q-34 94 -56 121.5t-63 27.5q-17 0 -33 -2zM362 1090l168 251q29 43 50.5 59.5t46.5 16.5q33 0 58.5 -25.5t25.5 -58.5q0 -56 -84 -110l-242 -158z" />
<glyph unicode="&#xfe;" horiz-adv-x="1007" d="M68 -270l102 14v1436q0 68 -14.5 95.5t-49.5 27.5q-3 0 -38 -7v72l258 100v-675q46 76 118 119.5t152 43.5q141 0 236.5 -130t95.5 -322q0 -129 -46.5 -251t-123.5 -194q-102 -94 -236 -94q-136 0 -196 78v-299l102 -14v-68h-360v68zM326 168q75 -129 202 -129 q109 0 178.5 104t69.5 267q0 173 -74 293t-180 120q-54 0 -106 -30t-90 -84v-541z" />
<glyph unicode="&#xff;" horiz-adv-x="888" d="M2 819v66l234 65l256 -762q77 144 147 303.5t70 192.5q0 23 -39 59q-58 55 -58 109q0 43 31.5 73.5t75.5 30.5q49 0 80.5 -36t31.5 -91q0 -74 -64.5 -233t-229.5 -490q-129 -256 -208.5 -347t-174.5 -91q-51 0 -91 30.5t-40 68.5q0 37 31 64.5t71 27.5q27 0 78 -21 q37 -18 49 -18q34 0 72 47.5t73 132.5l-243 672q-34 94 -56 121.5t-63 27.5q-17 0 -33 -2zM225 1237q0 43 30.5 73.5t72.5 30.5q44 0 74 -30t30 -74q0 -41 -30.5 -71.5t-73.5 -30.5q-42 0 -72.5 30.5t-30.5 71.5zM541 1237q0 43 30.5 73.5t71.5 30.5q43 0 74 -30.5t31 -73.5 q0 -41 -31.5 -71.5t-73.5 -30.5q-41 0 -71.5 30.5t-30.5 71.5z" />
<glyph unicode="&#x152;" horiz-adv-x="2043" d="M92 676q0 140 51 278t142 242q173 197 397 197q99 0 182 -38t166 -122v133h533q101 0 140.5 3.5t139.5 19.5l92 -400l-67 -18q-79 177 -176.5 247t-261.5 70q-6 0 -28.5 -0.5t-72 -1.5t-108.5 -2v-520h110q52 0 79 7.5t50 27.5q29 23 41 48t31 101q2 2 6 23h74v-504h-74 q-12 128 -56.5 173.5t-156.5 45.5h-104v-606q140 -12 219 -12q207 0 336 141q38 39 55 66.5t65 121.5q0 1 15 27l65 -18l-108 -439q-76 22 -120.5 27.5t-135.5 5.5h-582v143q-81 -90 -162.5 -130t-183.5 -40q-268 0 -444 246q-71 99 -109.5 217.5t-38.5 239.5zM305 690 q0 -418 168 -575q33 -33 88.5 -52.5t116.5 -19.5q174 0 263 143t89 424v133q0 160 -21.5 256t-76.5 177q-93 143 -250 143q-177 0 -277 -167t-100 -462z" />
<glyph unicode="&#x153;" horiz-adv-x="1562" d="M80 457q0 133 57.5 248t155 183t209.5 68q97 0 177 -49t136 -141q56 92 136.5 141t178.5 49q167 0 267 -149q38 -55 55.5 -105t20.5 -112l-582 -154q26 -160 108.5 -253t200.5 -93q72 0 121.5 30t101.5 107l17 25l55 -37q-57 -117 -154.5 -183.5t-214.5 -66.5 q-97 0 -178.5 47t-132.5 133q-78 -95 -153 -137.5t-166 -42.5q-111 0 -207 66.5t-152.5 180t-56.5 245.5zM264 446q0 -225 60 -325q25 -43 72 -69.5t98 -26.5q114 0 173.5 117t59.5 343q0 198 -57.5 300t-169.5 102q-236 0 -236 -441zM881 551q0 -23 2 -39l299 78 q60 15 83 39t23 71q0 88 -48 141.5t-126 53.5q-104 0 -168.5 -94.5t-64.5 -249.5z" />
<glyph unicode="&#x178;" horiz-adv-x="1175" d="M14 1298v68h437v-68l-125 -14l317 -639l229 481q23 47 23 72q0 85 -141 100v68h409v-68q-79 -22 -115.5 -54t-82.5 -126l-285 -567v-469l123 -14v-68h-436v68l122 14v469l-376 733zM340 1636q0 44 31 75.5t75 31.5t75.5 -31.5t31.5 -77.5q0 -42 -32 -73t-75 -31 q-44 0 -75 31t-31 75zM711 1636q0 43 31 75t73 32q44 0 76.5 -32.5t32.5 -76.5q0 -41 -33 -72.5t-76 -31.5t-73.5 31t-30.5 75z" />
<glyph unicode="&#x2c6;" d="M229 1135l289 223l275 -223l-17 -29l-258 92l-270 -92z" />
<glyph unicode="&#x2dc;" d="M227 1159q43 86 77.5 117t88.5 31q57 0 146 -27q100 -33 141 -33q38 0 86 45l31 -18q-39 -76 -76.5 -108.5t-83.5 -32.5q-56 0 -184 41q-59 20 -107 20q-39 0 -84 -51z" />
<glyph unicode="&#x2000;" horiz-adv-x="915" />
<glyph unicode="&#x2001;" horiz-adv-x="1831" />
<glyph unicode="&#x2002;" horiz-adv-x="915" />
<glyph unicode="&#x2003;" horiz-adv-x="1831" />
<glyph unicode="&#x2004;" horiz-adv-x="610" />
<glyph unicode="&#x2005;" horiz-adv-x="457" />
<glyph unicode="&#x2006;" horiz-adv-x="305" />
<glyph unicode="&#x2007;" horiz-adv-x="305" />
<glyph unicode="&#x2008;" horiz-adv-x="228" />
<glyph unicode="&#x2009;" horiz-adv-x="366" />
<glyph unicode="&#x200a;" horiz-adv-x="101" />
<glyph unicode="&#x2010;" horiz-adv-x="387" d="M0 397v150h387v-150h-387z" />
<glyph unicode="&#x2011;" horiz-adv-x="387" d="M0 397v150h387v-150h-387z" />
<glyph unicode="&#x2012;" horiz-adv-x="387" d="M0 397v150h387v-150h-387z" />
<glyph unicode="&#x2013;" d="M147 397v150h730v-150h-730z" />
<glyph unicode="&#x2014;" horiz-adv-x="1167" d="M0 397v150h1167v-150h-1167z" />
<glyph unicode="&#x2018;" horiz-adv-x="491" d="M117 995q0 89 60.5 190.5t166.5 194.5l33 -34q-158 -175 -158 -246q0 -16 33 -33q86 -38 86 -119q0 -43 -28.5 -72.5t-69.5 -29.5q-51 0 -87 43t-36 106z" />
<glyph unicode="&#x2019;" horiz-adv-x="491" d="M117 881q157 179 157 245q0 17 -32 31q-86 41 -86 121q0 43 28.5 72.5t69.5 29.5q51 0 87 -43t36 -106q0 -89 -60.5 -191.5t-166.5 -193.5z" />
<glyph unicode="&#x201a;" horiz-adv-x="491" d="M117 -281q157 179 157 246q0 17 -32 31q-86 41 -86 121q0 43 28.5 72.5t69.5 29.5q51 0 87 -43t36 -106q0 -89 -60.5 -191.5t-166.5 -193.5z" />
<glyph unicode="&#x201c;" horiz-adv-x="823" d="M117 995q0 86 57.5 185.5t165.5 199.5l33 -37q-64 -69 -108 -138t-44 -101q0 -16 29 -31q84 -44 84 -125q0 -43 -27 -72.5t-67 -29.5q-51 0 -87 43.5t-36 105.5zM449 993q0 89 60.5 190.5t166.5 194.5l33 -35q-158 -180 -158 -245q0 -19 33 -33q84 -41 84 -119 q0 -43 -28.5 -72.5t-68.5 -29.5q-52 0 -87 43t-35 106z" />
<glyph unicode="&#x201d;" horiz-adv-x="823" d="M117 881q157 179 157 245q0 17 -32 31q-86 41 -86 121q0 43 28.5 72.5t69.5 29.5q51 0 87 -43t36 -106q0 -89 -60.5 -191.5t-166.5 -193.5zM453 879q63 69 107 139t44 102q0 16 -29 31q-86 45 -86 125q0 43 27.5 72.5t67.5 29.5q51 0 88 -44t37 -105q0 -86 -58.5 -185.5 t-167.5 -199.5z" />
<glyph unicode="&#x201e;" horiz-adv-x="823" d="M117 -266q157 174 157 243q0 19 -32 33q-86 38 -86 119q0 43 28.5 72.5t69.5 29.5q51 0 87 -43t36 -106q0 -89 -60.5 -190.5t-166.5 -192.5zM453 -268q63 69 107 138.5t44 100.5q0 18 -29 33q-86 45 -86 123q0 43 27.5 72.5t67.5 29.5q51 0 88 -44t37 -105 q0 -86 -58.5 -185.5t-167.5 -197.5z" />
<glyph unicode="&#x2022;" horiz-adv-x="1366" d="M401 692q0 120 83.5 202.5t205.5 82.5q114 0 196.5 -83.5t82.5 -199.5q0 -118 -83 -201t-200 -83t-201 82.5t-84 199.5z" />
<glyph unicode="&#x2026;" horiz-adv-x="1312" d="M102 90q0 49 34.5 84t82.5 35q50 0 84.5 -34t34.5 -85q0 -46 -36 -81.5t-83 -35.5t-82 35t-35 82zM541 90q0 49 34.5 84t81.5 35q50 0 84.5 -34t34.5 -85q0 -46 -36 -81.5t-83 -35.5t-81.5 35t-34.5 82zM977 90q0 49 34.5 84t82.5 35q50 0 84 -34t34 -85 q0 -46 -35.5 -81.5t-82.5 -35.5t-82 35t-35 82z" />
<glyph unicode="&#x202f;" horiz-adv-x="366" />
<glyph unicode="&#x2039;" horiz-adv-x="411" d="M61 479l183 322h65l-112 -322l112 -319h-65z" />
<glyph unicode="&#x203a;" horiz-adv-x="411" d="M102 160l111 321l-111 320h66l182 -320l-182 -321h-66z" />
<glyph unicode="&#x205f;" horiz-adv-x="457" />
<glyph unicode="&#x20ac;" horiz-adv-x="1384" d="M88 547l33 76h94q-2 12 -2 30q0 25 2 45h-127l33 76h100q21 175 99.5 317t196.5 223t251 81q51 0 182 -27q57 -14 99 -14q26 0 45 5t67 27l19 9l98 -428l-70 -21q-103 196 -202.5 281.5t-225.5 85.5q-161 0 -254 -142.5t-98 -396.5h629l-33 -76h-596q4 -62 6 -75h559 l-32 -76h-517q35 -216 141.5 -336.5t262.5 -120.5q133 0 225 74t160 235l63 -24q-57 -183 -196 -292.5t-314 -109.5q-227 0 -377.5 153.5t-187.5 420.5h-133z" />
<glyph unicode="&#x2122;" horiz-adv-x="1632" d="M-2 1128l51 250h10q39 -12 121 -12h312q75 0 137 12h10l45 -248l-59 -12q-1 3 -2.5 6l-3.5 7l-3 6q-37 87 -86 130.5t-120 43.5v-664l77 -8v-51h-290v51l75 8v664h-2q-74 0 -125 -44t-88 -139h-59zM715 588v51q57 4 77.5 30.5t22.5 92.5l16 545l-75 8v51h219l190 -461 l197 461h217v-51l-74 -8l17 -662l73 -6v-51h-286v51l75 6l-12 572l-217 -488h-49l-209 485l-10 -438q-2 -80 18.5 -106.5t89.5 -30.5v-51h-280z" />
<glyph unicode="&#xe000;" horiz-adv-x="921" d="M0 0v922h922v-922h-922z" />
</font>
</defs>
</svg>
