<?xml version="1.0" standalone="no"?>
<!DOCTYPE svg PUBLIC "-//W3C//DTD SVG 1.1//EN" "http://www.w3.org/Graphics/SVG/1.1/DTD/svg11.dtd" >
<svg xmlns="http://www.w3.org/2000/svg">
<metadata></metadata>
<defs>
<font id="clearface_fsitalic" horiz-adv-x="1038" >
<font-face units-per-em="2048" ascent="1636" descent="-412" />
<missing-glyph horiz-adv-x="512" />
<glyph unicode="&#xfb01;" horiz-adv-x="1069" d="M41 0q43 101 90 266l166 586h-121l27 90h121l30 102q23 76 60.5 148t90 137t123.5 104.5t148 39.5q99 0 165.5 -54t66.5 -135q0 -47 -27 -77.5t-68 -30.5q-43 0 -65 25t-31 83q-9 56 -28.5 76t-63.5 20q-75 0 -127 -77.5t-92 -247.5l-27 -113h230l264 21q8 -39 8 -68 q0 -41 -9.5 -80t-45.5 -141l-135 -387q-39 -113 -39 -142q0 -24 11 -39.5t28 -15.5q42 0 120 72l25 -68q-118 -121 -217 -121q-58 0 -96.5 41t-38.5 103q0 51 45 182l143 420q21 62 21 80q0 13 -9 27t-20 20q-18 6 -72 6h-231l-172 -600q-39 -134 -39 -252h-209z" />
<glyph unicode="&#xfb02;" horiz-adv-x="1067" d="M41 0q43 101 90 266l166 586h-121l27 90h121l30 102q25 81 70 165.5t92 136.5q107 122 238 122q34 0 55 -5t94 -31q20 -5 29 -5q10 0 22 3l195 45q-52 -151 -105 -334l-219 -760q-53 -183 -53 -225q0 -23 12.5 -37.5t34.5 -14.5q28 0 55.5 20.5t75.5 74.5l29 -64 q-47 -75 -112.5 -119.5t-125.5 -44.5q-64 0 -100.5 40.5t-36.5 109.5q0 42 8 78.5t50 181.5l200 694q25 90 25 137q0 75 -43 120.5t-115 45.5q-82 0 -132 -73t-91 -250l-27 -113h160l-25 -90h-153l-172 -600q-39 -134 -39 -252h-209z" />
<glyph unicode="&#xfb03;" horiz-adv-x="1583" d="M41 0q43 101 90 266l166 586h-121l27 90h121l30 102q56 186 171.5 307.5t236.5 121.5q60 0 102.5 -31.5t42.5 -77.5q0 -35 -30 -63.5t-68 -28.5q-41 0 -74 26q-9 5 -49 62q-9 12 -18 12q-38 0 -84.5 -92t-77.5 -225l-27 -113h359l30 102q23 76 60.5 148t90 137 t123.5 104.5t148 39.5q99 0 165.5 -54t66.5 -135q0 -47 -27 -77.5t-68 -30.5q-43 0 -65 25t-31 83q-9 56 -28.5 76t-63.5 20q-75 0 -127 -77.5t-92 -247.5l-27 -113h230l266 21q6 -44 6 -68q0 -39 -10 -78.5t-45 -142.5l-135 -387q-39 -108 -39 -142q0 -24 11 -39.5 t28 -15.5q42 0 120 72l25 -68q-118 -121 -217 -121q-58 0 -96.5 41t-38.5 103q0 51 45 182l143 420q21 62 21 80q0 13 -9 27t-20 20q-18 6 -72 6h-231l-172 -600q-39 -134 -39 -252h-209q43 101 90 266l166 586h-350l-172 -600q-39 -134 -39 -252h-209z" />
<glyph unicode="&#xfb04;" horiz-adv-x="1581" d="M41 0q43 101 90 266l166 586h-121l27 90h121l30 102q56 186 171.5 307.5t236.5 121.5q60 0 102.5 -31.5t42.5 -77.5q0 -35 -30 -63.5t-68 -28.5q-41 0 -74 26q-9 5 -49 62q-9 12 -18 12q-38 0 -84.5 -92t-77.5 -225l-27 -113h359l30 102q25 81 70 165.5t92 136.5 q107 122 238 122q34 0 55 -5t94 -31q20 -5 29 -5q10 0 22 3l195 45q-46 -132 -104 -334l-218 -760q-55 -190 -55 -225q0 -23 12.5 -37.5t34.5 -14.5q28 0 55.5 20.5t75.5 74.5l29 -64q-47 -75 -112.5 -119.5t-125.5 -44.5q-64 0 -100.5 40.5t-36.5 109.5q0 40 8 73.5 t52 186.5l198 694q25 87 25 137q0 75 -43 120.5t-115 45.5q-82 0 -132 -73t-91 -250l-27 -113h160l-25 -90h-153l-172 -600q-39 -134 -39 -252h-209q43 101 90 266l166 586h-350l-172 -600q-39 -134 -39 -252h-209z" />
<glyph horiz-adv-x="2048" />
<glyph horiz-adv-x="2048" />
<glyph unicode="&#xd;" horiz-adv-x="2048" />
<glyph unicode=" "  horiz-adv-x="512" />
<glyph unicode="&#x09;" horiz-adv-x="512" />
<glyph unicode="&#xa0;" horiz-adv-x="512" />
<glyph unicode="!" horiz-adv-x="614" d="M78 96q0 50 34 84.5t85 34.5q49 0 82.5 -33.5t33.5 -83.5t-34.5 -84t-83.5 -34q-50 0 -83.5 33.5t-33.5 82.5zM231 317q56 177 87.5 319.5t76.5 432.5q25 163 32 196t26 68q14 25 39.5 40.5t54.5 15.5q46 0 75 -31t29 -78t-19.5 -101t-117.5 -276q-98 -221 -130 -307 t-91 -279h-62z" />
<glyph unicode="&#x22;" horiz-adv-x="788" d="M309 817l137 549h123l-192 -549h-68zM594 817l137 549h123l-192 -549h-68z" />
<glyph unicode="#" horiz-adv-x="1193" d="M117 502l28 92h269l75 209h-262l31 92h266l170 471h109l-172 -471h223l170 471h109l-170 -471h241l-28 -92h-248l-76 -209h244l-31 -92h-246l-184 -502h-107l183 502h-224l-182 -502h-106l182 502h-264zM520 594h223l76 209h-221z" />
<glyph unicode="$" d="M20 240q0 46 33 79t78 33q58 0 98.5 -51t40.5 -123v-20q-2 -8 -2 -19q0 -33 115 -45l160 561l-19 15q-19 15 -51 39.5t-42 32.5t-27 22t-25 23t-17 20q-59 76 -59 172q0 106 65 198t171 138q79 36 206 45l48 166h79l-49 -170q117 -10 189 -37q57 -22 91 -63t34 -87 q0 -43 -32.5 -74.5t-76.5 -31.5q-65 0 -102 53q-15 20 -20.5 36t-20.5 81q-7 23 -25.5 33.5t-56.5 13.5l-135 -469q146 -91 206 -174.5t60 -196.5q0 -112 -63 -207.5t-169 -148.5q-91 -44 -260 -61l-55 -191h-80l55 193q-91 16 -134 27t-87 32q-54 25 -87.5 68.5t-33.5 87.5 zM442 1063q0 -61 35.5 -109t122.5 -104l123 434q-87 -3 -135 -24q-69 -29 -107.5 -81.5t-38.5 -115.5zM463 94q138 0 230.5 78t92.5 195q0 140 -174 251z" />
<glyph unicode="%" horiz-adv-x="1474" d="M223 928q0 111 49.5 218t130 173.5t164.5 66.5q95 0 151 -73t56 -197q0 -90 -43.5 -191.5t-126 -177t-176.5 -75.5q-93 0 -149 69.5t-56 186.5zM242 0l1005 1366h94l-1005 -1366h-94zM348 829q0 -51 21 -78.5t59 -27.5q40 0 70.5 31.5t62.5 105.5q32 73 55.5 175 t28.5 186q3 52 -18 82t-58 30q-51 0 -89 -53t-77 -174q-55 -177 -55 -277zM813 240q0 114 50 223.5t131 177.5t165 68q94 0 151.5 -75.5t57.5 -197.5q0 -112 -50.5 -218.5t-132 -172t-167.5 -65.5q-91 0 -148 73t-57 187zM936 150q0 -117 82 -117q47 0 84 42.5t72 139.5 q27 73 48 172.5t21 155.5q0 110 -86 110q-43 0 -74.5 -35t-62.5 -116q-84 -222 -84 -352z" />
<glyph unicode="&#x26;" horiz-adv-x="1560" d="M94 328q0 103 53.5 195t153.5 163q60 41 125 70t172 61q-4 62 -4 68q0 221 127 368.5t317 147.5q136 0 226 -67.5t90 -168.5q0 -84 -53.5 -156t-149.5 -116q-51 -23 -99 -38t-190 -52l-92 -25q19 -90 63.5 -220.5t81.5 -203.5q127 171 187 234q136 145 268 145 q66 0 108 -35t42 -90q0 -46 -33.5 -79t-79.5 -33q-37 0 -62 17.5t-71 74.5q-14 14 -21 14q-36 0 -134.5 -105t-166.5 -218q55 -108 112.5 -158.5t125.5 -50.5q43 0 79.5 20t90.5 74l45 -45q-70 -84 -139.5 -123t-147.5 -39q-81 0 -148.5 45.5t-138.5 147.5 q-180 -177 -374 -177q-152 0 -257.5 103.5t-105.5 251.5zM301 360q0 -123 69 -201.5t175 -78.5q69 0 138 37.5t112 97.5q-113 213 -189 530q-140 -29 -222.5 -133t-82.5 -252zM741 954q0 -38 15 -108l112 26q160 38 254.5 121t94.5 187q0 63 -51.5 108t-123.5 45 q-133 0 -217 -106t-84 -273z" />
<glyph unicode="'" horiz-adv-x="507" d="M309 817l137 549h123l-192 -549h-68z" />
<glyph unicode="(" horiz-adv-x="636" d="M98 305q0 396 221 727q95 145 200.5 245t266.5 198l23 -41q-158 -124 -251.5 -259t-176.5 -358q-73 -195 -113.5 -390.5t-40.5 -356.5q0 -117 19 -212t67 -223l-37 -16q-96 187 -137 344.5t-41 341.5z" />
<glyph unicode=")" horiz-adv-x="636" d="M-131 -340q157 124 250 258t178 358q73 195 113.5 391.5t40.5 356.5q0 117 -19.5 212.5t-69.5 221.5l39 17q97 -189 138 -347t41 -342q0 -393 -222 -725q-95 -144 -200.5 -243.5t-266.5 -198.5z" />
<glyph unicode="*" horiz-adv-x="874" d="M299 1237q0 33 21.5 55.5t52.5 22.5q35 0 60.5 -22t90.5 -103q17 -21 27 -33l27 -33l22 9v41l-6 81v29q0 66 25 102.5t71 36.5q32 0 53 -23t21 -57q0 -37 -17 -68.5t-83 -121.5l-23 -37l14 -20l33 10l84 33q60 24 96 24q40 0 68.5 -25.5t28.5 -60.5q0 -32 -27.5 -55 t-65.5 -23q-17 0 -30.5 2.5t-26.5 7t-45.5 14t-73.5 19.5l-43 11l-14 -17l20 -28q1 -1 7.5 -9t20.5 -25t30 -36q57 -69 57 -119q0 -35 -23 -60.5t-57 -25.5q-43 0 -69 45t-25 121l2 82q0 2 -0.5 7.5t-1.5 16t-2 19.5l-20 6l-21 -26q-20 -32 -47 -76q-57 -97 -125 -97 q-34 0 -58 22t-24 54q0 19 12 41t31 35q30 21 52.5 30.5t113.5 37.5q5 1 39 16q-2 4 -2 10q0 7 2 13l-31 10q-1 0 -39 10l-49 12q-133 35 -133 115z" />
<glyph unicode="+" d="M178 647v98h350v359h103v-359h356v-98h-356v-356h-103v356h-350z" />
<glyph unicode="," horiz-adv-x="477" d="M-76 -250q187 153 187 221q0 11 -5.5 16t-39.5 27q-56 32 -56 99q0 49 32 81.5t79 32.5q53 0 87 -37.5t34 -97.5q0 -66 -35 -129t-115 -141q-75 -72 -137 -113z" />
<glyph unicode="-" horiz-adv-x="438" d="M-25 389l50 168h438l-49 -168h-439z" />
<glyph unicode="." horiz-adv-x="477" d="M12 100q0 51 35 86t86 35t86 -36t35 -89q0 -47 -36 -81.5t-87 -34.5t-85 34.5t-34 85.5z" />
<glyph unicode="/" horiz-adv-x="907" d="M-281 -354l1368 1802h89l-1369 -1802h-88z" />
<glyph unicode="0" d="M125 434q0 184 66 380t182 357q80 111 174 172.5t186 61.5q138 0 216.5 -127.5t78.5 -351.5q0 -187 -66 -382t-182 -351q-170 -230 -354 -230q-135 0 -218 129.5t-83 341.5zM276 258q0 -107 41.5 -168t114.5 -61q87 0 157 86t136 274q68 198 114 407.5t46 325.5 q0 217 -152 217q-85 0 -153.5 -84t-143.5 -280q-72 -189 -116 -385.5t-44 -331.5z" />
<glyph unicode="1" d="M57 0l19 66l276 18l262 917q7 26 19 61t18 59t6 53q0 34 -25 52.5t-69 18.5q-42 0 -190 -24l22 77q109 20 174 35l258 62l82 16q-55 -180 -112 -373l-273 -954l224 -18l-19 -66h-672z" />
<glyph unicode="2" d="M-41 0l29 102q84 110 194 205t350 264q164 115 244 244q41 68 69.5 155t28.5 148q0 92 -58.5 153.5t-147.5 61.5q-77 0 -145 -39.5t-68 -83.5q0 -15 10 -45q22 -56 22 -90q0 -54 -32.5 -90.5t-81.5 -36.5q-47 0 -79 33t-32 82q0 63 41 133t105 117q119 90 276 90 q164 0 273.5 -102t109.5 -254q0 -193 -174 -342q-52 -46 -99 -76.5t-235 -143.5q-153 -91 -243.5 -159t-176.5 -156h299q158 0 239.5 42.5t160.5 166.5l61 -19l-197 -385q-43 19 -67.5 22t-128.5 3h-547z" />
<glyph unicode="3" d="M0 209q0 56 33 92.5t82 36.5q44 0 76 -33t32 -80q0 -51 -28 -102q-13 -20 -13 -31q0 -20 52 -38.5t108 -18.5q156 0 244 110q30 37 53 88t35 108.5t12 113.5q0 104 -53 180t-125 76q-14 0 -54 -10.5t-48 -10.5q-19 -2 -33.5 12.5t-14.5 34.5t16.5 34.5t39.5 14.5 q12 0 21.5 -2.5t53.5 -17.5q6 -2 29 -2q82 0 151 48.5t109.5 132.5t40.5 183q0 88 -54 146.5t-136 58.5q-64 0 -109 -25.5t-45 -62.5q0 -12 6 -49.5t6 -48.5q0 -51 -33.5 -86t-82.5 -35q-41 0 -70 29.5t-29 72.5q0 46 29.5 97t81.5 92q115 86 264 86q162 0 263.5 -84 t101.5 -219q0 -113 -82 -208t-215 -138q-42 -14 -123 -29q138 -28 218.5 -117.5t80.5 -214.5q0 -77 -35.5 -152.5t-101.5 -136.5q-153 -141 -387 -141q-160 0 -263.5 69.5t-103.5 176.5z" />
<glyph unicode="4" d="M45 324l35 120q216 185 425 468.5t281 486.5h252q-107 -189 -395.5 -500.5t-517.5 -486.5h467l137 475q71 66 129 133q13 16 39.5 45t38.5 45l43 51l-215 -749h192l-26 -88h-191l-71 -246l139 -8l-21 -70h-469l19 70l162 8l69 246h-522z" />
<glyph unicode="5" d="M4 203q0 57 32.5 95t80.5 38q44 0 77 -34t33 -79q0 -44 -20 -94q-12 -24 -12 -35q0 -25 44.5 -44t104.5 -19q190 0 301 186q44 74 70 162.5t26 167.5q0 110 -59 179t-154 69q-140 0 -262 -158l-67 20l245 709h461q101 0 132 12t71 68h70l-136 -244h-575l-158 -452 q60 71 124 102t149 31q158 0 257 -98t99 -253q0 -152 -81 -284t-217.5 -209.5t-293.5 -77.5q-147 0 -244.5 69.5t-97.5 172.5z" />
<glyph unicode="6" d="M133 391q0 182 63 367.5t163 327t231 230.5t260 89q109 0 184.5 -55.5t75.5 -135.5q0 -50 -30 -83t-76 -33q-47 0 -77 36.5t-30 96.5q0 12 4 35.5t4 31.5q0 17 -21 27t-57 10q-170 0 -317 -278q-43 -83 -70.5 -149t-101.5 -267q76 120 149 171.5t164 51.5 q122 0 195.5 -89.5t73.5 -237.5q0 -95 -42.5 -203t-113.5 -195q-147 -176 -328 -176q-139 0 -221 115.5t-82 312.5zM268 225q0 -88 45 -141t119 -53q141 0 236 225q33 77 54 163t21 144q0 91 -38 142.5t-107 54.5q-59 3 -124 -47.5t-116 -139.5q-37 -64 -63.5 -167.5 t-26.5 -180.5z" />
<glyph unicode="7" d="M201 55q0 75 88.5 236t228.5 340q203 254 481 561h-294q-110 0 -171.5 -15t-110.5 -53t-118 -123l-59 27l190 356q58 -14 87 -16t143 -2h520l-17 -88l-45 -53q-27 -33 -79 -92t-66 -76q-238 -279 -354.5 -485t-165.5 -439q-15 -69 -22 -91.5t-19 -41.5q-27 -41 -96 -41 q-56 0 -88.5 26t-32.5 70z" />
<glyph unicode="8" d="M43 285q0 104 63 197t177 159q42 25 176 80q-146 122 -146 283q0 166 122.5 282.5t297.5 116.5q146 0 241 -82.5t95 -210.5q0 -224 -342 -360q191 -144 191 -342q0 -83 -41 -170.5t-107 -149.5q-134 -125 -342 -125q-170 0 -277.5 90t-107.5 232zM190 256q0 -101 65 -160 t175 -59q136 0 229 86.5t93 214.5q0 120 -99 215q-25 25 -143 123q-14 -7 -70 -39q-117 -72 -183.5 -173.5t-66.5 -207.5zM463 1083q0 -24 3 -45t11.5 -41t15 -35t22.5 -33.5t24.5 -28.5t30.5 -29t30.5 -26t35 -27.5t34.5 -26.5q45 21 51 24q89 45 146 137.5t57 188.5 q0 86 -54.5 138t-144.5 52q-109 0 -185.5 -72.5t-76.5 -175.5z" />
<glyph unicode="9" d="M39 115q0 44 30.5 76t73.5 32q47 0 79.5 -38.5t39.5 -104.5q3 -29 14.5 -39t40.5 -10q149 0 275 186q52 77 82 145t110 281l35 90q-78 -127 -154 -181t-176 -54q-115 0 -191.5 90t-76.5 227q0 114 50.5 232.5t138.5 212.5q134 143 297 143q151 0 239 -117t88 -315 q0 -139 -45.5 -296t-126.5 -296q-116 -200 -267 -309t-314 -109q-106 0 -174 43.5t-68 110.5zM401 809q0 -91 43 -146t113 -55q60 0 117.5 40.5t97.5 111.5q44 76 73 176.5t29 175.5q0 105 -43 164t-120 59q-100 0 -172 -106q-60 -90 -99 -207.5t-39 -212.5z" />
<glyph unicode=":" horiz-adv-x="477" d="M12 100q0 51 35 86t86 35t86 -36t35 -89q0 -47 -36.5 -81.5t-86.5 -34.5q-51 0 -85 34.5t-34 85.5zM211 791q0 52 35 86t86 34t86 -36t35 -89q0 -47 -36.5 -81.5t-86.5 -34.5q-51 0 -85 35t-34 86z" />
<glyph unicode=";" horiz-adv-x="477" d="M-74 -250q187 153 187 219q0 12 -5.5 17.5t-39.5 27.5q-56 32 -56 99q0 49 32 81.5t79 32.5q54 0 87.5 -37.5t33.5 -97.5q0 -66 -35 -129t-115 -141q-75 -72 -137 -113zM201 791q0 52 34 86t87 34q51 0 85.5 -36t34.5 -89q0 -47 -36.5 -81.5t-86.5 -34.5 q-51 0 -84.5 34.5t-33.5 86.5z" />
<glyph unicode="&#x3c;" horiz-adv-x="1024" d="M150 641v18l845 547v-127l-606 -395l604 -397l2 -195z" />
<glyph unicode="=" d="M178 532v97h809v-97h-809zM178 770v96h809v-96h-809z" />
<glyph unicode="&#x3e;" horiz-adv-x="1024" d="M143 92v127l607 397l-605 398l-2 192l846 -547v-18z" />
<glyph unicode="?" horiz-adv-x="821" d="M70 96q0 51 34.5 87t83.5 36q52 0 86.5 -35t34.5 -88q0 -49 -34.5 -82.5t-84.5 -33.5q-51 0 -85.5 33.5t-34.5 82.5zM231 360l117 412q20 -2 45 -2q135 0 231.5 89t96.5 214q0 61 -36.5 126t-70.5 65q-5 0 -24 -15q-44 -44 -70.5 -58.5t-60.5 -14.5q-51 0 -82 28.5 t-31 73.5q0 51 34.5 79.5t96.5 28.5q133 0 238.5 -120.5t105.5 -272.5q0 -107 -56 -199.5t-153 -146.5q-89 -49 -243 -55l-66 -232h-72z" />
<glyph unicode="@" horiz-adv-x="1638" d="M152 496q0 181 85 355.5t238 307.5q272 242 608 242q251 0 396 -134t145 -366q0 -157 -70 -296t-196 -234q-63 -47 -131 -75t-121 -28q-51 0 -81 32.5t-30 88.5q0 21 9 68q-44 -86 -115.5 -140.5t-140.5 -54.5q-86 0 -144.5 70.5t-58.5 173.5q0 143 85 284t219.5 229.5 t270.5 88.5q88 0 145.5 -35.5t57.5 -89.5q0 -50 -61 -78l-88 -307q-43 -153 -44 -169v-13q0 -23 13.5 -36t36.5 -13q36 0 102 34q87 47 172 177q92 145 92 315q0 205 -133 326q-61 57 -140 82.5t-188 25.5q-171 0 -320 -70.5t-265 -205.5q-95 -110 -149 -251.5t-54 -281.5 q0 -224 130 -350.5t359 -126.5q209 0 498 125l33 -64q-164 -75 -295 -106t-283 -31q-159 0 -266.5 37t-183.5 119q-137 143 -137 375zM692 520q0 -67 29 -110t74 -43q46 0 97.5 36.5t119.5 120.5l96 334q27 92 27 115q0 29 -21 47t-55 18q-71 0 -148.5 -60.5t-132.5 -158.5 q-36 -65 -61 -152t-25 -147z" />
<glyph unicode="A" horiz-adv-x="1206" d="M-109 0l19 61h10q60 0 117 52t133 178l582 956l-21 127l211 17l59 -1321l121 -9l-18 -61h-428l16 61l123 7l-14 368h-461l-102 -170q-58 -98 -58 -137q0 -35 26.5 -51.5t86.5 -16.5h18l-18 -61h-402zM385 512h412l-19 651z" />
<glyph unicode="B" horiz-adv-x="1292" d="M-20 0l18 61l106 7l353 1230l-127 7l16 61h225q261 0 312.5 -1t97.5 -7q140 -20 217.5 -93.5t77.5 -187.5q0 -152 -126 -245.5t-337 -96.5q97 -17 149.5 -37t96.5 -57q119 -93 119 -244q0 -100 -53 -186.5t-148 -140.5q-71 -41 -141.5 -56.5t-194.5 -15.5h-57 q-36 0 -80.5 1t-52.5 1h-471zM297 72l164 -9q25 -2 74 -2q119 0 188 14t113 48q66 50 104.5 132.5t38.5 176.5q0 91 -39 155t-113 95q-68 29 -217 29h-131zM498 776h120q126 0 153.5 1.5t62.5 8.5q116 23 182 109q67 93 67 199q0 59 -27 109t-71 73q-64 31 -164 31 q-53 0 -174 -11z" />
<glyph unicode="C" horiz-adv-x="1261" d="M131 481q0 170 64 338t166.5 294.5t239.5 205t276 78.5q55 0 81 -5t129 -34q38 -10 60 -10q9 0 19.5 2t18.5 4.5t27.5 9t32.5 10.5l43 15l12 -420h-65q-56 183 -142.5 269.5t-215.5 86.5q-90 0 -175.5 -49.5t-146.5 -136.5q-92 -130 -151.5 -325.5t-59.5 -367.5 q0 -163 94.5 -265.5t245.5 -102.5q126 0 231 75t211 240l62 -35q-219 -389 -580 -389q-209 0 -343 144t-134 368z" />
<glyph unicode="D" horiz-adv-x="1366" d="M-20 0l18 61l106 7l353 1230l-127 7l16 61h264l246 10q142 6 253.5 -64t172.5 -197t61 -288q0 -173 -80 -355.5t-208 -299.5q-110 -99 -222.5 -137t-297.5 -37l-242 2h-313zM299 80q92 -14 213 -14q160 0 252.5 43t171.5 155q98 135 156.5 312t58.5 339q0 113 -42.5 207 t-113.5 138q-82 51 -227 51q-30 0 -119 -6z" />
<glyph unicode="E" horiz-adv-x="1241" d="M-20 0l18 61l106 7l353 1230l-127 7l16 61h701q67 0 106 6t90 23l14 -453h-59q-15 111 -41 176t-72 111q-43 41 -99.5 55t-182.5 14q-57 0 -158 -8l-151 -530h88q97 0 138.5 12t80.5 53q41 41 76 136h67l-147 -508h-66q17 69 17 100q0 37 -16 68.5t-42 46.5 q-37 22 -129 22h-88l-178 -620q147 -7 166 -7q138 0 233 28t187 97q130 95 219 232l57 -25l-209 -428q-49 22 -95.5 27.5t-170.5 5.5h-702z" />
<glyph unicode="F" horiz-adv-x="1148" d="M-20 0l18 61l106 7l353 1230l-127 7l16 61h643q109 0 147.5 4.5t102.5 26.5l31 -453h-66q-22 100 -53 165.5t-78 109.5q-44 43 -115 61t-194 18q-40 0 -119 -6l-156 -549q39 -2 97 -2q80 0 129 16t90 56q53 48 88 131h65l-139 -508h-65q8 65 8 96q0 72 -42.5 106 t-133.5 34h-117l-174 -604l135 -7l-18 -61h-432z" />
<glyph unicode="G" horiz-adv-x="1290" d="M133 485q0 117 34.5 245t101 246t154 212.5t202.5 151.5t237 57q46 0 73 -5t128 -32q45 -10 63 -10q41 0 123 43l23 -420l-68 -8q-40 177 -126 270.5t-208 93.5q-212 0 -370 -270q-77 -133 -123.5 -294t-46.5 -302q0 -192 94 -301t260 -109q73 0 121 25q18 7 29 27.5 t22 64.5q2 8 84 301l-121 8l17 62h395l-17 -62l-100 -8l-90 -317q-18 -70 -18 -93q0 -11 6 -32q-17 -1 -29.5 -1.5t-22 -1t-20.5 -2.5t-16 -2.5t-18 -3.5t-17.5 -4t-23 -5.5t-27.5 -6.5l-76 -18q-70 -17 -137 -17q-110 0 -203 39t-158 111q-61 67 -96 166t-35 202z" />
<glyph unicode="H" horiz-adv-x="1417" d="M-20 0l18 61l106 7l353 1230l-127 7l16 61h426l-16 -61l-109 -7l-149 -526h592l151 526l-129 7l18 61h426l-18 -61l-106 -7l-353 -1230l127 -7l-16 -61h-426l16 61l109 7l176 618h-592l-178 -618l129 -7l-18 -61h-426z" />
<glyph unicode="I" horiz-adv-x="729" d="M-20 0l18 61l154 9l352 1228l-174 7l16 61h522l-18 -61l-154 -7l-352 -1228l174 -9l-16 -61h-522z" />
<glyph unicode="J" horiz-adv-x="778" d="M-109 133q0 47 30.5 78t76.5 31q52 0 87.5 -42.5t35.5 -105.5v-16q-2 -6 -2 -19q0 -22 26 -22q87 0 144 123q33 74 96 297l242 841l-135 7l16 61h434l-18 -61l-107 -7l-252 -876q-35 -123 -65 -187.5t-76 -117.5q-127 -148 -301 -148q-106 0 -169 44.5t-63 119.5z" />
<glyph unicode="K" horiz-adv-x="1327" d="M-20 0l18 61l106 7l353 1230l-127 7l16 61h426l-16 -61l-109 -7l-201 -706l584 534q51 47 66.5 68.5t15.5 44.5q0 30 -38 48.5t-97 17.5l16 61h500l-16 -61q-113 -13 -179 -51.5t-221 -178.5l-227 -209l244 -798l98 -7l-18 -61h-404l18 61l105 7l-195 663l-284 -254 l-119 -409l129 -7l-18 -61h-426z" />
<glyph unicode="L" horiz-adv-x="1198" d="M-20 0l18 61l106 7l353 1230l-127 7l16 61h457l-17 -61l-139 -7l-352 -1230q97 -5 151 -5q125 0 203 21t166 78q74 47 128.5 102t129.5 156l60 -25l-207 -426q-52 21 -89 27t-118 6h-57q-35 0 -79 -1t-51 -1h-552z" />
<glyph unicode="M" horiz-adv-x="1556" d="M-68 0l19 61q96 13 139.5 64t91.5 201l314 972l-150 7l16 61h332l90 -856l594 856h308l-19 -61l-117 -7l-319 -1228l123 -9l-19 -61h-422l19 61l119 7l299 1151l-658 -955h-57l-94 946l-291 -909q-29 -95 -29 -131q0 -100 160 -109l-19 -61h-430z" />
<glyph unicode="N" horiz-adv-x="1333" d="M-80 0l19 61q43 5 72.5 15t54.5 27.5t44 47.5t35 70.5t33 100.5l223 774q31 115 31 141q0 22 -10 34.5t-33 20t-67 11.5q-17 0 -27 2l16 61h307l377 -1073l219 766q35 125 35 141q0 49 -32.5 72.5t-112.5 32.5l16 61h396l-19 -61q-26 -4 -43.5 -7.5t-35 -11t-28.5 -15.5 t-24 -23.5t-21.5 -32.5t-19.5 -45.5t-20.5 -59t-22.5 -76.5l-301 -1050h-63l-424 1181l-242 -843q-35 -124 -35 -162q0 -28 11.5 -47t35 -29t48.5 -15t61 -8l-17 -61h-436z" />
<glyph unicode="O" horiz-adv-x="1351" d="M131 475q0 170 64 339t166 297t238 208t273 80q204 0 333.5 -152t129.5 -391q0 -150 -66.5 -318.5t-178.5 -301.5q-109 -129 -241.5 -199t-268.5 -70q-194 0 -321.5 144t-127.5 364zM317 383q0 -163 70 -250.5t199 -87.5q131 0 233 85t185 265q69 147 106 298.5t37 279.5 q0 126 -35 203q-31 64 -97 103.5t-143 39.5q-101 0 -195 -68.5t-167 -197.5q-88 -152 -140.5 -335t-52.5 -335z" />
<glyph unicode="P" horiz-adv-x="1212" d="M-20 0l18 61l106 7l353 1230l-127 7l16 61h258q23 0 135 4t152 4q175 0 290 -92.5t115 -232.5q0 -124 -79.5 -229.5t-202.5 -143.5q-78 -24 -141 -29.5t-257 -5.5h-155l-166 -573l135 -7l-18 -61h-432zM481 719q136 -8 201 -8q141 0 221 34q83 37 137 127t54 191 q0 248 -303 248q-46 0 -142 -8z" />
<glyph unicode="Q" horiz-adv-x="1347" d="M129 483q0 189 82.5 379t228.5 336q201 201 432 201q207 0 335 -142t128 -372q0 -164 -68 -335.5t-188 -309.5q-38 -44 -76.5 -77.5t-111.5 -86.5q23 -38 35 -64q32 -70 57 -98.5t53 -28.5q42 0 82 52l27 -72q-76 -111 -187 -111q-84 0 -139 60t-86 184q-83 -29 -162 -29 q-197 0 -319.5 142.5t-122.5 371.5zM315 367q0 -151 74 -236.5t203 -85.5q63 0 131 23q-23 79 -57 111.5t-97 37.5l41 72q77 3 134 -32t104 -116q69 75 113.5 156t91.5 217q96 274 96 477q0 155 -73 240.5t-204 85.5q-133 0 -229 -85t-184 -280q-144 -325 -144 -585z" />
<glyph unicode="R" horiz-adv-x="1288" d="M-20 0l18 61l106 7l353 1230l-127 7l16 61h322q213 0 285.5 -7.5t146.5 -37.5q86 -35 135 -108.5t49 -168.5q0 -155 -113.5 -251.5t-310.5 -110.5l170 -614l109 -7l-17 -61h-262l-184 670h-209l-172 -602l129 -7l-18 -61h-426zM489 745q135 -6 187 -6q126 0 189 15.5 t118 58.5q115 92 115 254q0 127 -88 190q-68 48 -236 48q-18 0 -125 -7z" />
<glyph unicode="S" horiz-adv-x="1140" d="M68 428h63q28 -103 52.5 -157.5t62.5 -98.5q122 -137 297 -137q134 0 222.5 80.5t88.5 203.5q0 126 -104 211q-19 15 -46 31t-172 98q-239 134 -239 332q0 170 123 288t301 118q62 0 109 -11t137 -47q19 -8 41 -8q25 0 51 10t82 41l18 -403l-65 -8q-27 89 -45 129.5 t-46 79.5q-116 153 -280 153q-110 0 -185 -68t-75 -169q0 -94 57.5 -158t216.5 -147q161 -83 230 -171t69 -210q0 -121 -65 -223t-177.5 -161t-246.5 -59q-76 0 -132 13t-153 53q-27 10 -41 10q-36 0 -131 -55z" />
<glyph unicode="T" horiz-adv-x="1101" d="M156 971l186 418q54 -16 83 -19.5t118 -3.5h483q76 0 116 4.5t101 18.5l-16 -435l-60 -6q-15 178 -83.5 264t-196.5 88l-352 -1230l141 -9l-19 -61h-462l16 61l131 7l354 1232q-274 0 -481 -352z" />
<glyph unicode="U" horiz-adv-x="1302" d="M174 283q0 58 9 99t65 232l196 684l-102 7l16 61h426l-16 -61l-133 -7l-205 -716q-43 -153 -54 -205t-11 -103q0 -97 74.5 -159t191.5 -62q266 0 377 385l157 549q39 132 45.5 161t6.5 58q0 48 -32 70t-116 29l18 61h390l-21 -61q-40 -10 -57 -14t-40.5 -22.5t-31 -29 t-26 -57t-28.5 -81t-36 -124.5q-1 -5 -2 -8l-154 -531q-31 -107 -79 -198t-103 -146q-59 -59 -148.5 -92t-189.5 -33q-167 0 -277 89.5t-110 224.5z" />
<glyph unicode="V" horiz-adv-x="1167" d="M217 1305l16 61h402l-19 -61l-108 -7l31 -1089l514 858q54 90 65.5 115t11.5 51q0 66 -129 72l19 61h389l-18 -61q-33 -4 -50.5 -7t-40 -15.5t-35 -24t-38 -45.5t-46 -67.5t-61.5 -101.5l-571 -940l20 -118l-207 -13l-47 1325z" />
<glyph unicode="W" horiz-adv-x="1695" d="M238 1305l18 61h377l-19 -61l-102 -7l-41 -1077l514 934l-6 166l195 51l-44 -1136l461 829q49 87 60.5 113t11.5 51q0 37 -27.5 53.5t-99.5 22.5l18 61h383l-18 -61q-87 -20 -131.5 -66t-134.5 -205l-520 -930l10 -118l-189 -11l39 1055l-518 -932l8 -112l-190 -11 l39 1323z" />
<glyph unicode="X" horiz-adv-x="1206" d="M-109 0l19 61q99 17 151 56t185 194l340 394l-207 593l-100 7l16 61h414l-17 -61l-114 -7l155 -471l262 301q57 66 66.5 80.5t9.5 36.5q0 57 -125 60l17 61h434l-17 -61q-43 -5 -62 -7.5t-47 -12.5t-41.5 -19.5t-44.5 -37.5t-55.5 -56t-74.5 -85l-291 -333l231 -686 l101 -7l-19 -61h-403l16 61l109 7l-181 561l-311 -359q-63 -72 -78.5 -95t-15.5 -46q0 -29 28.5 -43t106.5 -25l-16 -61h-441z" />
<glyph unicode="Y" horiz-adv-x="1155" d="M211 1305l18 61h402l-17 -61l-112 -7l184 -618l350 438q36 45 49 68t13 41q0 72 -137 78l18 61h418l-17 -61q-37 -9 -54 -13t-41.5 -16t-37 -22t-38.5 -36.5t-48 -53.5t-63 -79l-375 -475l-156 -542l129 -7l-18 -61h-426l18 61l107 7l149 522l-217 708z" />
<glyph unicode="Z" horiz-adv-x="1116" d="M-59 0l20 68l1057 1230h-127q-140 0 -208 -16t-151 -68q-67 -41 -122 -92.5t-129 -142.5l-54 22l205 383q63 -14 96 -16t168 -2h559l-20 -68l-1047 -1230h136q125 0 177.5 6.5t110.5 29.5q99 39 180 109.5t195 212.5l51 -20l-207 -420q-59 11 -89 12.5t-156 1.5h-645z " />
<glyph unicode="[" horiz-adv-x="589" d="M-88 -354l516 1802h344l-16 -55q-136 -10 -181 -31q-34 -20 -49.5 -56t-62.5 -202l-320 -1114q-53 -187 -53 -217q0 -35 34 -49t146 -23l-14 -55h-344z" />
<glyph unicode="\" horiz-adv-x="907" d="M289 1448h76l333 -1802h-75z" />
<glyph unicode="]" horiz-adv-x="589" d="M-143 -354l16 55q135 10 180 31q19 11 27.5 19t22 38.5t25.5 69.5t38 131l319 1114q54 191 54 217q0 35 -34.5 49t-146.5 23l15 55h344l-516 -1802h-344z" />
<glyph unicode="^" horiz-adv-x="1024" d="M104 682l453 752h18l453 -752h-127l-301 512l-301 -512h-195z" />
<glyph unicode="_" horiz-adv-x="1024" d="M0 -147h1024v-117h-1024v117z" />
<glyph unicode="`" horiz-adv-x="1024" d="M358 1266q0 34 22 58t54 24q29 0 48.5 -11.5t78.5 -66.5l193 -176l-13 -29l-233 84q-75 28 -102 43q-48 28 -48 74z" />
<glyph unicode="a" horiz-adv-x="1005" d="M49 264q0 137 67.5 274t188.5 242q204 183 412 183q101 0 168 -41.5t67 -104.5q0 -29 -16 -50.5t-53 -41.5l-103 -356q-38 -134 -44.5 -160t-6.5 -51t12.5 -40.5t32.5 -15.5q28 0 92 64l21 -53q-91 -127 -197 -127q-52 0 -85.5 40t-33.5 103q0 27 11 78 q-52 -102 -134.5 -164.5t-164.5 -62.5q-100 0 -167 81.5t-67 202.5zM219 279q0 -78 33.5 -128.5t85.5 -50.5q54 0 113 43t141 140l110 389q31 106 31 133q0 34 -24 55t-64 21q-83 0 -173 -70t-153 -184q-41 -75 -70.5 -177t-29.5 -171z" />
<glyph unicode="b" horiz-adv-x="952" d="M72 186q0 41 11.5 95t51.5 192l193 672q28 93 28 117q0 47 -61 47q-21 0 -64 -11l21 74l348 103q-47 -115 -90 -265l-113 -395q60 77 120 112.5t130 35.5q107 0 177.5 -85.5t70.5 -215.5q0 -120 -52.5 -245.5t-134.5 -222.5t-187.5 -159t-205.5 -62q-107 0 -175 59.5 t-68 153.5zM223 158q0 -51 32 -84t83 -33q70 0 142.5 60.5t129.5 166.5q48 89 78.5 198t30.5 193q0 82 -40 132.5t-106 50.5q-46 0 -90 -23.5t-108 -81.5l-99 -344q-53 -182 -53 -235z" />
<glyph unicode="c" horiz-adv-x="878" d="M68 330q0 115 55.5 238.5t148.5 215.5q179 179 398 179q101 0 167 -42t66 -106q0 -40 -31.5 -70t-72.5 -30q-44 0 -77.5 33t-43.5 88q-6 33 -16 46t-29 13q-54 0 -113.5 -39t-109.5 -106q-72 -98 -112 -209.5t-40 -214.5q0 -109 58 -178.5t149 -69.5q135 0 285 141 l24 -61q-169 -178 -373 -178q-148 0 -240.5 97.5t-92.5 252.5z" />
<glyph unicode="d" horiz-adv-x="1026" d="M57 274q0 98 30 200t82.5 188t118.5 154.5t143.5 107.5t152.5 39q43 0 74 -10.5t58 -33t56 -63.5l96 332q15 53 18 66t3 26q0 39 -60 39q-13 0 -59 -6l18 71l332 91l-26 -74q-34 -114 -74 -251t-71 -247t-72.5 -255t-71.5 -249q-29 -100 -40.5 -147.5t-13 -58.5t-1.5 -35 q0 -23 12 -39.5t29 -16.5q41 0 96 66l26 -59q-37 -59 -93.5 -95.5t-110.5 -36.5q-55 0 -88 38.5t-33 101.5q0 39 16 104q-125 -241 -313 -241q-104 0 -169 81t-65 213zM231 283q0 -82 38.5 -131.5t101.5 -49.5q61 0 125.5 57t121.5 160l72 252q47 168 47 195q0 51 -43.5 86 t-105.5 35q-134 0 -232 -168q-54 -89 -89.5 -213.5t-35.5 -222.5z" />
<glyph unicode="e" horiz-adv-x="915" d="M59 309q0 116 54 235.5t139.5 211t197 149.5t220.5 58q91 0 145.5 -48.5t54.5 -128.5q0 -146 -174 -274q-107 -77 -323 -168l-140 -57q23 -88 76.5 -134.5t132.5 -46.5q64 0 136.5 35.5t181.5 120.5l31 -69q-227 -213 -422 -213q-137 0 -223.5 91.5t-86.5 237.5zM225 358 l103 48q99 45 152 75.5t110 77.5q55 44 88 104.5t33 116.5q0 38 -31 66t-74 28q-84 0 -171 -75.5t-145.5 -196.5t-64.5 -244z" />
<glyph unicode="f" horiz-adv-x="557" d="M41 0q43 101 90 266l166 586h-121l27 90h121l30 102q56 186 171.5 307.5t236.5 121.5q60 0 102.5 -31.5t42.5 -77.5q0 -35 -30 -63.5t-68 -28.5q-41 0 -74 26q-9 5 -49 62q-9 12 -18 12q-38 0 -84.5 -92t-77.5 -225l-27 -113h160l-25 -90h-153l-172 -600 q-39 -134 -39 -252h-209z" />
<glyph unicode="g" horiz-adv-x="980" d="M-70 -242q0 40 30.5 69.5t70.5 29.5q44 0 82 -36.5t47 -88.5q5 -29 13 -37t36 -8q120 0 207 82.5t131 240.5l41 146q-126 -176 -279 -176q-110 0 -180 87.5t-70 225.5q0 157 81 314t209 256.5t257 99.5t215 -89l187 113q-57 -154 -72.5 -199.5t-38.5 -125.5l-137 -476 q-52 -181 -89.5 -261.5t-97.5 -145.5q-75 -78 -175.5 -122t-204.5 -44q-117 0 -190 40t-73 105zM238 299q0 -89 40.5 -144t106.5 -55q89 0 168 82q38 40 56 77.5t44 127.5l74 254q29 104 29 127q0 52 -44 86.5t-110 34.5q-145 0 -252 -201q-50 -94 -81 -202t-31 -187z" />
<glyph unicode="h" horiz-adv-x="1081" d="M18 0q45 93 99 276l245 859q29 103 29 129q0 47 -76 47q-26 0 -49 -4l21 69l356 99q-35 -78 -53.5 -131.5t-52.5 -174.5l-131 -458q153 252 348 252q88 0 147.5 -58.5t59.5 -144.5q0 -41 -10 -80t-56 -174l-80 -234q-29 -86 -29 -110q0 -18 12 -31.5t29 -13.5 q42 0 115 73l27 -63q-83 -87 -130.5 -117t-103.5 -30q-55 0 -90 38.5t-35 100.5q0 36 12.5 81t57.5 173l82 231q23 62 28 82t5 47q0 47 -31 78t-78 31q-50 0 -112 -41.5t-123 -114.5q-46 -57 -78.5 -127.5t-65.5 -187.5l-41 -144q-33 -108 -47 -227h-201z" />
<glyph unicode="i" horiz-adv-x="591" d="M104 117q0 53 46 182l120 350q21 62 21 80q0 23 -18 38t-44 15q-21 0 -73 -14l22 82l318 113q6 -44 6 -66q0 -39 -10 -79t-46 -144l-135 -387q-39 -110 -39 -144q0 -21 12 -37t27 -16q43 0 121 72l25 -68q-118 -121 -217 -121q-58 0 -97 41t-39 103zM385 1241q0 49 36 84 t87 35q47 0 81 -35t34 -84q0 -47 -37 -83t-86 -36q-46 0 -80.5 36t-34.5 83z" />
<glyph unicode="j" horiz-adv-x="505" d="M-289 -297q0 43 32 75t75 32q36 0 58.5 -16.5t49.5 -61.5q6 -15 17 -15q45 0 96 179l221 772q12 44 12 65q0 51 -71 51q-33 0 -70 -12l23 76l374 119q-76 -199 -139 -420l-137 -477q-57 -198 -178.5 -330.5t-245.5 -132.5q-50 0 -83.5 27.5t-33.5 68.5zM354 1249 q0 53 34 87t87 34q49 0 82 -33.5t33 -83.5q0 -49 -34.5 -83.5t-84.5 -34.5q-51 0 -84 32t-33 82z" />
<glyph unicode="k" horiz-adv-x="993" d="M20 0q40 106 103 324l237 827q1 4 3.5 11t6.5 18.5t7 21.5q12 38 12 64q0 49 -59 49q-18 0 -62 -8l21 73l340 95q-45 -112 -99 -301l-194 -678q232 260 360 367.5t203 107.5q47 0 80 -31.5t33 -75.5q0 -43 -33 -73.5t-80 -30.5q-43 0 -88 33q-25 22 -37 22 q-20 0 -90 -57.5t-115 -112.5q45 -29 66.5 -64t30.5 -98t10 -186q1 -104 15.5 -148.5t45.5 -44.5q46 0 105 84l22 -61q-36 -65 -91 -106t-105 -41q-39 0 -73.5 23.5t-47.5 59.5q-28 74 -25 261q3 196 -53 196q-37 0 -99 -77.5t-94 -163.5q-47 -129 -69 -279h-187z" />
<glyph unicode="l" horiz-adv-x="528" d="M66 121q0 41 7.5 76t49.5 184l225 786q14 51 14 76q0 26 -15.5 40.5t-41.5 14.5q-24 0 -76 -12l23 74l358 115q-7 -21 -61 -181q-52 -179 -150 -521t-112 -392q-54 -187 -54 -225q0 -23 13 -37.5t35 -14.5q28 0 56 21t73 74l30 -64q-50 -75 -113.5 -119.5t-123.5 -44.5 q-64 0 -100.5 40.5t-36.5 109.5z" />
<glyph unicode="m" horiz-adv-x="1593" d="M88 0q40 88 86 240l94 323q25 85 25 123q0 25 -14 43.5t-33 18.5q-34 0 -90 -62l-31 55l211 224q113 -79 113 -195q0 -38 -9 -90q72 135 159.5 209t174.5 74q75 0 131 -55.5t56 -127.5q0 -18 -11 -71q75 124 161 189t175 65q82 0 133 -56t51 -145q0 -61 -45 -189 l-96 -270q-28 -79 -33.5 -100t-5.5 -41q0 -22 12 -36.5t29 -14.5q45 0 115 73l27 -65q-73 -78 -123.5 -108.5t-104.5 -30.5t-87.5 42t-33.5 109q0 34 11.5 75.5t66.5 194.5l74 209q29 79 29 133q0 43 -25 70t-63 27q-49 0 -104.5 -39.5t-106.5 -110.5q-78 -108 -134 -301 l-51 -180q-38 -128 -43 -209h-196q40 86 82 225l86 301q47 170 50 197q1 9 1 20q0 41 -24 67t-62 26q-49 0 -106 -43.5t-111 -122.5q-37 -53 -61.5 -112t-59.5 -181l-49 -174q-30 -110 -41 -203h-199z" />
<glyph unicode="n" horiz-adv-x="1144" d="M94 0q50 92 82 207l86 303q41 143 41 174q0 26 -14.5 43.5t-36.5 17.5q-28 0 -92 -55l-41 58l207 213q67 -41 93.5 -87.5t26.5 -119.5q0 -40 -10 -101q60 136 163.5 223t205.5 87q88 0 143.5 -57t55.5 -148q0 -36 -10 -73t-48 -150l-92 -273q-27 -79 -27 -106 q0 -25 12.5 -40.5t34.5 -15.5q21 0 44.5 16t70.5 62l29 -63q-68 -75 -116 -105t-103 -30q-59 0 -98 45t-39 112q0 56 59 223l92 267q29 86 29 116q0 41 -28 69t-69 28q-96 0 -213 -142q-52 -63 -80 -126.5t-73 -225.5l-49 -176q-30 -116 -35 -170h-201z" />
<glyph unicode="o" horiz-adv-x="1013" d="M72 348q0 115 45 228t118 198t170 138t195 53q152 0 247 -105t95 -272q0 -101 -47 -219t-121 -203q-78 -89 -175 -137.5t-198 -48.5q-149 0 -239 100.5t-90 267.5zM238 242q0 -85 46 -136t124 -51q92 0 155 59t117 193q38 91 64 201.5t26 175.5q0 98 -43 150.5t-125 52.5 q-85 0 -146 -52.5t-112 -168.5q-44 -103 -75 -226t-31 -198z" />
<glyph unicode="p" horiz-adv-x="1050" d="M-12 -354q42 114 86 266l184 645q33 125 33 150q0 20 -10 32.5t-25 12.5q-18 0 -34.5 -10.5t-47.5 -41.5q-4 -2 -24 -22l-39 65l241 228q97 -78 97 -193q0 -14 -9 -51q38 67 63 100.5t58 61.5q80 74 184 74q107 0 173.5 -87t66.5 -227q0 -160 -76 -316.5t-197 -254.5 t-245 -98q-115 0 -188 73l-60 -209q-8 -26 -20.5 -91.5t-16.5 -106.5h-194zM313 168q0 -48 43 -84.5t101 -36.5q166 0 268 248q82 200 82 348q0 92 -37 145.5t-100 53.5q-86 0 -174 -121q-29 -41 -45 -80t-43 -131l-62 -213q-3 -13 -7 -26.5t-5.5 -19.5t-1.5 -7 q-19 -58 -19 -76z" />
<glyph unicode="q" horiz-adv-x="978" d="M59 283q0 124 47.5 249t124 219t177.5 153t202 59q124 0 189 -80l217 114q-64 -151 -111 -313l-164 -571q-89 -312 -102 -467h-209q32 75 82 241l76 265q-61 -92 -124.5 -132t-146.5 -40q-115 0 -186.5 84t-71.5 219zM240 291q0 -83 43 -136t112 -53q41 0 88 25.5 t82 67.5q35 39 53.5 80t47.5 143l65 233q17 59 17 113q0 61 -36.5 96t-101.5 35q-140 0 -248 -184q-55 -91 -88.5 -208t-33.5 -212z" />
<glyph unicode="r" horiz-adv-x="782" d="M88 0q36 78 76 205l84 268q16 52 24.5 82t15 56.5t9 43.5t2.5 33q0 28 -11 46t-28 18q-20 0 -42.5 -16t-55.5 -52l-39 55l227 236q61 -57 81 -97.5t20 -109.5q0 -56 -23 -162q52 117 104.5 200t102.5 126t94 43q43 0 71.5 -27.5t28.5 -70.5q0 -54 -35.5 -93t-86.5 -39 q-9 0 -43 7.5t-48 7.5q-46 0 -125.5 -152t-140.5 -352l-33 -109q-19 -70 -26 -147h-203z" />
<glyph unicode="s" horiz-adv-x="780" d="M-27 139q0 44 31.5 74.5t75.5 30.5q52 0 87.5 -41.5t41.5 -108.5q0 -12 2 -28q41 -15 82 -15q97 0 154 45.5t57 122.5q0 46 -24.5 82.5t-82.5 77.5q-90 64 -123.5 92.5t-56.5 60.5q-43 59 -43 142q0 128 102.5 208.5t266.5 80.5q103 0 164 -34t61 -91q0 -42 -29 -70.5 t-71 -28.5q-43 0 -70.5 26t-46.5 83q-7 26 -20.5 34.5t-45.5 8.5q-72 0 -120 -40t-48 -101q0 -48 27.5 -86.5t91.5 -81.5q135 -89 180.5 -148t45.5 -145q0 -71 -35.5 -136t-98.5 -108q-95 -65 -245 -65q-138 0 -224 44t-86 115z" />
<glyph unicode="t" horiz-adv-x="563" d="M80 115q0 35 9.5 74t57.5 208l132 455h-134l27 90h131l74 254l194 113l-104 -367h172l-25 -90h-172l-159 -555q-2 -8 -6 -22q-27 -95 -27 -121q0 -48 39 -48q26 0 52 19.5t89 87.5l25 -76q-127 -157 -252 -157q-53 0 -88 38.5t-35 96.5z" />
<glyph unicode="u" horiz-adv-x="1105" d="M119 184q0 40 10.5 82t46.5 150l82 243q21 65 21 89q0 23 -14.5 37t-37.5 14q-26 0 -77 -25l-23 66l311 135q29 -64 29 -119q0 -44 -12 -94.5t-49 -163.5l-78 -233q-27 -82 -33 -105.5t-6 -50.5q0 -48 32.5 -80.5t81.5 -32.5q97 0 203 121q49 57 77 112.5t56 151.5 l74 258q36 132 43 203h195q-29 -66 -44 -108.5t-46 -151.5l-107 -375q-29 -101 -29 -133q0 -28 12.5 -44.5t34.5 -16.5q23 0 45.5 13t67.5 54l27 -63q-66 -76 -111.5 -104.5t-101.5 -28.5q-60 0 -95.5 40t-35.5 109q0 47 20 111q-57 -120 -154.5 -192t-201.5 -72 q-91 0 -152 59t-61 145z" />
<glyph unicode="v" horiz-adv-x="894" d="M94 190q0 49 12.5 93t63.5 182l68 180q26 73 26 105q0 22 -13.5 36.5t-35.5 14.5q-30 0 -74 -25l-22 64l307 135q33 -77 33 -131q0 -37 -11 -76.5t-49 -140.5l-82 -217q-61 -161 -61 -220q0 -46 28 -78t68 -32q75 0 165.5 90.5t162.5 239.5q41 83 67.5 166t26.5 129 q0 14 -6 21t-27 19q-31 17 -50 52.5t-19 74.5q0 49 29.5 82t72.5 33q48 0 76.5 -40t28.5 -109q0 -94 -39.5 -228t-100.5 -248q-95 -178 -216.5 -280t-235.5 -102q-83 0 -138 59.5t-55 150.5z" />
<glyph unicode="w" horiz-adv-x="1353" d="M86 180q0 44 13.5 97t50.5 155l77 215q27 73 27 103q0 19 -11 31t-28 12q-22 0 -76 -29l-22 70l303 139q24 -76 24 -121q0 -41 -9.5 -80.5t-39.5 -124.5l-100 -285q-41 -118 -41 -165t25.5 -80t60.5 -33q82 0 174 107.5t133 250.5l90 308q22 83 41 157q0 2 1 7t2.5 13 t2.5 15h193q-56 -126 -90 -242l-84 -286q-34 -120 -40.5 -148.5t-6.5 -60.5q0 -51 26.5 -84t67.5 -33q54 0 121.5 65t130.5 177q48 87 87.5 202.5t39.5 169.5q0 15 -31 39q-29 22 -46 56t-17 71q0 46 30.5 79.5t71.5 33.5q46 0 74 -38t28 -99q0 -94 -49 -254t-114 -281 q-44 -79 -100.5 -149t-110.5 -113q-87 -67 -174 -67q-78 0 -131.5 53t-53.5 131q0 33 12 80q-55 -118 -150 -191t-192 -73q-80 0 -135 57.5t-55 142.5z" />
<glyph unicode="x" horiz-adv-x="944" d="M-90 84q0 38 30 68t68 30q56 0 98 -39q18 -18 31 -18q11 0 37 25t55 63q46 57 166 268l-28 148q-15 74 -45 119t-64 45q-17 0 -33 -9t-59 -41l-29 62l217 170q70 -39 103 -92t57 -170l21 -101q119 206 194.5 285.5t153.5 79.5q51 0 83.5 -27.5t32.5 -70.5t-30.5 -74 t-73.5 -31q-49 0 -90 41q-14 14 -23 14q-22 0 -103 -112.5t-122 -200.5l66 -293q24 -106 79 -106q25 0 49 17.5t58 60.5l29 -68q-62 -77 -106.5 -107t-98.5 -30q-40 0 -74.5 23.5t-56.5 66.5q-17 31 -24.5 53.5t-20.5 89.5l-35 168q-66 -132 -152 -244q-67 -89 -124 -128 t-117 -39q-50 0 -84.5 30t-34.5 74z" />
<glyph unicode="y" horiz-adv-x="983" d="M-55 -242q0 42 29.5 71.5t72.5 29.5q45 0 81 -35.5t42 -87.5q3 -26 13 -33.5t40 -7.5q120 0 204 90.5t138 275.5l43 150q-137 -231 -311 -231q-84 0 -143.5 59t-59.5 143q0 48 16.5 106t61.5 171l74 184q26 66 26 96q0 58 -57 58q-21 0 -68 -17l-20 68l307 129 q33 -67 33 -129q0 -32 -13 -74.5t-59 -163.5l-102 -266q-35 -89 -35 -141q0 -46 29 -75.5t73 -29.5q98 0 199 131q50 62 78.5 122t56.5 159l66 233q34 117 45 199h203q-64 -124 -113 -299l-168 -590q-38 -136 -104 -220.5t-179 -143.5q-122 -64 -254 -64q-110 0 -177.5 36.5 t-67.5 96.5z" />
<glyph unicode="z" horiz-adv-x="935" d="M-4 43q0 47 37.5 113.5t103.5 134.5q70 75 167.5 148t307.5 210q95 63 139 95.5t83 68.5q-38 -23 -69 -35.5t-60 -18t-64 -5.5q-32 0 -53.5 5t-85.5 27q-76 27 -127 27t-81.5 -21.5t-84.5 -93.5l-14 -18l-52 39q65 120 148.5 184t177.5 64q99 0 244 -66q24 -11 39.5 -18 t29 -11.5t23.5 -6t20 -1.5q12 0 19.5 5.5t7.5 13.5q0 1 -10.5 21.5t-10.5 27.5q0 15 13.5 26t32.5 11q51 0 51 -56q0 -49 -44.5 -111t-140.5 -151q-78 -73 -144 -121.5t-312 -212.5q-80 -54 -114 -83.5t-87 -86.5q53 34 88 47t76 13q56 0 143 -17q129 -28 158 -33t61 -5 q61 0 91.5 21.5t76.5 96.5l54 -32q-57 -127 -136 -192.5t-174 -65.5q-60 0 -107.5 18.5t-137.5 75.5q-80 49 -125 49q-26 0 -53 -12.5t-27 -24.5q0 -2 14 -20q12 -15 12 -33q0 -22 -15.5 -37.5t-35.5 -15.5q-22 0 -37.5 18.5t-15.5 44.5z" />
<glyph unicode="{" horiz-adv-x="692" d="M78 -176q0 54 23.5 148t84.5 288q54 167 54 234q0 65 -26 92.5t-95 34.5l16 55q61 3 106 18t60 37q19 27 27.5 47t21.5 70q28 104 68 254q38 143 53 182.5t45 73.5q45 54 109.5 72t205.5 18h21l-16 -57q-100 0 -155 -35t-87 -121q-10 -28 -26.5 -83t-48 -167.5 t-56.5 -196.5q-41 -132 -199 -157l-2 -8q47 -12 73.5 -50t26.5 -94q0 -43 -14 -101t-78 -272q-39 -136 -50 -182t-11 -82q0 -68 37.5 -105.5t105.5 -33.5l35 2l-16 -59l-11 2l-86 4q-103 5 -149.5 45.5t-46.5 126.5z" />
<glyph unicode="|" horiz-adv-x="1024" d="M481 -342v1708h170v-1708h-170z" />
<glyph unicode="}" horiz-adv-x="692" d="M-119 -354l17 57q101 0 156 34.5t85 121.5q14 39 31.5 99t48 167t51.5 180q19 65 70.5 105.5t128.5 52.5l2 8q-47 10 -73.5 48.5t-26.5 94.5q0 43 14.5 102.5t77.5 270.5q39 134 50 180.5t11 83.5q0 69 -37.5 106.5t-105.5 33.5l-35 -2l16 59l11 -2l86 -4 q103 -5 149.5 -45.5t46.5 -126.5q0 -54 -23.5 -148t-84.5 -288q-53 -166 -53 -234q0 -65 25.5 -92.5t94.5 -34.5l-16 -55q-137 -7 -166 -56q-20 -24 -27.5 -42.5t-21.5 -73.5q-3 -10 -25.5 -92.5t-42.5 -161.5q-38 -143 -53 -182.5t-45 -73.5q-45 -54 -109.5 -72t-205.5 -18 h-21z" />
<glyph unicode="~" horiz-adv-x="1366" d="M287 1247q155 230 297 230q60 0 194 -47q105 -37 160 -37q124 0 197 100l53 -39q-56 -99 -135 -163t-146 -64q-31 0 -58 7t-159 50q-112 33 -170 33q-106 0 -180 -107z" />
<glyph unicode="&#xa1;" horiz-adv-x="614" d="M10 -166q0 46 18.5 97t118.5 280q98 221 133.5 313.5t88.5 270.5h61q-54 -170 -86.5 -318.5t-75.5 -431.5q-25 -159 -32.5 -194t-26.5 -70q-14 -25 -39.5 -40t-54.5 -15q-46 0 -75.5 30.5t-29.5 77.5zM348 1014q0 50 35 84.5t84 34.5t83 -33.5t34 -83.5q0 -51 -34 -85 t-85 -34q-49 0 -83 33.5t-34 83.5z" />
<glyph unicode="&#xa2;" d="M248 618q0 132 64 261.5t171 214.5q106 83 242 102l53 184h74l-51 -182q85 -8 131 -27t73 -55.5t27 -77.5q0 -43 -28.5 -71.5t-69.5 -28.5q-58 0 -88 53q-13 25 -16 40.5t-3 60.5q0 38 -36 38h-11l-215 -753q30 -6 47 -6q48 0 96 25.5t75.5 51.5t70.5 74l35 -59 q-68 -98 -158 -148.5t-188 -50.5h-11l-75 -264h-74l80 283q-215 84 -215 335zM414 627q0 -73 20.5 -122.5t67.5 -90.5l205 712q-48 -9 -83 -33t-75 -75q-60 -73 -97.5 -182.5t-37.5 -208.5z" />
<glyph unicode="&#xa3;" d="M-98 172q0 101 61 165t158 64q58 0 108 -19t158 -81q25 59 25 123q0 8 -1.5 19.5t-6 57t-9.5 120.5q0 3 -0.5 10t-1.5 20.5t-2 26.5h-211l27 96h186q57 272 230 446.5t385 174.5q90 0 141 -33t51 -90q0 -44 -31 -75.5t-75 -31.5q-49 0 -81 26.5t-52 82.5q-6 20 -15 27.5 t-28 7.5q-63 0 -125 -44t-99 -116q-32 -59 -45.5 -119t-34.5 -223l-4 -33h262l-28 -96h-242q-15 -262 -141 -418q137 -76 248 -76q48 0 95 25.5t75 66.5q26 38 49 103h61q-51 -193 -140 -299.5t-198 -106.5q-60 0 -111.5 32.5t-127.5 119.5l-27 31q-72 -84 -149.5 -129 t-149.5 -45q-85 0 -134.5 51t-49.5 139zM-16 176q0 -53 31.5 -86t80.5 -33q110 0 236 150l-19 18q-99 99 -194 99q-57 0 -96 -43t-39 -105z" />
<glyph unicode="&#xa4;" horiz-adv-x="1366" d="M186 1204l64 64l188 -187q75 59 145.5 85t153.5 26t153 -26t144 -85l189 187l63 -64l-186 -186q106 -138 106 -295q0 -155 -108 -291l190 -190l-63 -64l-191 191q-131 -111 -295 -111q-152 0 -297 107l-186 -187l-63 64l186 186q-111 137 -111 297q0 155 107 291z M379 723q0 -149 105 -256t253 -107q149 0 254 106t105 257t-104.5 259t-250.5 108q-152 0 -257 -106.5t-105 -260.5z" />
<glyph unicode="&#xa5;" d="M193 455l22 77h260l17 58l-19 90h-217l23 76h178l-115 542l-92 7l16 61h365l-17 -61l-106 -7l123 -618l295 438q41 62 49 77.5t8 35.5q0 35 -29.5 53t-95.5 21l16 61h396l-19 -61q-88 -21 -136 -60t-130 -160l-223 -329h207l-23 -76h-235l-47 -68l-23 -80h264l-22 -77 h-265l-110 -387l121 -7l-19 -61h-387l19 61l100 7l111 387h-260z" />
<glyph unicode="&#xa6;" horiz-adv-x="1024" d="M481 313h170v-655h-170v655zM481 655v711h170v-711h-170z" />
<glyph unicode="&#xa7;" horiz-adv-x="1087" d="M-25 -70q0 70 33.5 113t89.5 43q44 0 72.5 -29.5t28.5 -76.5q0 -52 -43 -109q-21 -27 -21 -35q0 -43 78.5 -81t167.5 -38q125 0 204 67t79 173q0 78 -53.5 127t-200.5 106q-77 29 -119.5 56.5t-69.5 64.5q-53 74 -53 164q0 79 38.5 161t104.5 140q41 36 123 82 q-49 41 -70.5 88.5t-21.5 114.5q0 166 129 277.5t320 111.5q148 0 246 -75t98 -189q0 -62 -37.5 -107t-89.5 -45q-41 0 -69 29.5t-28 73.5q0 40 31 98q16 33 16 49q0 38 -50.5 64t-125.5 26q-113 0 -189.5 -65t-76.5 -162q0 -74 59 -119q30 -21 170 -80q242 -102 242 -299 q0 -222 -229 -399q78 -89 78 -191q0 -69 -29.5 -142.5t-79.5 -127.5q-63 -69 -155 -106t-201 -37q-173 0 -284.5 80t-111.5 204zM330 561q0 -83 71 -131q12 -9 32.5 -18.5t115.5 -49.5q20 -8 127 -61l33 -14q58 51 93.5 123t35.5 137q0 40 -17 80t-45 63q-41 33 -137 72 l-145 61q-164 -111 -164 -262z" />
<glyph unicode="&#xa8;" horiz-adv-x="1024" d="M430 1196q0 43 31 73.5t74 30.5q41 0 72.5 -31.5t31.5 -72.5t-31.5 -72.5t-72.5 -31.5q-43 0 -74 30.5t-31 73.5zM770 1192q0 43 32 74.5t75 31.5t71.5 -30t28.5 -76q0 -41 -30 -70.5t-73 -29.5q-42 0 -73 30t-31 70z" />
<glyph unicode="&#xa9;" horiz-adv-x="1583" d="M137 682q0 195 95.5 358.5t261 258t362.5 94.5q188 0 349.5 -96t256 -260t94.5 -355q0 -143 -56.5 -274.5t-151.5 -226.5t-226 -151.5t-274 -56.5q-192 0 -356 95.5t-259.5 259t-95.5 354.5zM205 682q0 -175 86.5 -323.5t234.5 -235t322 -86.5t321.5 86.5t233.5 235 t86 323.5q0 130 -51 250t-136.5 207t-203 138.5t-244.5 51.5q-134 0 -254 -50.5t-206.5 -137t-137.5 -206.5t-51 -253zM424 573q0 101 40 200.5t104.5 174t151 120.5t175.5 46q36 0 54 -3t81 -21q24 -7 35 -7q7 0 59 17l37 12l15 -266h-60q-73 209 -225 209 q-54 0 -104 -27.5t-87 -77.5q-54 -75 -88 -185.5t-34 -211.5q0 -96 58.5 -156.5t151.5 -60.5q78 0 141 44t130 146l53 -28q-34 -58 -46 -74.5t-38 -42.5q-122 -125 -291 -125q-136 0 -224.5 89.5t-88.5 227.5z" />
<glyph unicode="&#xaa;" horiz-adv-x="690" d="M82 614l20 68h605l-21 -68h-604zM233 977q0 71 34.5 144.5t89.5 129.5t127 91.5t143 35.5q60 0 100.5 -25.5t40.5 -62.5q0 -38 -41 -55l-59 -201q-29 -100 -29 -116q0 -27 20 -27q14 0 56 39l16 -41q-56 -76 -121 -76q-31 0 -52 23t-21 55q0 14 2 22q-47 -58 -84 -81 t-82 -23q-59 0 -99.5 49t-40.5 119zM344 985q0 -42 18 -69t46 -27q56 0 141 100l63 219q19 64 19 74q0 18 -12 28.5t-33 10.5q-84 0 -163 -110t-79 -226z" />
<glyph unicode="&#xab;" horiz-adv-x="671" d="M61 479l277 324h65l-204 -324l28 -315h-57zM313 485l273 318h67l-204 -324l28 -315h-53z" />
<glyph unicode="&#xac;" horiz-adv-x="1024" d="M137 436v111h860v-547h-184v436h-676z" />
<glyph unicode="&#xad;" horiz-adv-x="438" d="M-25 389l50 168h438l-49 -168h-439z" />
<glyph unicode="&#xae;" horiz-adv-x="1583" d="M137 682q0 195 95.5 358.5t261 258t362.5 94.5q188 0 349.5 -96t256 -260t94.5 -355q0 -143 -56.5 -274.5t-151.5 -226.5t-226 -151.5t-274 -56.5q-192 0 -356 95.5t-259.5 259t-95.5 354.5zM205 682q0 -175 86.5 -323.5t234.5 -235t322 -86.5t321.5 86.5t233.5 235 t86 323.5q0 130 -51 250t-136.5 207t-203 138.5t-244.5 51.5q-134 0 -254 -50.5t-206.5 -137t-137.5 -206.5t-51 -253zM416 272l14 52l68 4l204 710l-81 4l16 54h211q139 0 183 -4.5t91 -22.5q59 -22 92 -68t33 -106q0 -76 -57 -137.5t-141 -73.5l-60 -8h-2l111 -346l71 -4 l-14 -54h-180l-125 396h-115l-98 -338l82 -4l-17 -54h-286zM752 729q51 -4 106 -4q88 0 130.5 11.5t74.5 43.5q47 47 47 125q0 72 -47 104.5t-152 32.5q-32 0 -69 -2z" />
<glyph unicode="&#xaf;" horiz-adv-x="1024" d="M438 1135l31 108h522l-30 -108h-523z" />
<glyph unicode="&#xb0;" horiz-adv-x="770" d="M289 1094q0 114 80.5 193t197.5 79q109 0 189 -81t80 -191q0 -114 -80.5 -194.5t-194.5 -80.5t-193 80.5t-79 194.5zM385 1094q0 -74 52.5 -126.5t125.5 -52.5q72 0 124 52.5t52 124.5t-52 125t-122 53q-75 0 -127.5 -51.5t-52.5 -124.5z" />
<glyph unicode="&#xb1;" d="M152 102v99h809v-99h-809zM152 647v98h350v359h102v-359h357v-98h-357v-356h-102v356h-350z" />
<glyph unicode="&#xb2;" horiz-adv-x="681" d="M82 545l20 71q50 65 118.5 122.5t215.5 156.5q98 67 151.5 149.5t53.5 165.5q0 54 -35 88.5t-88 34.5q-44 0 -84.5 -21t-40.5 -44q0 -10 6 -25q15 -35 15 -57q0 -34 -22 -57t-54 -23t-54 22t-22 54q0 81 80.5 144t183.5 63q106 0 177 -64t71 -158q0 -117 -106 -204 q-31 -25 -57.5 -41.5t-149.5 -87.5q-149 -85 -242 -175h168q96 0 143.5 24.5t98.5 100.5l51 -14l-125 -242q-30 12 -46 14.5t-79 2.5h-348z" />
<glyph unicode="&#xb3;" horiz-adv-x="681" d="M102 680q0 34 22 57t54 23q31 0 53.5 -22.5t22.5 -53.5q0 -17 -5 -31.5t-20 -42.5v-2q0 -9 32.5 -18.5t60.5 -9.5q91 0 147.5 65.5t56.5 171.5q0 59 -31.5 103.5t-74.5 44.5q-11 0 -35.5 -5.5t-30.5 -5.5q-13 0 -24 10.5t-11 24t12 24.5t27 11q12 0 39 -7l27 -7 q72 0 124 60t52 144q0 51 -32.5 85t-78.5 34q-36 0 -62 -13t-26 -32q0 -10 3.5 -31t3.5 -30q0 -31 -22.5 -53.5t-53.5 -22.5q-29 0 -49.5 20t-20.5 48q0 67 71.5 118.5t164.5 51.5q103 0 169 -53t66 -136q0 -75 -62 -137t-157 -82q-6 0 -10 -2q71 -19 117.5 -75t46.5 -122 q0 -107 -96.5 -182.5t-231.5 -75.5q-103 0 -170.5 44.5t-67.5 111.5z" />
<glyph unicode="&#xb4;" horiz-adv-x="1024" d="M571 1094l193 174q63 57 81 68.5t46 11.5q32 0 54 -24t22 -58q0 -49 -45 -74q-25 -14 -105 -43l-229 -84z" />
<glyph unicode="&#xb5;" horiz-adv-x="1024" d="M-80 -309q0 35 29 123q99 311 151 491l7 21l13.5 40.5l16.5 49.5l84 243q21 59 21 89q0 23 -14.5 37t-37.5 14q-28 0 -79 -25l-23 66l311 135q31 -63 31 -119q0 -45 -11 -91.5t-50 -166.5l-78 -233q-4 -11 -10 -29q-29 -89 -31 -113v-14q0 -48 33 -80.5t82 -32.5 q96 0 202 121q50 56 78.5 112t56.5 152l74 258q33 120 41 203h195q-29 -66 -44 -108.5t-46 -151.5l-107 -375q-27 -100 -27 -133q0 -28 13 -44.5t35 -16.5q23 0 44.5 13t65.5 54l27 -63q-66 -77 -111 -105t-100 -28q-60 0 -95.5 40t-35.5 109q0 47 20 111 q-57 -120 -154.5 -192t-203.5 -72q-105 0 -178 90q-29 -98 -29 -158q0 -27 20 -123q3 -15 3 -31q0 -54 -36 -94.5t-85 -40.5q-32 0 -50 18t-18 50z" />
<glyph unicode="&#xb6;" horiz-adv-x="1146" d="M231 -190l21 67l158 14l219 760q-31 -4 -62 -4q-135 0 -207.5 68t-72.5 194q0 108 41.5 213.5t107.5 163.5q55 49 126.5 64.5t246.5 15.5h483l-20 -70l-142 -14l-399 -1391l141 -14l-18 -67h-623zM461 868q0 -73 37 -110.5t110 -34.5l41 2l160 557q-37 6 -55 6 q-182 0 -236 -182l-47 -162q-10 -42 -10 -76zM494 -109q21 -9 33.5 -11.5t43.5 -2.5q44 0 80 14l400 1391q-31 14 -82 14q-42 0 -76 -14z" />
<glyph unicode="&#xb7;" horiz-adv-x="477" d="M119 475q0 53 34.5 87t86.5 34q51 0 85.5 -36t34.5 -89q0 -47 -36.5 -82t-85.5 -35q-51 0 -85 34.5t-34 86.5z" />
<glyph unicode="&#xb8;" horiz-adv-x="1024" d="M207 -295q0 19 13 32t30 13q22 0 32 -10.5t25 -48.5q5 -11 20.5 -18t34.5 -7q40 0 69.5 26.5t29.5 63.5q0 64 -86 64q-25 0 -45 -4l65 184h60l-47 -129q161 -3 161 -113q0 -61 -55.5 -101t-140.5 -40q-74 0 -120 24t-46 64z" />
<glyph unicode="&#xb9;" horiz-adv-x="681" d="M137 547l15 51l172 12q13 48 73 260.5t92 327.5q11 33 11 47q0 11 -6.5 19.5t-18 13t-26.5 4.5q-29 0 -130 -16l17 59q124 25 205 43q69 14 129 27q-39 -122 -70 -232l-158 -555l140 -10l-15 -51h-430z" />
<glyph unicode="&#xba;" horiz-adv-x="690" d="M82 614l20 68h605l-21 -68h-604zM258 1024q0 135 96.5 244.5t216.5 109.5q89 0 146 -61t57 -158q0 -87 -45.5 -168.5t-120 -131.5t-153.5 -50q-89 0 -143 59t-54 156zM365 965q0 -46 25.5 -73.5t68.5 -27.5q51 0 86.5 33t66.5 107q22 52 37 113.5t15 96.5 q0 52 -24.5 80.5t-68.5 28.5q-47 0 -81.5 -29t-63.5 -94q-26 -56 -43.5 -124.5t-17.5 -110.5z" />
<glyph unicode="&#xbb;" horiz-adv-x="671" d="M20 164l205 323l-28 316h53l110 -322l-272 -317h-68zM270 164l205 323l-29 316h58l108 -316l-276 -323h-66z" />
<glyph unicode="&#xbc;" horiz-adv-x="1650" d="M137 547l15 51l172 12q13 48 73 260.5t92 327.5q11 33 11 47q0 11 -6.5 19.5t-18 13t-26.5 4.5q-29 0 -130 -16l17 59q124 25 205 43q69 14 129 27q-39 -122 -70 -232l-158 -555l140 -10l-15 -51h-430zM334 0l1005 1366h95l-1006 -1366h-94zM938 190l23 82 q134 109 262 279t168 289h174q-60 -108 -228.5 -287t-320.5 -297h264l66 229q12 10 19.5 16.5t15 14.5t11.5 12t15 16.5t18 20.5l95 107l-119 -416h119l-19 -66h-119l-36 -131l84 -6l-15 -53h-305l14 55l101 4l37 131h-324z" />
<glyph unicode="&#xbd;" horiz-adv-x="1650" d="M137 547l15 51l172 12q13 48 73 260.5t92 327.5q11 33 11 47q0 11 -6.5 19.5t-18 13t-26.5 4.5q-29 0 -130 -16l17 59q124 25 205 43q69 14 129 27q-39 -122 -70 -232l-158 -555l140 -10l-15 -51h-430zM334 0l1005 1366h95l-1006 -1366h-94zM901 0l21 72q49 64 116 120.5 t215 157.5q105 73 148 142q25 38 41 87t16 85q0 54 -35 88t-88 34q-29 0 -58 -9.5t-48 -25t-19 -30.5q0 -7 7 -25q16 -31 16 -57q0 -34 -22 -57t-56 -23q-32 0 -54 22t-22 54q0 53 37 101.5t98.5 77t128.5 28.5q106 0 177 -63.5t71 -157.5q0 -114 -106 -203 q-30 -26 -56 -42.5t-130 -75.5l-4.5 -3t-4.5 -2.5t-5.5 -3t-4.5 -2.5q-92 -55 -146 -93.5t-98 -80.5h170q96 0 143.5 24.5t98.5 100.5l51 -17l-125 -239q-29 12 -45 14t-80 2h-348z" />
<glyph unicode="&#xbe;" horiz-adv-x="1650" d="M102 680q0 34 22 57t54 23q31 0 53.5 -22.5t22.5 -53.5q0 -17 -5 -31.5t-20 -42.5v-2q0 -9 32.5 -18.5t60.5 -9.5q91 0 147.5 65.5t56.5 171.5q0 59 -31.5 103.5t-74.5 44.5q-11 0 -35.5 -5.5t-30.5 -5.5q-13 0 -24 10.5t-11 24t12 24.5t27 11q12 0 39 -7l27 -7 q72 0 124 60t52 144q0 51 -32.5 85t-78.5 34q-36 0 -62 -13t-26 -32q0 -10 3.5 -31t3.5 -30q0 -31 -22.5 -53.5t-53.5 -22.5q-29 0 -49.5 20t-20.5 48q0 67 71.5 118.5t164.5 51.5q103 0 169 -53t66 -136q0 -75 -62 -137t-157 -82q-6 0 -10 -2q71 -19 117.5 -75t46.5 -122 q0 -107 -96.5 -182.5t-231.5 -75.5q-103 0 -170.5 44.5t-67.5 111.5zM336 0l1005 1366h95l-1008 -1366h-92zM940 190l23 82q134 109 262 279t168 289h174q-62 -109 -230 -288t-319 -296h264l66 229q35 31 79 80l93 107l-117 -416h119l-19 -66h-119l-36 -131l84 -6l-15 -53 h-305l14 55l101 4l37 131h-324z" />
<glyph unicode="&#xbf;" horiz-adv-x="821" d="M47 121q0 107 56 200t151 146q49 27 104.5 39.5t139.5 15.5l65 232h74l-119 -412q-18 2 -43 2q-135 0 -231.5 -89t-96.5 -214q0 -62 36 -126.5t71 -64.5q7 0 22 15q46 45 72.5 59.5t61.5 14.5q49 0 79.5 -29.5t30.5 -75.5q0 -51 -34 -78.5t-95 -27.5q-133 0 -238.5 120.5 t-105.5 272.5zM559 1016q0 49 34.5 83t84.5 34q51 0 86 -34t35 -83q0 -51 -35 -87t-84 -36q-51 0 -86 35.5t-35 87.5z" />
<glyph unicode="&#xc0;" horiz-adv-x="1206" d="M-109 0l19 61h10q60 0 117 52t133 178l582 956l-21 127l211 17l59 -1321l121 -9l-18 -61h-428l16 61l123 7l-14 368h-461l-102 -170q-58 -98 -58 -137q0 -35 26.5 -51.5t86.5 -16.5h18l-18 -61h-402zM385 512h412l-19 651zM567 1661q0 34 22 57t56 23q23 0 38 -8t87 -56 l213 -145l-8 -31l-242 51q-76 15 -108 29q-58 22 -58 80z" />
<glyph unicode="&#xc1;" horiz-adv-x="1206" d="M-109 0l19 61h10q60 0 117 52t133 178l582 956l-21 127l211 17l59 -1321l121 -9l-18 -61h-428l16 61l123 7l-14 368h-461l-102 -170q-58 -98 -58 -137q0 -35 26.5 -51.5t86.5 -16.5h18l-18 -61h-402zM385 512h412l-19 651zM756 1532l215 145q71 48 86 56t39 8 q34 0 56 -23t22 -57q0 -58 -58 -80q-24 -11 -83 -24q-16 -3 -25 -5l-240 -51z" />
<glyph unicode="&#xc2;" horiz-adv-x="1206" d="M-109 0l19 61h10q60 0 117 52t133 178l582 956l-21 127l211 17l59 -1321l121 -9l-18 -61h-428l16 61l123 7l-14 368h-461l-102 -170q-58 -98 -58 -137q0 -35 26.5 -51.5t86.5 -16.5h18l-18 -61h-402zM385 512h412l-19 651zM594 1538l334 201l237 -201l-10 -37l-248 86 l-297 -86z" />
<glyph unicode="&#xc3;" horiz-adv-x="1206" d="M-109 0l19 61h10q60 0 117 52t133 178l582 956l-21 127l211 17l59 -1321l121 -9l-18 -61h-428l16 61l123 7l-14 368h-461l-102 -170q-58 -98 -58 -137q0 -35 26.5 -51.5t86.5 -16.5h18l-18 -61h-402zM385 512h412l-19 651zM618 1536q38 83 82.5 120.5t104.5 37.5 q29 0 53.5 -5t110.5 -28q46 -12 78 -12q29 0 50 12.5t54 48.5l37 -18q-42 -80 -87.5 -117t-105.5 -37q-34 0 -129 23q-90 24 -112 24q-27 0 -47.5 -15.5t-44.5 -53.5z" />
<glyph unicode="&#xc4;" horiz-adv-x="1206" d="M-109 0l19 61h10q60 0 117 52t133 178l582 956l-21 127l211 17l59 -1321l121 -9l-18 -61h-428l16 61l123 7l-14 368h-461l-102 -170q-58 -98 -58 -137q0 -35 26.5 -51.5t86.5 -16.5h18l-18 -61h-402zM385 512h412l-19 651zM651 1622q0 42 29.5 71t71.5 29 q43 0 74.5 -30.5t31.5 -71.5t-31.5 -72.5t-72.5 -31.5q-42 0 -72.5 31t-30.5 75zM950 1618q0 42 31 72t74 30q42 0 71 -30t29 -74q0 -41 -29.5 -70.5t-70.5 -29.5q-43 0 -74 30.5t-31 71.5z" />
<glyph unicode="&#xc5;" horiz-adv-x="1206" d="M-109 0l19 61h10q60 0 117 52t133 178l582 956l-21 127l211 17l59 -1321l121 -9l-18 -61h-428l16 61l123 7l-14 368h-461l-102 -170q-58 -98 -58 -137q0 -35 26.5 -51.5t86.5 -16.5h18l-18 -61h-402zM385 512h412l-19 651zM729 1663q0 73 50 122.5t124 49.5 q71 0 120.5 -51.5t49.5 -124.5q0 -71 -49.5 -120.5t-120.5 -49.5q-73 0 -123.5 50.5t-50.5 123.5zM813 1659q0 -35 26.5 -61.5t61.5 -26.5t62.5 27.5t27.5 62.5q0 37 -26.5 63.5t-63.5 26.5q-38 0 -63 -26t-25 -66z" />
<glyph unicode="&#xc6;" horiz-adv-x="1933" d="M-137 0l18 61q88 23 129 51t117 117q7 9 22 26t40.5 46t46.5 53l831 944l-55 68h575q241 0 342 37l21 -457h-64q-35 212 -117.5 287.5t-277.5 75.5q-59 0 -180 -11l-154 -538h80q101 0 140 10t79 45q54 48 96 141h62l-146 -505h-67q12 64 12 94q0 74 -45.5 108.5 t-142.5 34.5h-88l-179 -618q107 -7 144 -7q146 0 230 17.5t171 66.5q80 46 139.5 101.5t145.5 165.5l59 -25l-217 -424q-41 23 -76 29t-124 6h-812l17 61l133 7l104 368h-466l-142 -162q-49 -55 -65.5 -82t-16.5 -51q0 -66 140 -80l-19 -61h-440zM469 506h424l207 721z" />
<glyph unicode="&#xc7;" horiz-adv-x="1261" d="M131 481q0 170 64 338t166.5 294.5t239.5 205t276 78.5q55 0 81 -5t129 -34q38 -10 60 -10q9 0 19.5 2t18.5 4.5t27.5 9t32.5 10.5l43 15l12 -420h-65q-56 183 -142.5 269.5t-215.5 86.5q-91 0 -175.5 -49t-146.5 -137q-92 -130 -151.5 -325.5t-59.5 -367.5 q0 -163 94.5 -265.5t245.5 -102.5q126 0 231 75t211 240l62 -35q-95 -182 -247 -284.5t-327 -104.5l-32 -96q56 0 94 -14q29 -12 48 -39.5t19 -57.5q0 -62 -55.5 -102.5t-140.5 -40.5q-75 0 -120.5 24t-45.5 64q0 19 12 32t31 13q22 0 32 -10t25 -49q14 -25 54 -25 q41 0 70.5 27t29.5 65q0 64 -90 64q-19 0 -39 -4l53 151q-194 20 -311 159.5t-117 350.5z" />
<glyph unicode="&#xc8;" horiz-adv-x="1241" d="M-20 0l18 61l106 7l353 1230l-127 7l16 61h701q67 0 106 6t90 23l14 -453h-59q-15 111 -41 176t-72 111q-43 41 -99.5 55t-182.5 14q-57 0 -158 -8l-151 -530h88q97 0 138.5 12t80.5 53q41 41 76 136h67l-147 -508h-66q17 69 17 100q0 37 -16 68.5t-42 46.5 q-37 22 -129 22h-88l-178 -620q147 -7 166 -7q138 0 233 28t187 97q130 95 219 232l57 -25l-209 -428q-49 22 -95.5 27.5t-170.5 5.5h-702zM543 1661q0 34 22 57t56 23q23 0 37 -7.5t87 -56.5l213 -145l-8 -31l-241 51q-78 15 -109 29q-57 22 -57 80z" />
<glyph unicode="&#xc9;" horiz-adv-x="1241" d="M-20 0l18 61l106 7l353 1230l-127 7l16 61h701q67 0 106 6t90 23l14 -453h-59q-15 111 -41 176t-72 111q-43 41 -99.5 55t-182.5 14q-57 0 -158 -8l-151 -530h88q97 0 138.5 12t80.5 53q41 41 76 136h67l-147 -508h-66q17 69 17 100q0 37 -16 68.5t-42 46.5 q-37 22 -129 22h-88l-178 -620q147 -7 166 -7q138 0 233 28t187 97q130 95 219 232l57 -25l-209 -428q-49 22 -95.5 27.5t-170.5 5.5h-702zM705 1532l215 145q71 49 85.5 56.5t38.5 7.5q34 0 56 -23t22 -57q0 -58 -57 -80q-23 -10 -109 -29l-239 -51z" />
<glyph unicode="&#xca;" horiz-adv-x="1241" d="M-20 0l18 61l106 7l353 1230l-127 7l16 61h701q67 0 106 6t90 23l14 -453h-59q-15 111 -41 176t-72 111q-43 41 -99.5 55t-182.5 14q-57 0 -158 -8l-151 -530h88q97 0 138.5 12t80.5 53q41 41 76 136h67l-147 -508h-66q17 69 17 100q0 37 -16 68.5t-42 46.5 q-37 22 -129 22h-88l-178 -620q147 -7 166 -7q138 0 233 28t187 97q130 95 219 232l57 -25l-209 -428q-49 22 -95.5 27.5t-170.5 5.5h-702zM584 1538l334 201l237 -201l-10 -37l-248 86l-297 -86z" />
<glyph unicode="&#xcb;" horiz-adv-x="1241" d="M-20 0l18 61l106 7l353 1230l-127 7l16 61h701q67 0 106 6t90 23l14 -453h-59q-15 111 -41 176t-72 111q-43 41 -99.5 55t-182.5 14q-57 0 -158 -8l-151 -530h88q97 0 138.5 12t80.5 53q41 41 76 136h67l-147 -508h-66q17 69 17 100q0 37 -16 68.5t-42 46.5 q-37 22 -129 22h-88l-178 -620q147 -7 166 -7q138 0 233 28t187 97q130 95 219 232l57 -25l-209 -428q-49 22 -95.5 27.5t-170.5 5.5h-702zM668 1622q0 42 29 71t71 29q43 0 74.5 -30.5t31.5 -71.5t-31.5 -72.5t-72.5 -31.5q-42 0 -72 31t-30 75zM967 1618q0 43 30.5 72.5 t73.5 29.5q42 0 71 -30t29 -74q0 -41 -29.5 -70.5t-70.5 -29.5q-43 0 -73.5 30.5t-30.5 71.5z" />
<glyph unicode="&#xcc;" horiz-adv-x="729" d="M-20 0l18 61l154 9l352 1228l-174 7l16 61h522l-18 -61l-154 -7l-352 -1228l174 -9l-16 -61h-522zM356 1661q0 34 22 57t56 23q23 0 38 -8t87 -56l213 -145l-8 -31l-242 51q-76 15 -108 29q-58 22 -58 80z" />
<glyph unicode="&#xcd;" horiz-adv-x="729" d="M-20 0l18 61l154 9l352 1228l-174 7l16 61h522l-18 -61l-154 -7l-352 -1228l174 -9l-16 -61h-522zM559 1532l215 145q71 48 86 56t39 8q34 0 56 -23t22 -57q0 -58 -57 -80q-23 -10 -109 -29l-240 -51z" />
<glyph unicode="&#xce;" horiz-adv-x="729" d="M-20 0l18 61l154 9l352 1228l-174 7l16 61h522l-18 -61l-154 -7l-352 -1228l174 -9l-16 -61h-522zM356 1538l334 201l238 -201l-10 -37l-248 86l-297 -86z" />
<glyph unicode="&#xcf;" horiz-adv-x="729" d="M-20 0l18 61l154 9l352 1228l-174 7l16 61h522l-18 -61l-154 -7l-352 -1228l174 -9l-16 -61h-522zM453 1622q0 42 29 71t71 29q43 0 74.5 -30.5t31.5 -71.5t-31.5 -72.5t-72.5 -31.5q-42 0 -72 31t-30 75zM725 1618q0 43 30.5 72.5t73.5 29.5q42 0 71.5 -30t29.5 -74 q0 -41 -30 -70.5t-71 -29.5q-43 0 -73.5 30.5t-30.5 71.5z" />
<glyph unicode="&#xd0;" horiz-adv-x="1366" d="M-20 0l18 61l106 7l177 616h-117l24 82h117l152 532l-127 7l16 61h264l246 10q142 6 253.5 -64t172.5 -197.5t61 -289.5q0 -172 -80.5 -354t-207.5 -299q-110 -99 -222.5 -137t-297.5 -37l-242 2h-313zM299 80q88 -14 213 -14q160 0 252.5 43t171.5 155q98 135 156.5 312 t58.5 339q0 113 -42.5 207t-113.5 138q-82 51 -227 51q-30 0 -119 -6l-153 -539h221l-23 -82h-221z" />
<glyph unicode="&#xd1;" horiz-adv-x="1333" d="M-80 0l19 61q43 5 72.5 15t54.5 27.5t44 47.5t35 70.5t33 100.5l223 774q31 115 31 141q0 22 -10 34.5t-33 20t-67 11.5q-17 0 -27 2l16 61h307l377 -1073l219 766q35 125 35 141q0 49 -32.5 72.5t-112.5 32.5l16 61h396l-19 -61q-26 -4 -43.5 -7.5t-35 -11t-28.5 -15.5 t-24 -23.5t-21.5 -32.5t-19.5 -45.5t-20.5 -59t-22.5 -76.5l-301 -1050h-63l-424 1181l-242 -843q-35 -124 -35 -162q0 -28 11.5 -47t35 -29t48.5 -15t61 -8l-17 -61h-436zM680 1536q38 83 82 120.5t104 37.5q29 0 53.5 -5t110.5 -28q46 -12 78 -12q29 0 50 12.5t54 48.5 l37 -18q-42 -80 -87.5 -117t-104.5 -37q-34 0 -129 23q-90 24 -113 24q-27 0 -47.5 -15.5t-44.5 -53.5z" />
<glyph unicode="&#xd2;" horiz-adv-x="1351" d="M131 475q0 170 64 339t166 297t238 208t273 80q204 0 333.5 -152t129.5 -391q0 -150 -66.5 -318.5t-178.5 -301.5q-109 -129 -241.5 -199t-268.5 -70q-194 0 -321.5 144t-127.5 364zM317 383q0 -163 70 -250.5t199 -87.5q131 0 233 85t185 265q69 147 106 298.5t37 279.5 q0 126 -35 203q-31 64 -97 103.5t-143 39.5q-101 0 -195 -68.5t-167 -197.5q-88 -152 -140.5 -335t-52.5 -335zM639 1661q0 34 22 57t56 23q23 0 38 -8t87 -56l213 -145l-8 -31l-242 51q-78 15 -109 29q-57 22 -57 80z" />
<glyph unicode="&#xd3;" horiz-adv-x="1351" d="M131 475q0 170 64 339t166 297t238 208t273 80q204 0 333.5 -152t129.5 -391q0 -150 -66.5 -318.5t-178.5 -301.5q-109 -129 -241.5 -199t-268.5 -70q-194 0 -321.5 144t-127.5 364zM317 383q0 -163 70 -250.5t199 -87.5q131 0 233 85t185 265q69 147 106 298.5t37 279.5 q0 126 -35 203q-31 64 -97 103.5t-143 39.5q-101 0 -195 -68.5t-167 -197.5q-88 -152 -140.5 -335t-52.5 -335zM856 1532l215 145q71 48 86 56t39 8q34 0 56 -23t22 -57q0 -58 -57 -80q-23 -10 -109 -29l-240 -51z" />
<glyph unicode="&#xd4;" horiz-adv-x="1351" d="M131 475q0 170 64 339t166 297t238 208t273 80q204 0 333.5 -152t129.5 -391q0 -150 -66.5 -318.5t-178.5 -301.5q-109 -129 -241.5 -199t-268.5 -70q-194 0 -321.5 144t-127.5 364zM317 383q0 -163 70 -250.5t199 -87.5q131 0 233 85t185 265q69 147 106 298.5t37 279.5 q0 126 -35 203q-31 64 -97 103.5t-143 39.5q-101 0 -195 -68.5t-167 -197.5q-88 -152 -140.5 -335t-52.5 -335zM668 1538l333 201l238 -201l-10 -37l-248 86l-297 -86z" />
<glyph unicode="&#xd5;" horiz-adv-x="1351" d="M131 475q0 170 64 339t166 297t238 208t273 80q204 0 333.5 -152t129.5 -391q0 -150 -66.5 -318.5t-178.5 -301.5q-109 -129 -241.5 -199t-268.5 -70q-194 0 -321.5 144t-127.5 364zM317 383q0 -163 70 -250.5t199 -87.5q131 0 233 85t185 265q69 147 106 298.5t37 279.5 q0 126 -35 203q-31 64 -97 103.5t-143 39.5q-101 0 -195 -68.5t-167 -197.5q-88 -152 -140.5 -335t-52.5 -335zM690 1536q38 83 82.5 120.5t104.5 37.5q29 0 52.5 -5t110.5 -28q47 -12 78 -12q29 0 50.5 12.5t54.5 48.5l37 -18q-42 -80 -87.5 -117t-105.5 -37q-34 0 -129 23 q-90 24 -113 24q-27 0 -47.5 -15.5t-44.5 -53.5z" />
<glyph unicode="&#xd6;" horiz-adv-x="1351" d="M131 475q0 170 64 339t166 297t238 208t273 80q204 0 333.5 -152t129.5 -391q0 -150 -66.5 -318.5t-178.5 -301.5q-109 -129 -241.5 -199t-268.5 -70q-194 0 -321.5 144t-127.5 364zM317 383q0 -163 70 -250.5t199 -87.5q131 0 233 85t185 265q69 147 106 298.5t37 279.5 q0 126 -35 203q-31 64 -97 103.5t-143 39.5q-101 0 -195 -68.5t-167 -197.5q-88 -152 -140.5 -335t-52.5 -335zM725 1622q0 42 29 71t71 29q43 0 75 -30.5t32 -71.5t-32 -72.5t-73 -31.5q-42 0 -72 31t-30 75zM1024 1618q0 43 30.5 72.5t73.5 29.5q42 0 71.5 -30t29.5 -74 q0 -41 -30 -70.5t-71 -29.5q-43 0 -73.5 30.5t-30.5 71.5z" />
<glyph unicode="&#xd7;" d="M244 412l282 280l-278 281l71 74l279 -281l283 281l69 -70l-280 -281l280 -280l-71 -74l-281 281l-283 -281z" />
<glyph unicode="&#xd8;" horiz-adv-x="1351" d="M18 -88l207 240q-96 142 -96 323q0 136 41 273t113.5 252t165 205t203.5 141t220 51q179 0 314 -129l157 182h89l-203 -236q106 -144 106 -350q0 -157 -65.5 -325t-179.5 -303q-109 -129 -241.5 -199t-270.5 -70q-184 0 -310 129l-159 -184h-91zM315 381q0 -51 11 -113 l784 912q-35 64 -98 100.5t-140 36.5q-135 0 -251.5 -117t-204.5 -340q-46 -120 -73.5 -248t-27.5 -231zM350 193q38 -77 95 -112.5t141 -35.5q130 0 231.5 85t186.5 265q68 145 106.5 298.5t38.5 279.5q0 73 -14 133z" />
<glyph unicode="&#xd9;" horiz-adv-x="1302" d="M174 283q0 58 9 99t65 232l196 684l-102 7l16 61h426l-16 -61l-133 -7l-205 -716q-43 -153 -54 -205t-11 -103q0 -97 74.5 -159t191.5 -62q266 0 377 385l157 549q39 132 45.5 161t6.5 58q0 48 -32 70t-116 29l18 61h390l-21 -61q-40 -10 -57 -14t-40.5 -22.5t-31 -29 t-26 -57t-28.5 -81t-36 -124.5q-1 -5 -2 -8l-154 -531q-31 -107 -79 -198t-103 -146q-59 -59 -148.5 -92t-189.5 -33q-167 0 -277 89.5t-110 224.5zM641 1661q0 34 22 57t56 23q23 0 38 -8t87 -56l213 -145l-8 -31l-242 51q-78 15 -109 29q-57 22 -57 80z" />
<glyph unicode="&#xda;" horiz-adv-x="1302" d="M174 283q0 58 9 99t65 232l196 684l-102 7l16 61h426l-16 -61l-133 -7l-205 -716q-43 -153 -54 -205t-11 -103q0 -97 74.5 -159t191.5 -62q266 0 377 385l157 549q39 132 45.5 161t6.5 58q0 48 -32 70t-116 29l18 61h390l-21 -61q-40 -10 -57 -14t-40.5 -22.5t-31 -29 t-26 -57t-28.5 -81t-36 -124.5q-1 -5 -2 -8l-154 -531q-31 -107 -79 -198t-103 -146q-59 -59 -148.5 -92t-189.5 -33q-167 0 -277 89.5t-110 224.5zM844 1532l215 145q71 48 86 56t39 8q34 0 56 -23t22 -57q0 -58 -58 -80q-24 -11 -83 -24q-16 -3 -25 -5l-240 -51z" />
<glyph unicode="&#xdb;" horiz-adv-x="1302" d="M174 283q0 58 9 99t65 232l196 684l-102 7l16 61h426l-16 -61l-133 -7l-205 -716q-43 -153 -54 -205t-11 -103q0 -97 74.5 -159t191.5 -62q266 0 377 385l157 549q39 132 45.5 161t6.5 58q0 48 -32 70t-116 29l18 61h390l-21 -61q-40 -10 -57 -14t-40.5 -22.5t-31 -29 t-26 -57t-28.5 -81t-36 -124.5q-1 -5 -2 -8l-154 -531q-31 -107 -79 -198t-103 -146q-59 -59 -148.5 -92t-189.5 -33q-167 0 -277 89.5t-110 224.5zM655 1538l334 201l238 -201l-10 -37l-248 86l-297 -86z" />
<glyph unicode="&#xdc;" horiz-adv-x="1302" d="M174 283q0 58 9 99t65 232l196 684l-102 7l16 61h426l-16 -61l-133 -7l-205 -716q-43 -153 -54 -205t-11 -103q0 -97 74.5 -159t191.5 -62q266 0 377 385l157 549q39 132 45.5 161t6.5 58q0 48 -32 70t-116 29l18 61h390l-21 -61q-40 -10 -57 -14t-40.5 -22.5t-31 -29 t-26 -57t-28.5 -81t-36 -124.5q-1 -5 -2 -8l-154 -531q-31 -107 -79 -198t-103 -146q-59 -59 -148.5 -92t-189.5 -33q-167 0 -277 89.5t-110 224.5zM725 1622q0 42 29 71t71 29q43 0 75 -30.5t32 -71.5t-32 -72.5t-73 -31.5q-42 0 -72 31t-30 75zM1024 1618q0 43 30.5 72.5 t73.5 29.5q42 0 71.5 -30t29.5 -74q0 -41 -30 -70.5t-71 -29.5q-43 0 -73.5 30.5t-30.5 71.5z" />
<glyph unicode="&#xdd;" horiz-adv-x="1155" d="M211 1305l18 61h402l-17 -61l-112 -7l184 -618l350 438q36 45 49 68t13 41q0 72 -137 78l18 61h418l-17 -61q-37 -9 -54 -13t-41.5 -16t-37 -22t-38.5 -36.5t-48 -53.5t-63 -79l-375 -475l-156 -542l129 -7l-18 -61h-426l18 61l107 7l149 522l-217 708zM772 1532l215 145 q71 48 86 56t39 8q34 0 56 -23t22 -57q0 -58 -57 -80q-23 -10 -109 -29l-240 -51z" />
<glyph unicode="&#xde;" horiz-adv-x="1212" d="M-20 0l18 61l106 7l353 1230l-127 7l16 61h426l-16 -61l-109 -7l-57 -204q44 0 120.5 4t104.5 4q172 0 288 -93.5t116 -232.5q0 -125 -80 -230.5t-203 -142.5q-76 -24 -136 -29t-261 -5h-158l-86 -301l135 -7l-18 -61h-432zM403 446q136 -8 199 -8q141 0 221 35 q83 37 137 126t54 192q0 245 -303 245q-32 0 -140 -6z" />
<glyph unicode="&#xdf;" horiz-adv-x="1140" d="M-51 0l20 70l107 16l221 774h-113l25 82h113q74 269 205 396.5t335 127.5q148 0 236 -71.5t88 -192.5q0 -86 -46 -157.5t-132 -118.5q-47 -26 -76.5 -36.5t-161.5 -47.5q-88 -25 -88 -62q0 -32 68 -67q126 -61 152 -76.5t54 -46.5q84 -93 84 -203q0 -111 -64 -206.5 t-172.5 -151.5t-234.5 -56q-114 0 -184 43.5t-70 114.5q0 43 30 74t73 31q41 0 70 -34t34 -85q3 -46 23 -61t78 -15q106 0 182 72.5t76 173.5q0 106 -93 184q-6 5 -11 8t-10 6.5t-18 10.5t-26 14.5t-43.5 24.5t-61.5 34q-40 22 -63 60.5t-23 81.5q0 69 41 110 q22 22 50.5 34.5t179.5 66.5q223 77 223 278q0 86 -52 142.5t-132 56.5q-55 0 -114.5 -29t-96.5 -74q-40 -46 -69 -115t-73 -223l-274 -958h-266z" />
<glyph unicode="&#xe0;" horiz-adv-x="1005" d="M49 264q0 137 67.5 274t188.5 242q204 183 412 183q101 0 168 -41.5t67 -104.5q0 -29 -16 -50.5t-53 -41.5l-103 -356q-38 -134 -44.5 -160t-6.5 -51t12.5 -40.5t32.5 -15.5q28 0 92 64l21 -53q-91 -127 -197 -127q-52 0 -85.5 40t-33.5 103q0 27 11 78 q-52 -102 -134.5 -164.5t-164.5 -62.5q-100 0 -167 81.5t-67 202.5zM219 279q0 -78 33.5 -128.5t85.5 -50.5q54 0 113 43t141 140l110 389q31 106 31 133q0 34 -24 55t-64 21q-83 0 -173 -70t-153 -184q-41 -75 -70.5 -177t-29.5 -171zM375 1266q0 34 22 58t54 24 q29 0 48.5 -11.5t78.5 -66.5l192 -176l-12 -29l-234 84q-75 28 -102 43q-47 27 -47 74z" />
<glyph unicode="&#xe1;" horiz-adv-x="1005" d="M49 264q0 137 67.5 274t188.5 242q204 183 412 183q101 0 168 -41.5t67 -104.5q0 -29 -16 -50.5t-53 -41.5l-103 -356q-38 -134 -44.5 -160t-6.5 -51t12.5 -40.5t32.5 -15.5q28 0 92 64l21 -53q-91 -127 -197 -127q-52 0 -85.5 40t-33.5 103q0 27 11 78 q-52 -102 -134.5 -164.5t-164.5 -62.5q-100 0 -167 81.5t-67 202.5zM219 279q0 -78 33.5 -128.5t85.5 -50.5q54 0 113 43t141 140l110 389q31 106 31 133q0 34 -24 55t-64 21q-83 0 -173 -70t-153 -184q-41 -75 -70.5 -177t-29.5 -171zM575 1094l193 174q63 57 81 68.5 t46 11.5q32 0 54 -24t22 -58q0 -49 -45 -74q-25 -14 -105 -43l-229 -84z" />
<glyph unicode="&#xe2;" horiz-adv-x="1005" d="M49 264q0 137 67.5 274t188.5 242q204 183 412 183q101 0 168 -41.5t67 -104.5q0 -29 -16 -50.5t-53 -41.5l-103 -356q-38 -134 -44.5 -160t-6.5 -51t12.5 -40.5t32.5 -15.5q28 0 92 64l21 -53q-91 -127 -197 -127q-52 0 -85.5 40t-33.5 103q0 27 11 78 q-52 -102 -134.5 -164.5t-164.5 -62.5q-100 0 -167 81.5t-67 202.5zM219 279q0 -78 33.5 -128.5t85.5 -50.5q54 0 113 43t141 140l110 389q31 106 31 133q0 34 -24 55t-64 21q-83 0 -173 -70t-153 -184q-41 -75 -70.5 -177t-29.5 -171zM393 1114l334 201l238 -201l-11 -35 l-247 84l-297 -84z" />
<glyph unicode="&#xe3;" horiz-adv-x="1005" d="M49 264q0 137 67.5 274t188.5 242q204 183 412 183q101 0 168 -41.5t67 -104.5q0 -29 -16 -50.5t-53 -41.5l-103 -356q-38 -134 -44.5 -160t-6.5 -51t12.5 -40.5t32.5 -15.5q28 0 92 64l21 -53q-91 -127 -197 -127q-52 0 -85.5 40t-33.5 103q0 27 11 78 q-52 -102 -134.5 -164.5t-164.5 -62.5q-100 0 -167 81.5t-67 202.5zM219 279q0 -78 33.5 -128.5t85.5 -50.5q54 0 113 43t141 140l110 389q31 106 31 133q0 34 -24 55t-64 21q-83 0 -173 -70t-153 -184q-41 -75 -70.5 -177t-29.5 -171zM408 1112q38 86 81.5 123t104.5 37 q29 0 53.5 -5t110.5 -28q54 -14 78 -14q29 0 51 13t53 48l37 -18q-42 -80 -87.5 -117t-105.5 -37q-31 0 -129 25q-84 24 -112 24q-27 0 -47.5 -16t-44.5 -55z" />
<glyph unicode="&#xe4;" horiz-adv-x="1005" d="M49 264q0 137 67.5 274t188.5 242q204 183 412 183q101 0 168 -41.5t67 -104.5q0 -29 -16 -50.5t-53 -41.5l-103 -356q-38 -134 -44.5 -160t-6.5 -51t12.5 -40.5t32.5 -15.5q28 0 92 64l21 -53q-91 -127 -197 -127q-52 0 -85.5 40t-33.5 103q0 27 11 78 q-52 -102 -134.5 -164.5t-164.5 -62.5q-100 0 -167 81.5t-67 202.5zM219 279q0 -78 33.5 -128.5t85.5 -50.5q54 0 113 43t141 140l110 389q31 106 31 133q0 34 -24 55t-64 21q-83 0 -173 -70t-153 -184q-41 -75 -70.5 -177t-29.5 -171zM463 1196q0 43 30.5 73.5t73.5 30.5 q41 0 73 -31.5t32 -72.5t-32 -72.5t-73 -31.5q-43 0 -73.5 30.5t-30.5 73.5zM762 1192q0 43 31.5 74.5t74.5 31.5t72 -30t29 -76q0 -41 -30 -70.5t-73 -29.5q-42 0 -73 30t-31 70z" />
<glyph unicode="&#xe5;" horiz-adv-x="1005" d="M49 264q0 137 67.5 274t188.5 242q204 183 412 183q101 0 168 -41.5t67 -104.5q0 -29 -16 -50.5t-53 -41.5l-103 -356q-38 -134 -44.5 -160t-6.5 -51t12.5 -40.5t32.5 -15.5q28 0 92 64l21 -53q-91 -127 -197 -127q-52 0 -85.5 40t-33.5 103q0 27 11 78 q-52 -102 -134.5 -164.5t-164.5 -62.5q-100 0 -167 81.5t-67 202.5zM219 279q0 -78 33.5 -128.5t85.5 -50.5q54 0 113 43t141 140l110 389q31 106 31 133q0 34 -24 55t-64 21q-83 0 -173 -70t-153 -184q-41 -75 -70.5 -177t-29.5 -171zM549 1253q0 73 50 122.5t124 49.5 q71 0 120.5 -51.5t49.5 -124.5q0 -71 -49.5 -120.5t-120.5 -49.5q-73 0 -123.5 50.5t-50.5 123.5zM633 1249q0 -35 26.5 -61.5t61.5 -26.5t62.5 27.5t27.5 62.5q0 37 -26.5 63.5t-63.5 26.5q-38 0 -63 -26t-25 -66z" />
<glyph unicode="&#xe6;" horiz-adv-x="1488" d="M53 266q0 123 60 251t154 226t217 160t241 62q83 0 134 -28.5t79 -90.5q92 66 156 91.5t137 25.5q95 0 151 -47t56 -125q0 -109 -104 -212.5t-296 -185.5l-231 -98q20 -95 75.5 -147t135.5 -52q73 0 141 34t174 124l29 -66q-103 -101 -210.5 -154.5t-207.5 -53.5 q-241 0 -305 239q-100 -125 -183.5 -182t-166.5 -57q-103 0 -169.5 80.5t-66.5 205.5zM227 274q0 -78 34 -126t89 -48q57 0 124.5 50t127.5 137l137 432q6 18 10.5 32.5t7 25t4.5 17t2.5 13t0.5 8.5v8v8q0 26 -21.5 41t-58.5 15q-84 0 -166 -52t-151 -149 q-62 -88 -101 -202.5t-39 -209.5zM797 356l188 86q136 62 215.5 152.5t79.5 183.5q0 46 -28.5 76.5t-69.5 30.5q-73 0 -152 -55.5t-133 -145.5q-89 -153 -100 -328z" />
<glyph unicode="&#xe7;" horiz-adv-x="878" d="M68 330q0 117 52 233t135 203.5t193.5 142t221.5 54.5q101 0 167 -42t66 -106q0 -40 -31.5 -70t-72.5 -30q-44 0 -77.5 33t-43.5 88q-6 33 -16 46t-29 13q-54 0 -113.5 -39t-109.5 -106q-72 -98 -112 -209.5t-40 -214.5q0 -109 58 -178.5t149 -69.5q135 0 285 141l24 -61 q-70 -79 -165 -126t-193 -52l-37 -109q74 0 118 -27t44 -86q0 -62 -56.5 -102.5t-142.5 -40.5q-72 0 -118 25t-46 63q0 20 13 33.5t32 13.5q22 0 31.5 -10t24.5 -49q5 -11 20 -19t33 -8q40 0 70 27.5t30 64.5q0 31 -22 47.5t-62 16.5q-25 0 -45 -4l55 166 q-135 19 -212.5 111.5t-77.5 236.5z" />
<glyph unicode="&#xe8;" horiz-adv-x="915" d="M59 309q0 116 54 235.5t139.5 211t197 149.5t220.5 58q91 0 145.5 -48.5t54.5 -128.5q0 -146 -174 -274q-107 -77 -323 -168l-140 -57q23 -88 76.5 -134.5t132.5 -46.5q64 0 136.5 35.5t181.5 120.5l31 -69q-227 -213 -422 -213q-137 0 -223.5 91.5t-86.5 237.5zM225 358 l103 48q99 45 152 75.5t110 77.5q55 44 88 104.5t33 116.5q0 38 -31 66t-74 28q-84 0 -171 -75.5t-145.5 -196.5t-64.5 -244zM291 1266q0 34 22 58t54 24q29 0 48.5 -11.5t78.5 -66.5l192 -176l-12 -29l-234 84q-75 28 -102 43q-47 27 -47 74z" />
<glyph unicode="&#xe9;" horiz-adv-x="915" d="M59 309q0 116 54 235.5t139.5 211t197 149.5t220.5 58q91 0 145.5 -48.5t54.5 -128.5q0 -146 -174 -274q-107 -77 -323 -168l-140 -57q23 -88 76.5 -134.5t132.5 -46.5q64 0 136.5 35.5t181.5 120.5l31 -69q-227 -213 -422 -213q-137 0 -223.5 91.5t-86.5 237.5zM225 358 l103 48q99 45 152 75.5t110 77.5q55 44 88 104.5t33 116.5q0 38 -31 66t-74 28q-84 0 -171 -75.5t-145.5 -196.5t-64.5 -244zM530 1094l193 174q63 57 81 68.5t46 11.5q32 0 54 -24t22 -58q0 -49 -45 -74q-25 -14 -105 -43l-229 -84z" />
<glyph unicode="&#xea;" horiz-adv-x="915" d="M59 309q0 116 54 235.5t139.5 211t197 149.5t220.5 58q91 0 145.5 -48.5t54.5 -128.5q0 -146 -174 -274q-107 -77 -323 -168l-140 -57q23 -88 76.5 -134.5t132.5 -46.5q64 0 136.5 35.5t181.5 120.5l31 -69q-227 -213 -422 -213q-137 0 -223.5 91.5t-86.5 237.5zM225 358 l103 48q99 45 152 75.5t110 77.5q55 44 88 104.5t33 116.5q0 38 -31 66t-74 28q-84 0 -171 -75.5t-145.5 -196.5t-64.5 -244zM309 1114l334 201l238 -201l-11 -35l-247 84l-297 -84z" />
<glyph unicode="&#xeb;" horiz-adv-x="915" d="M59 309q0 116 54 235.5t139.5 211t197 149.5t220.5 58q91 0 145.5 -48.5t54.5 -128.5q0 -146 -174 -274q-107 -77 -323 -168l-140 -57q23 -88 76.5 -134.5t132.5 -46.5q64 0 136.5 35.5t181.5 120.5l31 -69q-227 -213 -422 -213q-137 0 -223.5 91.5t-86.5 237.5zM225 358 l103 48q99 45 152 75.5t110 77.5q55 44 88 104.5t33 116.5q0 38 -31 66t-74 28q-84 0 -171 -75.5t-145.5 -196.5t-64.5 -244zM403 1196q0 43 31 73.5t74 30.5q41 0 72.5 -31.5t31.5 -72.5t-31.5 -72.5t-72.5 -31.5q-43 0 -74 30.5t-31 73.5zM702 1192q0 43 32 74.5t75 31.5 t71.5 -30t28.5 -76q0 -41 -29.5 -70.5t-72.5 -29.5t-74 30t-31 70z" />
<glyph unicode="&#xec;" horiz-adv-x="591" d="M104 133q0 53 46 182l120 349q21 62 21 81q0 23 -18 38.5t-44 15.5q-21 0 -73 -17l22 84l318 113q6 -43 6 -68q0 -39 -10 -77t-46 -144l-135 -387q-39 -110 -39 -143q0 -23 12 -39.5t27 -16.5q44 0 121 74l25 -67q-117 -123 -217 -123q-59 0 -97.5 41t-38.5 104z M174 1290q0 34 22.5 59t53.5 25q30 0 49.5 -14t77.5 -76l176 -192l-16 -27l-224 104q-67 31 -100 52q-39 28 -39 69z" />
<glyph unicode="&#xed;" horiz-adv-x="591" d="M104 117q0 53 46 182l120 350q21 62 21 80q0 23 -18 38t-44 15q-21 0 -73 -14l22 82l318 113q6 -44 6 -66q0 -39 -10 -79t-46 -144l-135 -387q-39 -110 -39 -144q0 -21 12 -37t27 -16q43 0 121 72l25 -68q-118 -121 -217 -121q-58 0 -97 41t-39 103zM326 1094l192 174 q63 57 81 68.5t46 11.5q32 0 54 -24t22 -58q0 -49 -45 -74q-25 -14 -105 -43l-229 -84z" />
<glyph unicode="&#xee;" horiz-adv-x="591" d="M104 117q0 53 46 182l120 350q21 62 21 80q0 23 -18 38t-44 15q-21 0 -73 -14l22 82l318 113q6 -44 6 -66q0 -39 -10 -79t-46 -144l-135 -387q-39 -110 -39 -144q0 -21 12 -37t27 -16q43 0 121 72l25 -68q-118 -121 -217 -121q-58 0 -97 41t-39 103zM172 1114l334 201 l237 -201l-10 -35l-248 84l-297 -84z" />
<glyph unicode="&#xef;" horiz-adv-x="591" d="M104 117q0 53 46 182l120 350q21 62 21 80q0 23 -18 38t-44 15q-21 0 -73 -14l22 82l318 113q6 -44 6 -66q0 -39 -10 -79t-46 -144l-135 -387q-39 -110 -39 -144q0 -21 12 -37t27 -16q43 0 121 72l25 -68q-118 -121 -217 -121q-58 0 -97 41t-39 103zM225 1196 q0 43 31 73.5t74 30.5q41 0 72.5 -31.5t31.5 -72.5t-31.5 -72.5t-72.5 -31.5q-43 0 -74 30.5t-31 73.5zM498 1192q0 43 31.5 74.5t74.5 31.5t72 -30t29 -76q0 -41 -30 -70.5t-73 -29.5q-42 0 -73 30t-31 70z" />
<glyph unicode="&#xf0;" horiz-adv-x="1011" d="M72 348q0 152 75.5 296t198 232.5t252.5 88.5q84 0 186 -47q-11 155 -118 284l-260 -117l-27 66l237 104q-67 67 -202 136l41 55q160 -53 276 -139l266 116l27 -65l-231 -101q101 -120 138.5 -220.5t37.5 -254.5q0 -225 -74.5 -409t-204.5 -288.5t-289 -104.5 q-149 0 -239 101t-90 267zM238 242q0 -86 46 -136.5t124 -50.5q92 0 155 59t117 193q38 91 64 201.5t26 175.5q0 97 -43 149t-125 52q-85 0 -146 -52t-112 -169q-44 -101 -75 -224t-31 -198z" />
<glyph unicode="&#xf1;" horiz-adv-x="1144" d="M94 0q50 92 82 207l86 303q41 143 41 174q0 26 -14.5 43.5t-36.5 17.5q-28 0 -92 -55l-41 58l207 213q67 -41 93.5 -87.5t26.5 -119.5q0 -40 -10 -101q60 136 163.5 223t205.5 87q88 0 143.5 -57t55.5 -148q0 -36 -10 -73t-48 -150l-92 -273q-27 -79 -27 -106 q0 -25 12.5 -40.5t34.5 -15.5q21 0 44.5 16t70.5 62l29 -63q-68 -75 -116 -105t-103 -30q-59 0 -98 45t-39 112q0 56 59 223l92 267q29 86 29 116q0 41 -28 69t-69 28q-96 0 -213 -142q-52 -63 -80 -126.5t-73 -225.5l-49 -176q-30 -116 -35 -170h-201zM436 1112 q38 85 82 122.5t105 37.5q29 0 52.5 -5t110.5 -28q54 -14 78 -14q29 0 51.5 13t53.5 48l37 -18q-42 -80 -87.5 -117t-105.5 -37q-31 0 -129 25q-84 24 -113 24q-27 0 -47.5 -16t-44.5 -55z" />
<glyph unicode="&#xf2;" horiz-adv-x="1013" d="M72 348q0 115 45 228t118 198t170 138t195 53q152 0 247 -105t95 -272q0 -101 -47 -219t-121 -203q-78 -89 -175 -137.5t-198 -48.5q-149 0 -239 100.5t-90 267.5zM238 242q0 -85 46 -136t124 -51q92 0 155 59t117 193q38 91 64 201.5t26 175.5q0 98 -43 150.5t-125 52.5 q-85 0 -146 -52.5t-112 -168.5q-44 -103 -75 -226t-31 -198zM369 1266q0 34 21.5 58t53.5 24q29 0 48.5 -11.5t78.5 -66.5l193 -176l-12 -29l-234 84q-75 28 -102 43q-47 27 -47 74z" />
<glyph unicode="&#xf3;" horiz-adv-x="1013" d="M72 348q0 115 45 228t118 198t170 138t195 53q152 0 247 -105t95 -272q0 -101 -47 -219t-121 -203q-78 -89 -175 -137.5t-198 -48.5q-149 0 -239 100.5t-90 267.5zM238 242q0 -85 46 -136t124 -51q92 0 155 59t117 193q38 91 64 201.5t26 175.5q0 98 -43 150.5t-125 52.5 q-85 0 -146 -52.5t-112 -168.5q-44 -103 -75 -226t-31 -198zM567 1094l193 174q63 57 81 68.5t46 11.5q32 0 54 -24t22 -58q0 -49 -45 -74q-25 -14 -105 -43l-229 -84z" />
<glyph unicode="&#xf4;" horiz-adv-x="1013" d="M72 348q0 115 45 228t118 198t170 138t195 53q152 0 247 -105t95 -272q0 -101 -47 -219t-121 -203q-78 -89 -175 -137.5t-198 -48.5q-149 0 -239 100.5t-90 267.5zM238 242q0 -85 46 -136t124 -51q92 0 155 59t117 193q38 91 64 201.5t26 175.5q0 98 -43 150.5t-125 52.5 q-85 0 -146 -52.5t-112 -168.5q-44 -103 -75 -226t-31 -198zM387 1114l334 201l237 -201l-10 -35l-248 84l-297 -84z" />
<glyph unicode="&#xf5;" horiz-adv-x="1013" d="M72 348q0 115 45 228t118 198t170 138t195 53q152 0 247 -105t95 -272q0 -101 -47 -219t-121 -203q-78 -89 -175 -137.5t-198 -48.5q-149 0 -239 100.5t-90 267.5zM238 242q0 -85 46 -136t124 -51q92 0 155 59t117 193q38 91 64 201.5t26 175.5q0 98 -43 150.5t-125 52.5 q-85 0 -146 -52.5t-112 -168.5q-44 -103 -75 -226t-31 -198zM399 1112q38 85 82 122.5t105 37.5q29 0 53.5 -5t110.5 -28q54 -14 77 -14q29 0 51.5 13t53.5 48l37 -18q-42 -80 -87.5 -117t-105.5 -37q-31 0 -129 25q-84 24 -112 24t-49 -16t-44 -55z" />
<glyph unicode="&#xf6;" horiz-adv-x="1013" d="M72 348q0 115 45 228t118 198t170 138t195 53q152 0 247 -105t95 -272q0 -101 -47 -219t-121 -203q-78 -89 -175 -137.5t-198 -48.5q-149 0 -239 100.5t-90 267.5zM238 242q0 -85 46 -136t124 -51q92 0 155 59t117 193q38 91 64 201.5t26 175.5q0 98 -43 150.5t-125 52.5 q-85 0 -146 -52.5t-112 -168.5q-44 -103 -75 -226t-31 -198zM455 1196q0 43 30.5 73.5t73.5 30.5q41 0 73 -31.5t32 -72.5t-32 -72.5t-73 -31.5q-43 0 -73.5 30.5t-30.5 73.5zM754 1192q0 43 31.5 74.5t74.5 31.5t72 -30t29 -76q0 -41 -30 -70.5t-73 -29.5q-42 0 -73 30 t-31 70z" />
<glyph unicode="&#xf7;" d="M178 649v99h809v-99h-809zM508 430q0 31 23 53.5t55 22.5q29 0 51 -22.5t22 -53.5t-22 -53.5t-53 -22.5t-53.5 22.5t-22.5 53.5zM508 965q0 32 22.5 53.5t55.5 21.5q29 0 51 -22t22 -53t-22 -53.5t-53 -22.5q-32 0 -54 22.5t-22 53.5z" />
<glyph unicode="&#xf8;" horiz-adv-x="1013" d="M31 -86l129 168q-47 57 -68.5 120t-21.5 146q0 154 75.5 297.5t199 231.5t255.5 88q105 0 193 -60l100 131h78l-131 -170q102 -114 102 -272q0 -106 -46.5 -224t-121.5 -204q-78 -89 -175 -137.5t-196 -48.5q-113 0 -200 61l-99 -127h-73zM236 242q0 -21 8 -52l487 635 q-50 62 -133 62t-144 -52.5t-112 -168.5q-44 -103 -75 -226t-31 -198zM268 125q28 -38 59.5 -54t80.5 -16q91 0 154.5 59t117.5 193q39 98 63.5 205.5t24.5 183.5q0 30 -8 66z" />
<glyph unicode="&#xf9;" horiz-adv-x="1105" d="M119 184q0 40 10.5 82t46.5 150l82 243q21 65 21 89q0 23 -14.5 37t-37.5 14q-26 0 -77 -25l-23 66l311 135q29 -64 29 -119q0 -44 -12 -94.5t-49 -163.5l-78 -233q-27 -82 -33 -105.5t-6 -50.5q0 -48 32.5 -80.5t81.5 -32.5q97 0 203 121q49 57 77 112.5t56 151.5 l74 258q36 132 43 203h195q-29 -66 -44 -108.5t-46 -151.5l-107 -375q-29 -101 -29 -133q0 -28 12.5 -44.5t34.5 -16.5q23 0 45.5 13t67.5 54l27 -63q-66 -76 -111.5 -104.5t-101.5 -28.5q-60 0 -95.5 40t-35.5 109q0 47 20 111q-57 -120 -154.5 -192t-201.5 -72 q-91 0 -152 59t-61 145zM387 1266q0 34 22 58t54 24q29 0 48.5 -11.5t78.5 -66.5l192 -176l-12 -29l-233 84q-78 29 -103 43q-47 27 -47 74z" />
<glyph unicode="&#xfa;" horiz-adv-x="1105" d="M119 184q0 40 10.5 82t46.5 150l82 243q21 65 21 89q0 23 -14.5 37t-37.5 14q-26 0 -77 -25l-23 66l311 135q29 -64 29 -119q0 -44 -12 -94.5t-49 -163.5l-78 -233q-27 -82 -33 -105.5t-6 -50.5q0 -48 32.5 -80.5t81.5 -32.5q97 0 203 121q49 57 77 112.5t56 151.5 l74 258q36 132 43 203h195q-29 -66 -44 -108.5t-46 -151.5l-107 -375q-29 -101 -29 -133q0 -28 12.5 -44.5t34.5 -16.5q23 0 45.5 13t67.5 54l27 -63q-66 -76 -111.5 -104.5t-101.5 -28.5q-60 0 -95.5 40t-35.5 109q0 47 20 111q-57 -120 -154.5 -192t-201.5 -72 q-91 0 -152 59t-61 145zM627 1094l192 174q63 57 81 68.5t46 11.5q32 0 54 -24t22 -58q0 -49 -45 -74q-25 -14 -105 -43l-229 -84z" />
<glyph unicode="&#xfb;" horiz-adv-x="1105" d="M119 184q0 40 10.5 82t46.5 150l82 243q21 65 21 89q0 23 -14.5 37t-37.5 14q-26 0 -77 -25l-23 66l311 135q29 -64 29 -119q0 -44 -12 -94.5t-49 -163.5l-78 -233q-27 -82 -33 -105.5t-6 -50.5q0 -48 32.5 -80.5t81.5 -32.5q97 0 203 121q49 57 77 112.5t56 151.5 l74 258q36 132 43 203h195q-29 -66 -44 -108.5t-46 -151.5l-107 -375q-29 -101 -29 -133q0 -28 12.5 -44.5t34.5 -16.5q23 0 45.5 13t67.5 54l27 -63q-66 -76 -111.5 -104.5t-101.5 -28.5q-60 0 -95.5 40t-35.5 109q0 47 20 111q-57 -120 -154.5 -192t-201.5 -72 q-91 0 -152 59t-61 145zM432 1114l334 201l238 -201l-11 -35l-248 84l-296 -84z" />
<glyph unicode="&#xfc;" horiz-adv-x="1105" d="M119 184q0 40 10.5 82t46.5 150l82 243q21 65 21 89q0 23 -14.5 37t-37.5 14q-26 0 -77 -25l-23 66l311 135q29 -64 29 -119q0 -44 -12 -94.5t-49 -163.5l-78 -233q-27 -82 -33 -105.5t-6 -50.5q0 -48 32.5 -80.5t81.5 -32.5q97 0 203 121q49 57 77 112.5t56 151.5 l74 258q36 132 43 203h195q-29 -66 -44 -108.5t-46 -151.5l-107 -375q-29 -101 -29 -133q0 -28 12.5 -44.5t34.5 -16.5q23 0 45.5 13t67.5 54l27 -63q-66 -76 -111.5 -104.5t-101.5 -28.5q-60 0 -95.5 40t-35.5 109q0 47 20 111q-57 -120 -154.5 -192t-201.5 -72 q-91 0 -152 59t-61 145zM473 1196q0 43 31 73.5t74 30.5q41 0 72.5 -31.5t31.5 -72.5t-31.5 -72.5t-72.5 -31.5q-43 0 -74 30.5t-31 73.5zM772 1192q0 43 32 74.5t75 31.5t71.5 -30t28.5 -76q0 -41 -29.5 -70.5t-72.5 -29.5t-74 30t-31 70z" />
<glyph unicode="&#xfd;" horiz-adv-x="983" d="M-55 -242q0 42 29.5 71.5t72.5 29.5q45 0 81 -35.5t42 -87.5q3 -26 13 -33.5t40 -7.5q120 0 204 90.5t138 275.5l43 150q-137 -231 -311 -231q-84 0 -143.5 59t-59.5 143q0 48 16.5 106t61.5 171l74 184q26 66 26 96q0 58 -57 58q-21 0 -68 -17l-20 68l307 129 q33 -67 33 -129q0 -32 -13 -74.5t-59 -163.5l-102 -266q-35 -89 -35 -141q0 -46 29 -75.5t73 -29.5q98 0 199 131q50 62 78.5 122t56.5 159l66 233q34 117 45 199h203q-64 -124 -113 -299l-168 -590q-38 -136 -104 -220.5t-179 -143.5q-122 -64 -254 -64q-110 0 -177.5 36.5 t-67.5 96.5zM565 1094l193 174q63 57 81 68.5t46 11.5q32 0 54 -24t22 -58q0 -49 -46 -74q-27 -15 -104 -43l-229 -84z" />
<glyph unicode="&#xfe;" horiz-adv-x="997" d="M-66 -354q35 92 86 266l351 1223q26 92 26 129q0 47 -75 47q-25 0 -48 -4l19 69l356 99q-33 -78 -49.5 -127t-54.5 -179l-103 -354q110 148 250 148q107 0 173.5 -87t66.5 -227q0 -160 -76 -316.5t-196.5 -254.5t-243.5 -98q-118 0 -191 73l-59 -209q-24 -85 -37 -198 h-195zM260 168q0 -47 43 -84t100 -37q166 0 269 248q82 203 82 348q0 92 -37.5 145.5t-100.5 53.5q-86 0 -174 -121q-29 -40 -45 -79.5t-43 -131.5l-61 -213l-14 -53q-19 -65 -19 -76z" />
<glyph unicode="&#xff;" horiz-adv-x="983" d="M-55 -242q0 42 29.5 71.5t72.5 29.5q45 0 81 -35.5t42 -87.5q3 -26 13 -33.5t40 -7.5q120 0 204 90.5t138 275.5l43 150q-137 -231 -311 -231q-84 0 -143.5 59t-59.5 143q0 48 16.5 106t61.5 171l74 184q26 66 26 96q0 58 -57 58q-21 0 -68 -17l-20 68l307 129 q33 -67 33 -129q0 -32 -13 -74.5t-59 -163.5l-102 -266q-35 -89 -35 -141q0 -46 29 -75.5t73 -29.5q98 0 199 131q50 62 78.5 122t56.5 159l66 233q34 117 45 199h203q-64 -124 -113 -299l-168 -590q-38 -136 -104 -220.5t-179 -143.5q-122 -64 -254 -64q-110 0 -177.5 36.5 t-67.5 96.5zM412 1196q0 43 30.5 73.5t73.5 30.5q41 0 73 -31.5t32 -72.5t-32 -72.5t-73 -31.5q-43 0 -73.5 30.5t-30.5 73.5zM709 1192q0 43 31.5 74.5t74.5 31.5t71.5 -30t28.5 -76q0 -41 -29.5 -70.5t-72.5 -29.5q-42 0 -73 30t-31 70z" />
<glyph unicode="&#x152;" horiz-adv-x="2115" d="M137 514q0 111 29.5 222t81.5 207.5t124.5 181t156 144t179.5 94t191 34.5q75 0 154.5 -21.5t138.5 -56.5q39 -25 96 -76l35 123h543q110 0 145.5 6t99.5 37l23 -453l-63 -10q-34 183 -99 264q-44 59 -105.5 79t-197.5 20q-104 0 -174 -11l-154 -538h68q109 0 147.5 9 t79.5 44q31 27 52.5 58.5t42.5 84.5h65l-143 -503h-68q12 54 12 90q0 145 -178 145h-98l-176 -614q81 -8 143 -8q137 0 220.5 17.5t168.5 63.5t147.5 104.5t147.5 170.5l58 -27l-215 -426q-49 22 -80.5 26.5t-126.5 4.5h-676l26 94q-78 -66 -157.5 -95.5t-179.5 -29.5 q-212 0 -348 153t-136 392zM332 399q0 -366 297 -366q154 0 268 108q66 60 96.5 121t75.5 217l113 395q35 117 35 173q0 118 -91.5 201t-220.5 83q-270 0 -434 -364q-63 -136 -101 -292.5t-38 -275.5z" />
<glyph unicode="&#x153;" horiz-adv-x="1574" d="M72 340q0 118 46 233.5t121 202t175 140t202 53.5q74 0 137.5 -29.5t104.5 -83.5q29 -43 51 -102q110 107 210.5 158t203.5 51q95 0 151 -47.5t56 -127.5q0 -220 -416 -397l-219 -94q14 -90 71 -144.5t138 -54.5q75 0 145 35t170 123l29 -63q-96 -101 -208.5 -157 t-215.5 -56q-196 0 -270 176q-84 -92 -167 -134t-179 -42q-147 0 -241.5 101.5t-94.5 258.5zM244 233q0 -90 44.5 -139t125.5 -49q83 0 142.5 53.5t113.5 175.5q46 106 76 221.5t34 204.5q4 92 -42 146.5t-128 54.5q-80 0 -139.5 -50.5t-110.5 -160.5q-45 -99 -80.5 -238.5 t-35.5 -218.5zM885 360l198 89q129 57 208 147.5t79 179.5q0 50 -28.5 79.5t-75.5 29.5q-86 0 -175.5 -77.5t-147.5 -197t-58 -233.5v-17z" />
<glyph unicode="&#x178;" horiz-adv-x="1155" d="M211 1305l18 61h402l-17 -61l-112 -7l184 -618l350 438q36 45 49 68t13 41q0 72 -137 78l18 61h418l-17 -61q-37 -9 -54 -13t-41.5 -16t-37 -22t-38.5 -36.5t-48 -53.5t-63 -79l-375 -475l-156 -542l129 -7l-18 -61h-426l18 61l107 7l149 522l-217 708zM668 1622 q0 42 29 71t71 29q43 0 74.5 -30.5t31.5 -71.5t-31.5 -72.5t-72.5 -31.5q-42 0 -72 31t-30 75zM967 1618q0 43 30.5 72.5t73.5 29.5q42 0 71 -30t29 -74q0 -41 -29.5 -70.5t-70.5 -29.5q-43 0 -73.5 30.5t-30.5 71.5z" />
<glyph unicode="&#x2c6;" horiz-adv-x="1024" d="M403 1114l334 201l238 -201l-10 -35l-248 84l-297 -84z" />
<glyph unicode="&#x2dc;" horiz-adv-x="1024" d="M416 1112q38 86 81.5 123t104.5 37q29 0 53.5 -5t110.5 -28q54 -14 78 -14q29 0 51 13t53 48l37 -18q-42 -80 -87.5 -117t-104.5 -37q-31 0 -129 25q-84 24 -113 24q-27 0 -47.5 -16t-44.5 -55z" />
<glyph unicode="&#x2000;" horiz-adv-x="917" />
<glyph unicode="&#x2001;" horiz-adv-x="1835" />
<glyph unicode="&#x2002;" horiz-adv-x="917" />
<glyph unicode="&#x2003;" horiz-adv-x="1835" />
<glyph unicode="&#x2004;" horiz-adv-x="611" />
<glyph unicode="&#x2005;" horiz-adv-x="458" />
<glyph unicode="&#x2006;" horiz-adv-x="305" />
<glyph unicode="&#x2007;" horiz-adv-x="305" />
<glyph unicode="&#x2008;" horiz-adv-x="229" />
<glyph unicode="&#x2009;" horiz-adv-x="367" />
<glyph unicode="&#x200a;" horiz-adv-x="101" />
<glyph unicode="&#x2010;" horiz-adv-x="438" d="M-25 389l50 168h438l-49 -168h-439z" />
<glyph unicode="&#x2011;" horiz-adv-x="438" d="M-25 389l50 168h438l-49 -168h-439z" />
<glyph unicode="&#x2012;" horiz-adv-x="438" d="M-25 389l50 168h438l-49 -168h-439z" />
<glyph unicode="&#x2013;" d="M59 397l41 146h873l-41 -146h-873z" />
<glyph unicode="&#x2014;" horiz-adv-x="1282" d="M-23 397l41 146h1282l-40 -146h-1283z" />
<glyph unicode="&#x2018;" horiz-adv-x="479" d="M281 1024q0 66 35 129t114 141q75 72 137 113l31 -41q-186 -152 -186 -221q0 -12 5.5 -17.5t39.5 -25.5q55 -31 55 -98q0 -49 -32 -82t-79 -33q-52 0 -86 38t-34 97z" />
<glyph unicode="&#x2019;" horiz-adv-x="479" d="M266 928q187 153 187 221q0 12 -5.5 17.5t-39.5 25.5q-56 37 -56 100q0 49 32 82t79 33q53 0 87 -37.5t34 -97.5q0 -66 -35 -129.5t-115 -141.5q-79 -76 -137 -112z" />
<glyph unicode="&#x201a;" horiz-adv-x="479" d="M-72 -250q187 153 187 221q0 11 -5.5 16t-39.5 27q-56 32 -56 99q0 49 32 81.5t79 32.5q53 0 87 -37.5t34 -97.5q0 -66 -35 -129t-115 -141q-75 -72 -137 -113z" />
<glyph unicode="&#x201c;" horiz-adv-x="821" d="M281 1024q0 66 35 129t114 141q75 72 137 113l31 -41q-186 -152 -186 -221q0 -12 5.5 -17.5t39.5 -25.5q55 -31 55 -98q0 -49 -32 -82t-79 -33q-52 0 -86 38t-34 97zM623 1024q0 66 35 129t114 141q66 66 137 113l29 -41q-184 -156 -184 -221q0 -12 5.5 -17.5t39.5 -25.5 q53 -32 53 -98q0 -49 -31.5 -82t-77.5 -33q-54 0 -87 38t-33 97z" />
<glyph unicode="&#x201d;" horiz-adv-x="821" d="M266 928q187 153 187 221q0 12 -5.5 17.5t-39.5 25.5q-56 37 -56 100q0 49 32 82t79 33q53 0 87 -37.5t34 -97.5q0 -66 -35 -129.5t-115 -141.5q-79 -76 -137 -112zM608 928q185 157 185 221q0 11 -4.5 15.5t-40.5 27.5q-54 33 -54 100q0 49 32 82t79 33q53 0 87 -37.5 t34 -97.5q0 -66 -35 -129.5t-115 -141.5q-60 -60 -139 -112z" />
<glyph unicode="&#x201e;" horiz-adv-x="821" d="M-72 -250q187 153 187 221q0 11 -5.5 16t-39.5 27q-56 32 -56 99q0 49 32 81.5t79 32.5q53 0 87 -37.5t34 -97.5q0 -66 -35 -129t-115 -141q-75 -72 -137 -113zM270 -250q185 157 185 221q0 11 -5.5 16t-39.5 27q-54 33 -54 99q0 49 32 81.5t79 32.5q53 0 87 -37.5 t34 -97.5q0 -66 -35 -129t-115 -141q-76 -73 -139 -113z" />
<glyph unicode="&#x2022;" horiz-adv-x="1366" d="M457 692q0 120 83.5 202.5t204.5 82.5q114 0 196.5 -83.5t82.5 -199.5q0 -118 -83 -201t-200 -83t-200.5 82.5t-83.5 199.5z" />
<glyph unicode="&#x2026;" horiz-adv-x="1433" d="M12 100q0 51 35 86t86 35t86 -36t35 -89q0 -47 -36 -81.5t-87 -34.5t-85 34.5t-34 85.5zM489 100q0 51 35 86t86 35t86 -36t35 -89q0 -47 -36 -81.5t-87 -34.5t-85 34.5t-34 85.5zM969 100q0 51 35 86t86 35t85.5 -36t34.5 -89q0 -47 -36 -81.5t-87 -34.5t-84.5 34.5 t-33.5 85.5z" />
<glyph unicode="&#x202f;" horiz-adv-x="367" />
<glyph unicode="&#x2039;" horiz-adv-x="417" d="M63 485l271 318h67l-204 -324l28 -315h-53z" />
<glyph unicode="&#x203a;" horiz-adv-x="417" d="M20 164l205 323l-28 316h53l108 -322l-270 -317h-68z" />
<glyph unicode="&#x205f;" horiz-adv-x="458" />
<glyph unicode="&#x20ac;" horiz-adv-x="1404" d="M125 547l33 76h80q14 69 16 75h-94l33 76h81q89 272 285.5 447.5t411.5 175.5q55 0 81.5 -5t129.5 -34q42 -10 61 -10q24 0 98 26l41 15l15 -420h-66q-57 183 -144 269.5t-216 86.5q-160 0 -287 -144.5t-197 -406.5h627l-33 -76h-612q-9 -39 -14 -75h596l-33 -76h-574 q-6 -55 -6 -94q0 -167 94 -271t246 -104q126 0 232.5 75.5t210.5 239.5l61 -35q-216 -389 -580 -389q-207 0 -342 145t-135 369q0 39 4 64h-104z" />
<glyph unicode="&#x2122;" horiz-adv-x="1751" d="M256 1133l115 247q33 -10 50 -12t73 -2h284q76 0 135 14l-10 -258l-47 -4q-7 99 -45 147t-109 50l-204 -676l84 -4l-15 -47h-288l14 47l78 4l204 676q-152 -3 -272 -197zM829 588l15 47q58 7 82.5 33t52.5 110l182 537l-88 4l14 47h207l52 -469l344 469h192l-14 -47 l-70 -4l-184 -676l74 -4l-15 -47h-264l14 47l70 4l166 604l-369 -508h-43l-53 504l-162 -479q-16 -47 -16 -70q0 -26 23 -39t73 -16l-14 -47h-269z" />
<glyph unicode="&#xe000;" horiz-adv-x="972" d="M0 0v973h973v-973h-973z" />
</font>
</defs>
</svg>
